<?xml version="1.0" encoding="utf-8"?>
<!-- Generator: Adobe Illustrator 24.1.1, SVG Export Plug-In . SVG Version: 6.00 Build 0)  -->
<svg version="1.1" id="Layer_1" xmlns="http://www.w3.org/2000/svg" xmlns:xlink="http://www.w3.org/1999/xlink" x="0px" y="0px"
	 viewBox="0 0 700 500" style="enable-background:new 0 0 700 500;" xml:space="preserve">
<style type="text/css">
	.st0{fill:#4169D8;}
	.st1{opacity:0.8;fill:#FFFFFF;enable-background:new    ;}
	.st2{fill:none;stroke:#BFBFBF;stroke-miterlimit:10;}
	.st3{fill:#FFFFFF;stroke:#A1A1A1;stroke-linecap:round;stroke-linejoin:round;}
	.st4{fill:#A1A1A1;stroke:#A1A1A1;stroke-linecap:round;stroke-linejoin:round;}
	.st5{fill:#FFFFFF;}
	.st6{fill:#A1A1A1;}
	.st7{opacity:5.000000e-02;enable-background:new    ;}
	.st8{fill:#C7C7C7;stroke:#263238;stroke-miterlimit:10;}
	.st9{fill:#658BFF;stroke:#263238;stroke-miterlimit:10;}
	.st10{fill:none;stroke:#FFFFFF;stroke-width:2;stroke-miterlimit:10;}
	.st11{fill:#263238;stroke:#263238;stroke-linecap:round;stroke-linejoin:round;}
	.st12{fill:#FDA76E;stroke:#263238;stroke-linecap:round;stroke-linejoin:round;}
	.st13{fill:#636363;stroke:#263238;stroke-linecap:round;stroke-linejoin:round;}
	.st14{fill:#FFFFFF;stroke:#263238;stroke-linecap:round;stroke-linejoin:round;}
	.st15{fill:none;stroke:#263238;stroke-width:2;stroke-linecap:round;stroke-linejoin:round;}
	.st16{fill:none;stroke:#263238;stroke-linecap:round;stroke-linejoin:round;}
</style>
<g id="freepik--background-simple--inject-46">
	<path class="st0" d="M31.9,320.6c1.6,54.9,14.1,120.3,79.4,113.9c18.3-1.8,35.1-8.9,52-15.3c36.4-13.9,75.1-25.1,115.5-23.7
		c56.2,1.9,110.3,32.3,166.4,37.9c76.6,7.7,188.5-11.1,217.3-94.6c15.4-44.8,2.4-93.3-24.7-134.6c-23.4-35.6-59.6-63.4-97.7-49.8
		c-28.9,10.3-49,36.8-78.2,46.4c-42.7,14-77.7-43.4-101-76.5c-3.2-4.5-6.6-8.9-10.2-13.1C259.3,4.7,103.1,62,53.2,162.8
		C29.9,209.8,30.4,266.1,31.9,320.6z"/>
	<path class="st1" d="M31.9,320.6c1.6,54.9,14.1,120.3,79.4,113.9c18.3-1.8,35.1-8.9,52-15.3c36.4-13.9,75.1-25.1,115.5-23.7
		c56.2,1.9,110.3,32.3,166.4,37.9c76.6,7.7,188.5-11.1,217.3-94.6c15.4-44.8,2.4-93.3-24.7-134.6c-23.4-35.6-59.6-63.4-97.7-49.8
		c-28.9,10.3-49,36.8-78.2,46.4c-42.7,14-77.7-43.4-101-76.5c-3.2-4.5-6.6-8.9-10.2-13.1C259.3,4.7,103.1,62,53.2,162.8
		C29.9,209.8,30.4,266.1,31.9,320.6z"/>
</g>
<g id="freepik--Buildings--inject-46">
	<rect x="305.7" y="217.3" class="st2" width="53.3" height="3"/>
	<rect x="300.9" y="263.6" class="st2" width="63.4" height="3"/>
	<rect x="316.8" y="142.4" class="st2" width="31.1" height="74.5"/>
	<path class="st2" d="M334.2,120c7.6,0,13.7,6.2,13.7,13.8v8.8l0,0h-31.1l0,0v-8.8l0,0c0-7.6,6.2-13.8,13.8-13.8H334.2L334.2,120z"
		/>
	<path class="st2" d="M340.3,127v15.6l0,0h-15.8l0,0V127c0-3.9,3.1-7,7-7h1.8C337.1,120,340.2,123.1,340.3,127z"/>
	<rect x="316.8" y="160.2" class="st2" width="31.1" height="3.2"/>
	<rect x="305.7" y="210" class="st2" width="53.3" height="7.1"/>
	<rect x="307.7" y="220.3" class="st2" width="49.3" height="43.4"/>
	<rect x="307.7" y="266.8" class="st2" width="49.3" height="162.7"/>
	<rect x="345.8" y="226.8" class="st2" width="5.3" height="7.3"/>
	<rect x="330.5" y="226.8" class="st2" width="5.3" height="7.3"/>
	<rect x="315.2" y="226.8" class="st2" width="5.3" height="7.3"/>
	<rect x="345.8" y="247.4" class="st2" width="5.3" height="7.3"/>
	<rect x="345.8" y="269.4" class="st2" width="5.3" height="7.3"/>
	<rect x="330.5" y="247.4" class="st2" width="5.3" height="7.3"/>
	<rect x="330.5" y="269.4" class="st2" width="5.3" height="7.3"/>
	<rect x="315.2" y="247.4" class="st2" width="5.3" height="7.3"/>
	<rect x="315.2" y="269.4" class="st2" width="5.3" height="7.3"/>
	<rect x="345.8" y="285.7" class="st2" width="5.3" height="7.3"/>
	<rect x="330.5" y="285.7" class="st2" width="5.3" height="7.3"/>
	<rect x="315.2" y="285.7" class="st2" width="5.3" height="7.3"/>
	<rect x="345.8" y="302.1" class="st2" width="5.3" height="7.3"/>
	<rect x="330.5" y="302.1" class="st2" width="5.3" height="7.3"/>
	<rect x="315.2" y="302.1" class="st2" width="5.3" height="7.3"/>
	<rect x="345.8" y="318.4" class="st2" width="5.3" height="7.3"/>
	<rect x="330.5" y="318.4" class="st2" width="5.3" height="7.3"/>
	<rect x="315.2" y="318.4" class="st2" width="5.3" height="7.3"/>
	<rect x="345.8" y="334.8" class="st2" width="5.3" height="7.3"/>
	<rect x="330.5" y="334.8" class="st2" width="5.3" height="7.3"/>
	<rect x="315.2" y="334.8" class="st2" width="5.3" height="7.3"/>
	<rect x="345.8" y="351.1" class="st2" width="5.3" height="7.3"/>
	<rect x="330.5" y="351.1" class="st2" width="5.3" height="7.3"/>
	<rect x="315.2" y="351.1" class="st2" width="5.3" height="7.3"/>
	<rect x="345.8" y="367.5" class="st2" width="5.3" height="7.3"/>
	<rect x="330.5" y="367.5" class="st2" width="5.3" height="7.3"/>
	<rect x="315.2" y="367.5" class="st2" width="5.3" height="7.3"/>
	<rect x="345.8" y="383.8" class="st2" width="5.3" height="7.3"/>
	<rect x="330.5" y="383.8" class="st2" width="5.3" height="7.3"/>
	<rect x="315.2" y="383.8" class="st2" width="5.3" height="7.3"/>
	<rect x="345.8" y="400.2" class="st2" width="5.3" height="7.3"/>
	<rect x="330.5" y="400.2" class="st2" width="5.3" height="7.3"/>
	<rect x="315.2" y="400.2" class="st2" width="5.3" height="7.3"/>
	<rect x="357.1" y="246.2" class="st2" width="7" height="17.6"/>
	<rect x="358.8" y="249" class="st2" width="3.5" height="14.7"/>
	<rect x="302.7" y="249" class="st2" width="3.5" height="14.7"/>
	<polygon class="st2" points="356.1,246.2 365.2,246.2 360.7,238.3 	"/>
	<rect x="354.5" y="207.4" class="st2" width="4.7" height="9.5"/>
	<polygon class="st2" points="354,207.4 360,207.4 357,194.5 	"/>
	<rect x="342.4" y="207.4" class="st2" width="4.7" height="9.5"/>
	<polygon class="st2" points="341.9,207.4 347.9,207.4 344.9,194.5 	"/>
	<rect x="330.3" y="207.4" class="st2" width="4.7" height="9.5"/>
	<polygon class="st2" points="329.7,207.4 335.8,207.4 332.8,194.5 	"/>
	<rect x="318.2" y="207.4" class="st2" width="4.7" height="9.5"/>
	<polygon class="st2" points="317.6,207.4 323.7,207.4 320.6,194.5 	"/>
	<rect x="306.1" y="207.4" class="st2" width="4.7" height="9.5"/>
	<polygon class="st2" points="305.5,207.4 311.6,207.4 308.5,194.5 	"/>
	<rect x="301" y="246.2" class="st2" width="7" height="17.6"/>
	<polygon class="st2" points="300,246.2 309.1,246.2 304.6,238.3 	"/>
	<line class="st2" x1="339.8" y1="160.3" x2="339.8" y2="142.4"/>
	<line class="st2" x1="337" y1="160.3" x2="337" y2="142.4"/>
	<line class="st2" x1="339.8" y1="216.9" x2="339.8" y2="163.4"/>
	<line class="st2" x1="337" y1="216.9" x2="337" y2="163.4"/>
	<line class="st2" x1="327.7" y1="160.3" x2="327.7" y2="142.4"/>
	<line class="st2" x1="324.9" y1="160.3" x2="324.9" y2="142.4"/>
	<line class="st2" x1="327.7" y1="216.9" x2="327.7" y2="163.4"/>
	<line class="st2" x1="324.9" y1="216.9" x2="324.9" y2="163.4"/>
	<rect x="329.3" y="112.3" class="st2" width="6.4" height="7.9"/>
	<path class="st2" d="M335.8,107.5v3.2l0,0h-6.4l0,0v-3.2c0-1.5,1.2-2.8,2.8-2.8h0.7C334.4,104.7,335.7,105.9,335.8,107.5z"/>
	<rect x="329.3" y="110.9" class="st2" width="6.4" height="1.5"/>
	<line class="st2" x1="332.5" y1="89.8" x2="332.5" y2="104.7"/>
	<line class="st2" x1="327.4" y1="96.2" x2="337.7" y2="96.2"/>
	<path class="st2" d="M332.6,97.4L332.6,97.4c0.8,0,1.4-0.6,1.4-1.4s-0.6-1.4-1.4-1.4s-1.4,0.6-1.4,1.4
		C331.2,96.7,331.8,97.4,332.6,97.4z"/>
	<line class="st2" x1="308.1" y1="257" x2="357" y2="257"/>
	<polyline class="st2" points="377.2,374.1 377.2,325.3 385.5,325.3 385.5,220.3 392.7,220.3 392.7,133.3 397.3,133.3 397.3,111.2 
		409.2,111.2 409.2,102.9 417.5,102.9 420.8,102.9 425.3,102.9 425.3,111.2 436.9,111.2 436.9,133.3 441.4,133.3 441.4,220.3 
		448.5,220.3 448.5,325.3 456.5,325.3 456.5,389.9 	"/>
	<line class="st2" x1="425.3" y1="219.4" x2="425.3" y2="111.2"/>
	<line class="st2" x1="409.2" y1="218.5" x2="409.2" y2="111.2"/>
	<line class="st2" x1="396.6" y1="219.4" x2="434.4" y2="219.4"/>
	<line class="st2" x1="389.7" y1="326.1" x2="444.7" y2="326.1"/>
	<line class="st2" x1="400.9" y1="228" x2="431.8" y2="228"/>
	<line class="st2" x1="400.9" y1="235.7" x2="431.8" y2="235.7"/>
	<line class="st2" x1="400.9" y1="243.5" x2="431.8" y2="243.5"/>
	<line class="st2" x1="400.9" y1="251.2" x2="431.8" y2="251.2"/>
	<line class="st2" x1="400.9" y1="259" x2="431.8" y2="259"/>
	<line class="st2" x1="400.9" y1="266.7" x2="431.8" y2="266.7"/>
	<line class="st2" x1="400.9" y1="274.5" x2="431.8" y2="274.5"/>
	<line class="st2" x1="400.9" y1="282.2" x2="431.8" y2="282.2"/>
	<line class="st2" x1="400.9" y1="289.9" x2="431.8" y2="289.9"/>
	<line class="st2" x1="400.9" y1="297.7" x2="431.8" y2="297.7"/>
	<line class="st2" x1="400.9" y1="305.4" x2="431.8" y2="305.4"/>
	<line class="st2" x1="400.9" y1="313.2" x2="431.8" y2="313.2"/>
	<line class="st2" x1="400.9" y1="320.9" x2="431.8" y2="320.9"/>
	<line class="st2" x1="400.9" y1="333" x2="431.8" y2="333"/>
	<line class="st2" x1="400.9" y1="340.7" x2="431.8" y2="340.7"/>
	<line class="st2" x1="400.9" y1="348.5" x2="431.8" y2="348.5"/>
	<line class="st2" x1="400.9" y1="356.2" x2="431.8" y2="356.2"/>
	<line class="st2" x1="400.9" y1="363.9" x2="431.8" y2="363.9"/>
	<line class="st2" x1="400.9" y1="371.7" x2="431.8" y2="371.7"/>
	<line class="st2" x1="406" y1="379.4" x2="431.8" y2="379.4"/>
	<line class="st2" x1="406" y1="387.2" x2="431.8" y2="387.2"/>
	<line class="st2" x1="406" y1="394.9" x2="431.8" y2="394.9"/>
	<line class="st2" x1="406" y1="402.6" x2="431.8" y2="402.6"/>
	<line class="st2" x1="406" y1="410.4" x2="431.8" y2="410.4"/>
	<line class="st2" x1="442.2" y1="228" x2="436.6" y2="228"/>
	<line class="st2" x1="442.2" y1="235.7" x2="436.6" y2="235.7"/>
	<line class="st2" x1="442.2" y1="243.5" x2="436.6" y2="243.5"/>
	<line class="st2" x1="442.2" y1="251.2" x2="436.6" y2="251.2"/>
	<line class="st2" x1="442.2" y1="259" x2="436.6" y2="259"/>
	<line class="st2" x1="442.2" y1="266.7" x2="436.6" y2="266.7"/>
	<line class="st2" x1="442.2" y1="274.5" x2="436.6" y2="274.5"/>
	<line class="st2" x1="442.2" y1="282.2" x2="436.6" y2="282.2"/>
	<line class="st2" x1="442.2" y1="289.9" x2="436.6" y2="289.9"/>
	<line class="st2" x1="442.2" y1="297.7" x2="436.6" y2="297.7"/>
	<line class="st2" x1="442.2" y1="305.4" x2="436.6" y2="305.4"/>
	<line class="st2" x1="442.2" y1="313.2" x2="436.6" y2="313.2"/>
	<line class="st2" x1="442.2" y1="320.9" x2="436.6" y2="320.9"/>
	<line class="st2" x1="396.1" y1="228" x2="390.5" y2="228"/>
	<line class="st2" x1="396.1" y1="235.7" x2="390.5" y2="235.7"/>
	<line class="st2" x1="396.1" y1="243.5" x2="390.5" y2="243.5"/>
	<line class="st2" x1="396.1" y1="251.2" x2="390.5" y2="251.2"/>
	<line class="st2" x1="396.1" y1="259" x2="390.5" y2="259"/>
	<line class="st2" x1="396.1" y1="266.7" x2="390.5" y2="266.7"/>
	<line class="st2" x1="396.1" y1="274.5" x2="390.5" y2="274.5"/>
	<line class="st2" x1="396.1" y1="282.2" x2="390.5" y2="282.2"/>
	<line class="st2" x1="396.1" y1="289.9" x2="390.5" y2="289.9"/>
	<line class="st2" x1="396.1" y1="297.7" x2="390.5" y2="297.7"/>
	<line class="st2" x1="396.1" y1="305.4" x2="390.5" y2="305.4"/>
	<line class="st2" x1="396.1" y1="313.2" x2="390.5" y2="313.2"/>
	<line class="st2" x1="396.1" y1="320.9" x2="390.5" y2="320.9"/>
	<line class="st2" x1="442.2" y1="333" x2="436.6" y2="333"/>
	<line class="st2" x1="442.2" y1="340.7" x2="436.6" y2="340.7"/>
	<line class="st2" x1="442.2" y1="348.5" x2="436.6" y2="348.5"/>
	<line class="st2" x1="442.2" y1="356.2" x2="436.6" y2="356.2"/>
	<line class="st2" x1="442.2" y1="363.9" x2="436.6" y2="363.9"/>
	<line class="st2" x1="442.2" y1="371.7" x2="436.6" y2="371.7"/>
	<line class="st2" x1="442.2" y1="379.4" x2="436.6" y2="379.4"/>
	<line class="st2" x1="442.2" y1="387.2" x2="436.6" y2="387.2"/>
	<line class="st2" x1="442.2" y1="394.9" x2="436.6" y2="394.9"/>
	<line class="st2" x1="442.2" y1="402.6" x2="436.6" y2="402.6"/>
	<line class="st2" x1="442.2" y1="410.4" x2="436.6" y2="410.4"/>
	<line class="st2" x1="454.2" y1="333" x2="448.6" y2="333"/>
	<line class="st2" x1="454.2" y1="340.7" x2="448.6" y2="340.7"/>
	<line class="st2" x1="454.2" y1="348.5" x2="448.6" y2="348.5"/>
	<line class="st2" x1="454.2" y1="356.2" x2="448.6" y2="356.2"/>
	<line class="st2" x1="454.2" y1="363.9" x2="448.6" y2="363.9"/>
	<line class="st2" x1="454.2" y1="371.7" x2="448.6" y2="371.7"/>
	<line class="st2" x1="454.2" y1="379.4" x2="448.6" y2="379.4"/>
	<line class="st2" x1="454.2" y1="387.2" x2="448.6" y2="387.2"/>
	<line class="st2" x1="396.1" y1="333" x2="390.5" y2="333"/>
	<line class="st2" x1="396.1" y1="340.7" x2="390.5" y2="340.7"/>
	<line class="st2" x1="396.1" y1="348.5" x2="390.5" y2="348.5"/>
	<line class="st2" x1="396.1" y1="356.2" x2="390.5" y2="356.2"/>
	<line class="st2" x1="396.1" y1="363.9" x2="390.5" y2="363.9"/>
	<line class="st2" x1="396.1" y1="371.7" x2="390.5" y2="371.7"/>
	<line class="st2" x1="385.8" y1="333" x2="380.2" y2="333"/>
	<line class="st2" x1="385.8" y1="340.7" x2="380.2" y2="340.7"/>
	<line class="st2" x1="385.8" y1="348.5" x2="380.2" y2="348.5"/>
	<line class="st2" x1="385.8" y1="356.2" x2="380.2" y2="356.2"/>
	<line class="st2" x1="385.8" y1="363.9" x2="380.2" y2="363.9"/>
	<line class="st2" x1="385.8" y1="371.7" x2="380.2" y2="371.7"/>
	<line class="st2" x1="428.4" y1="147.1" x2="437.8" y2="147.1"/>
	<line class="st2" x1="428.4" y1="154" x2="437.8" y2="154"/>
	<line class="st2" x1="428.4" y1="160.9" x2="437.8" y2="160.9"/>
	<line class="st2" x1="428.4" y1="167.8" x2="437.8" y2="167.8"/>
	<line class="st2" x1="428.4" y1="174.6" x2="437.8" y2="174.6"/>
	<line class="st2" x1="428.4" y1="181.5" x2="437.8" y2="181.5"/>
	<line class="st2" x1="428.4" y1="188.4" x2="437.8" y2="188.4"/>
	<line class="st2" x1="428.4" y1="195.3" x2="437.8" y2="195.3"/>
	<line class="st2" x1="428.4" y1="202.2" x2="437.8" y2="202.2"/>
	<line class="st2" x1="428.4" y1="209.1" x2="437.8" y2="209.1"/>
	<line class="st2" x1="428.4" y1="215.9" x2="437.8" y2="215.9"/>
	<line class="st2" x1="398.3" y1="147.1" x2="407.7" y2="147.1"/>
	<line class="st2" x1="398.3" y1="154" x2="407.7" y2="154"/>
	<line class="st2" x1="398.3" y1="160.9" x2="407.7" y2="160.9"/>
	<line class="st2" x1="398.3" y1="167.8" x2="407.7" y2="167.8"/>
	<line class="st2" x1="398.3" y1="174.6" x2="407.7" y2="174.6"/>
	<line class="st2" x1="398.3" y1="181.5" x2="407.7" y2="181.5"/>
	<line class="st2" x1="398.3" y1="188.4" x2="407.7" y2="188.4"/>
	<line class="st2" x1="398.3" y1="195.3" x2="407.7" y2="195.3"/>
	<line class="st2" x1="398.3" y1="202.2" x2="407.7" y2="202.2"/>
	<line class="st2" x1="398.3" y1="209.1" x2="407.7" y2="209.1"/>
	<line class="st2" x1="398.3" y1="215.9" x2="407.7" y2="215.9"/>
	<polyline class="st2" points="458.1,389.9 458.1,325.3 469.7,325.3 469.7,220.3 479.8,220.3 479.8,133.3 486.3,133.3 486.3,111.2 
		503,111.2 503,102.9 514.7,102.9 519.4,102.9 525.7,102.9 525.7,111.2 541.9,111.2 541.9,133.3 548.3,133.3 548.3,220.3 
		558.2,220.3 558.2,325.3 569.5,325.3 569.5,428.2 	"/>
	<line class="st2" x1="525.7" y1="219.4" x2="525.7" y2="111.2"/>
	<line class="st2" x1="503" y1="218.5" x2="503" y2="111.2"/>
	<line class="st2" x1="485.2" y1="219.4" x2="538.4" y2="219.4"/>
	<line class="st2" x1="475.6" y1="326.1" x2="552.9" y2="326.1"/>
	<line class="st2" x1="491.3" y1="228" x2="534.8" y2="228"/>
	<line class="st2" x1="491.3" y1="235.7" x2="534.8" y2="235.7"/>
	<line class="st2" x1="491.3" y1="243.5" x2="534.8" y2="243.5"/>
	<line class="st2" x1="491.3" y1="251.2" x2="534.8" y2="251.2"/>
	<line class="st2" x1="491.3" y1="259" x2="534.8" y2="259"/>
	<line class="st2" x1="491.3" y1="266.7" x2="534.8" y2="266.7"/>
	<line class="st2" x1="491.3" y1="274.5" x2="534.8" y2="274.5"/>
	<line class="st2" x1="491.3" y1="282.2" x2="534.8" y2="282.2"/>
	<line class="st2" x1="491.3" y1="289.9" x2="534.8" y2="289.9"/>
	<line class="st2" x1="491.3" y1="297.7" x2="534.8" y2="297.7"/>
	<line class="st2" x1="491.3" y1="305.4" x2="534.8" y2="305.4"/>
	<line class="st2" x1="491.3" y1="313.2" x2="534.8" y2="313.2"/>
	<line class="st2" x1="491.3" y1="320.9" x2="534.8" y2="320.9"/>
	<line class="st2" x1="491.3" y1="333" x2="534.8" y2="333"/>
	<line class="st2" x1="491.3" y1="340.7" x2="534.8" y2="340.7"/>
	<line class="st2" x1="491.3" y1="348.5" x2="534.8" y2="348.5"/>
	<line class="st2" x1="491.3" y1="356.2" x2="534.8" y2="356.2"/>
	<line class="st2" x1="491.3" y1="363.9" x2="534.8" y2="363.9"/>
	<line class="st2" x1="491.3" y1="371.7" x2="534.8" y2="371.7"/>
	<line class="st2" x1="491.3" y1="379.4" x2="534.8" y2="379.4"/>
	<line class="st2" x1="491.3" y1="387.2" x2="534.8" y2="387.2"/>
	<line class="st2" x1="549.3" y1="228" x2="541.4" y2="228"/>
	<line class="st2" x1="549.3" y1="235.7" x2="541.4" y2="235.7"/>
	<line class="st2" x1="549.3" y1="243.5" x2="541.4" y2="243.5"/>
	<line class="st2" x1="549.3" y1="251.2" x2="541.4" y2="251.2"/>
	<line class="st2" x1="549.3" y1="259" x2="541.4" y2="259"/>
	<line class="st2" x1="549.3" y1="266.7" x2="541.4" y2="266.7"/>
	<line class="st2" x1="549.3" y1="274.5" x2="541.4" y2="274.5"/>
	<line class="st2" x1="549.3" y1="282.2" x2="541.4" y2="282.2"/>
	<line class="st2" x1="549.3" y1="289.9" x2="541.4" y2="289.9"/>
	<line class="st2" x1="549.3" y1="297.7" x2="541.4" y2="297.7"/>
	<line class="st2" x1="549.3" y1="305.4" x2="541.4" y2="305.4"/>
	<line class="st2" x1="549.3" y1="313.2" x2="541.4" y2="313.2"/>
	<line class="st2" x1="549.3" y1="320.9" x2="541.4" y2="320.9"/>
	<line class="st2" x1="484.7" y1="228" x2="476.8" y2="228"/>
	<line class="st2" x1="484.7" y1="235.7" x2="476.8" y2="235.7"/>
	<line class="st2" x1="484.7" y1="243.5" x2="476.8" y2="243.5"/>
	<line class="st2" x1="484.7" y1="251.2" x2="476.8" y2="251.2"/>
	<line class="st2" x1="484.7" y1="259" x2="476.8" y2="259"/>
	<line class="st2" x1="484.7" y1="266.7" x2="476.8" y2="266.7"/>
	<line class="st2" x1="484.7" y1="274.5" x2="476.8" y2="274.5"/>
	<line class="st2" x1="484.7" y1="282.2" x2="476.8" y2="282.2"/>
	<line class="st2" x1="484.7" y1="289.9" x2="476.8" y2="289.9"/>
	<line class="st2" x1="484.7" y1="297.7" x2="476.8" y2="297.7"/>
	<line class="st2" x1="484.7" y1="305.4" x2="476.8" y2="305.4"/>
	<line class="st2" x1="484.7" y1="313.2" x2="476.8" y2="313.2"/>
	<line class="st2" x1="484.7" y1="320.9" x2="476.8" y2="320.9"/>
	<line class="st2" x1="549.3" y1="333" x2="541.4" y2="333"/>
	<line class="st2" x1="549.3" y1="340.7" x2="541.4" y2="340.7"/>
	<line class="st2" x1="549.3" y1="348.5" x2="541.4" y2="348.5"/>
	<line class="st2" x1="549.3" y1="356.2" x2="541.4" y2="356.2"/>
	<line class="st2" x1="549.3" y1="363.9" x2="541.4" y2="363.9"/>
	<line class="st2" x1="549.3" y1="371.7" x2="541.4" y2="371.7"/>
	<line class="st2" x1="549.3" y1="379.4" x2="541.4" y2="379.4"/>
	<line class="st2" x1="549.3" y1="387.2" x2="541.4" y2="387.2"/>
	<line class="st2" x1="549.3" y1="394.9" x2="541.4" y2="394.9"/>
	<line class="st2" x1="549.3" y1="402.6" x2="541.4" y2="402.6"/>
	<line class="st2" x1="549.3" y1="410.4" x2="541.4" y2="410.4"/>
	<line class="st2" x1="549.3" y1="418.1" x2="541.4" y2="418.1"/>
	<line class="st2" x1="549.3" y1="425.9" x2="541.4" y2="425.9"/>
	<line class="st2" x1="566.2" y1="333" x2="558.3" y2="333"/>
	<line class="st2" x1="566.2" y1="340.7" x2="558.3" y2="340.7"/>
	<line class="st2" x1="566.2" y1="348.5" x2="558.3" y2="348.5"/>
	<line class="st2" x1="566.2" y1="356.2" x2="558.3" y2="356.2"/>
	<line class="st2" x1="566.2" y1="363.9" x2="558.3" y2="363.9"/>
	<line class="st2" x1="566.2" y1="371.7" x2="558.3" y2="371.7"/>
	<line class="st2" x1="566.2" y1="379.4" x2="558.3" y2="379.4"/>
	<line class="st2" x1="566.2" y1="387.2" x2="558.3" y2="387.2"/>
	<line class="st2" x1="566.2" y1="394.9" x2="558.3" y2="394.9"/>
	<line class="st2" x1="566.2" y1="402.6" x2="558.3" y2="402.6"/>
	<line class="st2" x1="566.2" y1="410.4" x2="558.3" y2="410.4"/>
	<line class="st2" x1="566.2" y1="418.1" x2="558.3" y2="418.1"/>
	<line class="st2" x1="566.2" y1="425.9" x2="558.3" y2="425.9"/>
	<line class="st2" x1="484.7" y1="333" x2="476.8" y2="333"/>
	<line class="st2" x1="484.7" y1="340.7" x2="476.8" y2="340.7"/>
	<line class="st2" x1="484.7" y1="348.5" x2="476.8" y2="348.5"/>
	<line class="st2" x1="484.7" y1="356.2" x2="476.8" y2="356.2"/>
	<line class="st2" x1="484.7" y1="363.9" x2="476.8" y2="363.9"/>
	<line class="st2" x1="484.7" y1="371.7" x2="476.8" y2="371.7"/>
	<line class="st2" x1="484.7" y1="379.4" x2="476.8" y2="379.4"/>
	<line class="st2" x1="484.7" y1="387.2" x2="476.8" y2="387.2"/>
	<line class="st2" x1="470.2" y1="333" x2="462.3" y2="333"/>
	<line class="st2" x1="470.2" y1="340.7" x2="462.3" y2="340.7"/>
	<line class="st2" x1="470.2" y1="348.5" x2="462.3" y2="348.5"/>
	<line class="st2" x1="470.2" y1="356.2" x2="462.3" y2="356.2"/>
	<line class="st2" x1="470.2" y1="363.9" x2="462.3" y2="363.9"/>
	<line class="st2" x1="470.2" y1="371.7" x2="462.3" y2="371.7"/>
	<line class="st2" x1="470.2" y1="379.4" x2="462.3" y2="379.4"/>
	<line class="st2" x1="470.2" y1="387.2" x2="462.3" y2="387.2"/>
	<line class="st2" x1="530" y1="147.1" x2="543.3" y2="147.1"/>
	<line class="st2" x1="530" y1="154" x2="543.3" y2="154"/>
	<line class="st2" x1="530" y1="160.9" x2="543.3" y2="160.9"/>
	<line class="st2" x1="530" y1="167.8" x2="543.3" y2="167.8"/>
	<line class="st2" x1="530" y1="174.6" x2="543.3" y2="174.6"/>
	<line class="st2" x1="530" y1="181.5" x2="543.3" y2="181.5"/>
	<line class="st2" x1="530" y1="188.4" x2="543.3" y2="188.4"/>
	<line class="st2" x1="530" y1="195.3" x2="543.3" y2="195.3"/>
	<line class="st2" x1="530" y1="202.2" x2="543.3" y2="202.2"/>
	<line class="st2" x1="530" y1="209.1" x2="543.3" y2="209.1"/>
	<line class="st2" x1="530" y1="215.9" x2="543.3" y2="215.9"/>
	<line class="st2" x1="487.7" y1="147.1" x2="501" y2="147.1"/>
	<line class="st2" x1="487.7" y1="154" x2="501" y2="154"/>
	<line class="st2" x1="487.7" y1="160.9" x2="501" y2="160.9"/>
	<line class="st2" x1="487.7" y1="167.8" x2="501" y2="167.8"/>
	<line class="st2" x1="487.7" y1="174.6" x2="501" y2="174.6"/>
	<line class="st2" x1="487.7" y1="181.5" x2="501" y2="181.5"/>
	<line class="st2" x1="487.7" y1="188.4" x2="501" y2="188.4"/>
	<line class="st2" x1="487.7" y1="195.3" x2="501" y2="195.3"/>
	<line class="st2" x1="487.7" y1="202.2" x2="501" y2="202.2"/>
	<line class="st2" x1="487.7" y1="209.1" x2="501" y2="209.1"/>
	<line class="st2" x1="487.7" y1="215.9" x2="501" y2="215.9"/>
	<line class="st2" x1="527.3" y1="133.3" x2="541.9" y2="133.3"/>
	<line class="st2" x1="502.4" y1="133.3" x2="486.3" y2="133.3"/>
	<line class="st2" x1="504.1" y1="119.6" x2="524.7" y2="119.6"/>
	<polyline class="st2" points="296.7,366.1 296.7,251.2 170.3,251.2 170.3,386 	"/>
	<rect x="170.3" y="220.2" class="st2" width="43" height="30.1"/>
	<rect x="253.7" y="220.2" class="st2" width="43" height="30.1"/>
	<rect x="275.2" y="220.2" class="st2" width="21.5" height="30.1"/>
	<rect x="172.8" y="238.3" class="st2" width="37.9" height="12.9"/>
	<rect x="201.2" y="222.8" class="st2" width="9.5" height="9.5"/>
	<rect x="185.8" y="222.8" class="st2" width="12" height="9.5"/>
	<rect x="172.8" y="222.8" class="st2" width="9.5" height="9.5"/>
	<path class="st2" d="M272.7,366.5V256.4"/>
	<path class="st2" d="M262.3,366.5V256.4"/>
	<path class="st2" d="M234.8,386.9V256.4"/>
	<path class="st2" d="M224.5,386.9V256.4"/>
	<path class="st2" d="M196.9,386.9V256.4"/>
	<path class="st2" d="M186.6,386.9V256.4"/>
	<line class="st2" x1="285.2" y1="257.2" x2="279.5" y2="257.2"/>
	<line class="st2" x1="285.2" y1="264" x2="279.5" y2="264"/>
	<line class="st2" x1="285.2" y1="270.8" x2="279.5" y2="270.8"/>
	<line class="st2" x1="285.2" y1="277.5" x2="279.5" y2="277.5"/>
	<line class="st2" x1="285.2" y1="284.3" x2="279.5" y2="284.3"/>
	<line class="st2" x1="285.2" y1="291.1" x2="279.5" y2="291.1"/>
	<line class="st2" x1="285.2" y1="297.8" x2="279.5" y2="297.8"/>
	<line class="st2" x1="285.2" y1="304.6" x2="279.5" y2="304.6"/>
	<line class="st2" x1="285.2" y1="311.4" x2="279.5" y2="311.4"/>
	<line class="st2" x1="285.2" y1="318.1" x2="279.5" y2="318.1"/>
	<line class="st2" x1="285.2" y1="324.9" x2="279.5" y2="324.9"/>
	<line class="st2" x1="285.2" y1="331.7" x2="279.5" y2="331.7"/>
	<line class="st2" x1="285.2" y1="338.5" x2="279.5" y2="338.5"/>
	<line class="st2" x1="285.2" y1="343" x2="279.5" y2="343"/>
	<line class="st2" x1="285.2" y1="349.7" x2="279.5" y2="349.7"/>
	<line class="st2" x1="285.2" y1="356.5" x2="279.5" y2="356.5"/>
	<line class="st2" x1="285.2" y1="363.3" x2="279.5" y2="363.3"/>
	<line class="st2" x1="251.6" y1="257.2" x2="246" y2="257.2"/>
	<line class="st2" x1="251.6" y1="264" x2="246" y2="264"/>
	<line class="st2" x1="251.6" y1="270.8" x2="246" y2="270.8"/>
	<line class="st2" x1="251.6" y1="277.5" x2="246" y2="277.5"/>
	<line class="st2" x1="251.6" y1="284.3" x2="246" y2="284.3"/>
	<line class="st2" x1="251.6" y1="291.1" x2="246" y2="291.1"/>
	<line class="st2" x1="251.6" y1="297.8" x2="246" y2="297.8"/>
	<line class="st2" x1="251.6" y1="304.6" x2="246" y2="304.6"/>
	<line class="st2" x1="251.6" y1="311.4" x2="246" y2="311.4"/>
	<line class="st2" x1="251.6" y1="318.1" x2="246" y2="318.1"/>
	<line class="st2" x1="251.6" y1="324.9" x2="246" y2="324.9"/>
	<line class="st2" x1="251.6" y1="331.7" x2="246" y2="331.7"/>
	<line class="st2" x1="251.6" y1="338.5" x2="246" y2="338.5"/>
	<line class="st2" x1="251.6" y1="343" x2="246" y2="343"/>
	<line class="st2" x1="251.6" y1="349.7" x2="246" y2="349.7"/>
	<line class="st2" x1="251.6" y1="356.5" x2="246" y2="356.5"/>
	<line class="st2" x1="251.6" y1="363.3" x2="246" y2="363.3"/>
	<line class="st2" x1="213.7" y1="257.2" x2="208.1" y2="257.2"/>
	<line class="st2" x1="213.7" y1="264" x2="208.1" y2="264"/>
	<line class="st2" x1="213.7" y1="270.8" x2="208.1" y2="270.8"/>
	<line class="st2" x1="213.7" y1="277.5" x2="208.1" y2="277.5"/>
	<line class="st2" x1="213.7" y1="284.3" x2="208.1" y2="284.3"/>
	<line class="st2" x1="213.7" y1="291.1" x2="208.1" y2="291.1"/>
	<line class="st2" x1="213.7" y1="297.8" x2="208.1" y2="297.8"/>
	<line class="st2" x1="213.7" y1="304.6" x2="208.1" y2="304.6"/>
	<line class="st2" x1="213.7" y1="311.4" x2="208.1" y2="311.4"/>
	<line class="st2" x1="213.7" y1="318.1" x2="208.1" y2="318.1"/>
	<line class="st2" x1="213.7" y1="324.9" x2="208.1" y2="324.9"/>
	<line class="st2" x1="213.7" y1="331.7" x2="208.1" y2="331.7"/>
	<line class="st2" x1="213.7" y1="338.5" x2="208.1" y2="338.5"/>
	<line class="st2" x1="213.7" y1="343" x2="208.1" y2="343"/>
	<line class="st2" x1="213.7" y1="349.7" x2="208.1" y2="349.7"/>
	<line class="st2" x1="213.7" y1="356.5" x2="208.1" y2="356.5"/>
	<line class="st2" x1="213.7" y1="363.3" x2="208.1" y2="363.3"/>
	<line class="st2" x1="213.7" y1="370" x2="208.1" y2="370"/>
	<line class="st2" x1="213.7" y1="376.8" x2="208.1" y2="376.8"/>
	<line class="st2" x1="213.7" y1="383.6" x2="208.1" y2="383.6"/>
	<line class="st2" x1="183.6" y1="257.2" x2="178" y2="257.2"/>
	<line class="st2" x1="183.6" y1="264" x2="178" y2="264"/>
	<line class="st2" x1="183.6" y1="270.8" x2="178" y2="270.8"/>
	<line class="st2" x1="183.6" y1="277.5" x2="178" y2="277.5"/>
	<line class="st2" x1="183.6" y1="284.3" x2="178" y2="284.3"/>
	<line class="st2" x1="183.6" y1="291.1" x2="178" y2="291.1"/>
	<line class="st2" x1="183.6" y1="297.8" x2="178" y2="297.8"/>
	<line class="st2" x1="183.6" y1="304.6" x2="178" y2="304.6"/>
	<line class="st2" x1="183.6" y1="311.4" x2="178" y2="311.4"/>
	<line class="st2" x1="183.6" y1="318.1" x2="178" y2="318.1"/>
	<line class="st2" x1="183.6" y1="324.9" x2="178" y2="324.9"/>
	<line class="st2" x1="183.6" y1="331.7" x2="178" y2="331.7"/>
	<line class="st2" x1="183.6" y1="338.5" x2="178" y2="338.5"/>
	<line class="st2" x1="183.6" y1="343" x2="178" y2="343"/>
	<line class="st2" x1="183.6" y1="349.7" x2="178" y2="349.7"/>
	<line class="st2" x1="183.6" y1="356.5" x2="178" y2="356.5"/>
	<line class="st2" x1="183.6" y1="363.3" x2="178" y2="363.3"/>
	<line class="st2" x1="183.6" y1="370" x2="178" y2="370"/>
	<line class="st2" x1="183.6" y1="376.8" x2="178" y2="376.8"/>
	<line class="st2" x1="183.6" y1="383.6" x2="178" y2="383.6"/>
	<polyline class="st2" points="666.7,277.9 606.5,277.9 606.5,367.4 590.2,367.4 590.2,273.6 558.3,273.6 	"/>
	<polyline class="st2" points="579.8,176.4 585,170.3 566.9,170.3 572.9,157.4 549.7,157.4 	"/>
	<polyline class="st2" points="580.1,182.7 584.9,176.8 549.8,176.8 	"/>
	<polyline class="st2" points="580.1,188.7 584.9,182.7 549.8,182.7 	"/>
	<polyline class="st2" points="580.1,194.6 584.9,188.7 549.8,188.7 	"/>
	<polyline class="st2" points="580.1,200.6 584.9,194.6 549.8,194.6 	"/>
	<polyline class="st2" points="580.1,206.5 584.9,200.6 549.8,200.6 	"/>
	<polyline class="st2" points="580.1,212.4 584.9,206.5 549.8,206.5 	"/>
	<polyline class="st2" points="580.1,218.4 584.9,212.4 549.8,212.4 	"/>
	<polyline class="st2" points="580.1,224.3 584.9,218.4 549.8,218.4 	"/>
	<polyline class="st2" points="580.1,230.3 584.9,224.3 558.4,224.3 	"/>
	<polyline class="st2" points="580.1,236.2 584.9,230.3 558.4,230.3 	"/>
	<polyline class="st2" points="580.1,242.1 584.9,236.2 558.4,236.2 	"/>
	<polyline class="st2" points="580.1,248.1 584.9,242.1 558.4,242.1 	"/>
	<polyline class="st2" points="580.1,254 584.9,248.1 558.1,248.1 	"/>
	<polyline class="st2" points="580.1,260 584.9,254 558.1,254 	"/>
	<polyline class="st2" points="580.1,265.9 584.9,260 557.9,260 	"/>
	<polyline class="st2" points="580.1,271.9 584.9,265.9 558.1,265.9 	"/>
	<polyline class="st2" points="537.7,431 537.7,390.6 445.6,390.6 445.6,416.4 405.2,416.4 405.2,374.3 356.1,374.3 	"/>
	<polyline class="st2" points="132.4,429.3 132.4,400.1 151.3,400.1 151.3,386.3 239.1,386.3 239.1,366.5 307.9,366.5 	"/>
	<line class="st2" x1="122.9" y1="336.4" x2="170.3" y2="336.4"/>
	<line class="st2" x1="240" y1="375.1" x2="307.9" y2="375.1"/>
	<rect x="297.7" y="378.6" class="st2" width="8.2" height="6"/>
	<rect x="279.6" y="378.6" class="st2" width="8.2" height="6"/>
	<rect x="261.5" y="378.6" class="st2" width="8.2" height="6"/>
	<rect x="243.4" y="378.6" class="st2" width="8.2" height="6"/>
	<line class="st2" x1="240" y1="394.6" x2="307.9" y2="394.6"/>
	<rect x="297.7" y="398.1" class="st2" width="8.2" height="6"/>
	<rect x="279.6" y="398.1" class="st2" width="8.2" height="6"/>
	<rect x="261.5" y="398.1" class="st2" width="8.2" height="6"/>
	<rect x="243.4" y="398.1" class="st2" width="8.2" height="6"/>
	<line class="st2" x1="159.9" y1="413" x2="307.1" y2="413"/>
	<line class="st2" x1="234.8" y1="413.8" x2="234.8" y2="427.6"/>
	<rect x="358.8" y="378.9" class="st2" width="42" height="6.2"/>
	<rect x="358.8" y="393.1" class="st2" width="42" height="6.2"/>
</g>
<g id="freepik--Airplane--inject-46">
	<path class="st3" d="M107.6,85.7c0.7,1.7,13.6,5.7,22.5,6.5s32.2-1.3,32.2-1.3s6.8-0.3,12.3-0.7s44.4-8.9,52.3-11.5
		s16.6-7.4,17.9-9.5s-1-5.4-5.7-7.6c-3.8-1.7-10.8-1.4-13.3-1.2c-0.6,0-1.1,0.1-1.7,0.2l-47.2,9.2l-64.6,12.5
		C112.3,82.3,106.9,84,107.6,85.7z"/>
	<path class="st3" d="M137.9,78.2l-25.3,5.6l-8.4-26.6c2.1-0.2,4.2-0.3,6.3-0.3c0.7,0.2,13,18.1,16.2,19.9s10.2,1.2,10.2,1.2
		L137.9,78.2z"/>
	<path class="st4" d="M115.7,84l-34.5-2.3L77.9,82l32.1,3.5c0.4,0.8,1.1,1.5,1.9,1.9c1.3,0.7,3.6,1.5,4.7,1.9s2.9,1,2.9,1
		S115.7,87.5,115.7,84z"/>
	<path class="st4" d="M56.1,67.2l3.8,4l33.4,4.2l3.9,1.4l0.2,2.5l2.8,0.2l3.6,0.3c0,0-1.9,1.4-0.1,1.8s5.1-1.9,5.1-1.9l9,1.5
		l-0.4,1.1l-1.2,1.6l1.5-0.1l3.5-1.5h0.3l9.8,1.4l-1.6,1.9l1.3,0.2l3.3-2.3l10.2,1.5c0,0-2.4,2.3-1.4,1.9s4.4-1.9,4.4-1.9l0.2,2.5
		c0,1,1.3,0.9,1.3,0.9s-0.2,1-7.7,2.1c-5.3,0.6-10.6,1-15.9,1l0,0c1.7,0.3,3.4,0.6,5,0.7c5.4,0.5,16.1-0.1,23.7-0.6l0.2,6.4l-1-0.2
		c0-0.1,0-0.2,0-0.3c-0.3-1.2-1.4-1.9-2.6-1.7c-1.2,0.3-1.9,1.4-1.7,2.6c0.3,1.2,1.4,1.9,2.6,1.7c0.7,0,1.2-0.5,1.5-1.1l1.5-0.1
		c0.3,0.7,1,1.1,1.8,1.1l0,0c1.1-0.2,1.9-1.2,1.7-2.3c-0.1-0.7-0.5-1.3-1.1-1.7v-0.1l1.8-0.3c0.4,0.6,1.1,1,1.8,1
		c0.9-0.1,1.7-1,1.7-2c0-1.2-0.9-2.2-2.1-2.2c-0.8,0.1-1.4,0.6-1.6,1.3h-1.9l-0.2-2.3c3.6-0.3,6-0.5,6-0.5s6.8-0.3,12.3-0.7
		c1.8-0.2,7.3-1.2,14.2-2.6l0.4,2.7l-1.5,3.1l-0.2,3.6l-1,0.3c-0.2-0.9-1-1.4-1.9-1.4c-0.9,0.1-1.7,1-1.7,2c0,1.2,0.9,2.2,2.1,2.2
		c0.7-0.1,1.2-0.5,1.5-1.1h0.2c0.1,1.1,0.9,1.9,2,1.9l0,0c1.1-0.2,1.9-1.2,1.7-2.3c-0.1-0.9-0.7-1.6-1.5-1.9v-0.1l2.5-0.2
		c0.4,0.6,1,0.9,1.7,0.9c0.9-0.1,1.7-1,1.7-2c0-1.2-0.9-2.2-2.1-2.2c-0.9,0.1-1.6,0.8-1.7,1.6l-1.7-0.6l2-3.7l2.7-1l-0.3-2.9
		c4.2-0.9,8.6-1.9,12.8-2.8c-0.7,1.9-1.7,5.5,0.6,6.6c3.1,1.5,13.1,0.2,16.6-0.6c2.5-0.4,4.3-2.4,4.5-4.9c0.1,0,0.1,0,0.2,0
		c0.2,0,0.3,0,0.5-0.1c0.2,0.6,0.7,1,1.3,1c0.8,0,1.4-0.6,1.4-1.4s-0.6-1.4-1.4-1.4l-0.3-3.5c0,0,12-1.2,13-1.3s-0.5-3.9-0.6-4.7
		s-2.8,3-2.8,3l-11,1.4l-0.3,0.1c7.4-2.7,15-6.9,16.3-8.9c0.9-1.3,0.3-3.1-1.4-4.8l0,0c-0.6,1.4-1.7,2.6-3,3.4
		c-5,3.2-11,4.2-28.8,8.9s-29.9,4.9-29.9,4.9l6.4-1.8c1.7-1.6-3.1-1.5-3.1-1.5l-39.2-2.4l-62.5-3.8l0.7,0.3l-20.5-1.7L56.1,67.2z
		 M217.1,81.2l1-0.2l10.6-1.5l0.2,2.8c-0.2,0-0.3,0-0.5,0h-0.1c-0.8-2.4-4.4-1.9-4.4-1.9L217.1,81.2z"/>
	<path class="st5" d="M151.5,83.9c0,3,3.7,4.3,6.1,3.8s4.1-1.4,4.4-4.4s1.2-4.1,1.2-4.1l-8.3-0.1C152.4,79,151.5,80.9,151.5,83.9z"
		/>
	<polygon class="st6" points="237.9,62.6 239,64.6 240.8,64.5 239.9,62.5 	"/>
	<polygon class="st6" points="231.4,63.1 230.8,63.2 230,65.5 231.5,65.4 	"/>
	<polygon class="st6" points="232.1,63.1 232.1,65.3 235.3,65 234.8,62.8 	"/>
	<polygon class="st6" points="235.9,64.9 238.3,64.7 237.2,62.7 235.5,62.8 	"/>
	<path class="st6" d="M241.5,64.4l1.6-0.2c-0.7-0.7-1.5-1.3-2.4-1.8h-0.1L241.5,64.4z"/>
</g>
<g id="freepik--Clouds--inject-46">
	<path class="st7" d="M543.1,86.8c27.6,4.9,26-1.1,39,0s4.8,8.2,39.5,5.5s43.9-7.5,34.7-10.3s-19.5,0-23.3,0c-3.8,0,14.6-7-1.1-12.5
		s-20.6,6-28.2,5.4c-7.6-0.6,3.3-6.6,4.4-12.5s-21.7-14.6-35.8-8.6c-14.1,6-10.3,17.9-10.3,17.9C525.1,65.2,515.5,81.9,543.1,86.8z"
		/>
	<path class="st7" d="M103.1,172.1c27,4.8,25.3-1.1,38.1,0s4.8,8,38.7,5.3s42.9-7.5,33.9-10.1s-19.1,0-22.8,0s14.2-6.9-1.1-12.2
		s-20.1,5.9-27.5,5.3s3.1-6.3,4.2-12.2s-21.1-14.4-34.9-8.5s-10.1,17.5-10.1,17.5C85.6,150.8,76.1,167.3,103.1,172.1z"/>
	<path class="st7" d="M81.2,133.1c9.4,1.7,8.8-0.4,13.3,0s1.7,2.8,13.5,1.9s15-2.6,11.8-3.5s-6.7,0-8,0s4.9-2.3-0.4-4.2
		s-7,1.9-9.6,1.8s1.1-2.1,1.5-4.2s-7.4-5-12.2-3s-3.5,6.1-3.5,6.1C75.1,125.8,71.8,131.4,81.2,133.1z"/>
</g>
<g id="freepik--road-sign--inject-46">
	<rect x="304.5" y="141.6" class="st8" width="13.6" height="304"/>
	<path class="st8" d="M482.5,191.5l-42.2-43L399,190.6c-0.9,0.9-2.4,1-3.4,0.1l-0.1-0.1c-0.9-0.9-0.9-2.3,0-3.2l43.1-43.9
		c1-0.9,2.6-0.9,3.6,0l44,44.8l0.1,0.1c0.8,0.9,0.7,2.3-0.2,3.1c-0.5,0.4-1.1,0.6-1.7,0.6S483.1,191.8,482.5,191.5z"/>
	<path class="st8" d="M393.1,191.5l-42.2-43l-41.3,42.1c-0.9,0.9-2.4,1-3.4,0.1l-0.1-0.1c-0.9-0.9-0.9-2.3,0-3.2l43.1-43.9
		c1-0.9,2.5-0.9,3.5,0l44,44.8l0.1,0.1c0.8,0.9,0.7,2.3-0.2,3.1c-0.5,0.4-1.1,0.6-1.7,0.6C394.3,192.1,393.6,191.8,393.1,191.5z"/>
	<rect x="304.5" y="141.6" class="st8" width="185.5" height="4.9"/>
	<rect x="304.5" y="188.3" class="st8" width="185.5" height="4.9"/>
	<rect x="476.4" y="119.3" class="st9" width="163.1" height="97.1"/>
	<path class="st10" d="M634.7,130.6v74.5c0,3-2.5,5.5-5.5,5.5H486.8c-3,0-5.5-2.5-5.5-5.5v-74.5c0-3,2.5-5.5,5.5-5.5h142.4
		C632.2,125.1,634.7,127.6,634.7,130.6z"/>
	<polygon class="st5" points="501.6,196.8 505.9,192.5 499.7,186.2 495.4,190.6 491.1,186.3 488.3,203.8 505.9,201.1 	"/>
	<g>
		<path class="st5" d="M542.5,161.9c0,1.3-0.2,2.5-0.6,3.6s-0.9,2-1.7,2.9c-0.7,0.8-1.6,1.5-2.7,2c-1,0.5-2.2,0.7-3.5,0.7h-2.1
			c-2.5,0-4.5-0.8-6-2.4c-1.4-1.6-2.1-3.7-2.1-6.4v-6.1h3.5v6c0,0.8,0.1,1.5,0.2,2.1c0.2,0.6,0.5,1.2,0.9,1.6c0.4,0.5,0.9,0.8,1.6,1
			c0.6,0.2,1.4,0.4,2.4,0.4h1.5c0.9,0,1.8-0.2,2.4-0.4c0.7-0.3,1.2-0.7,1.6-1.2c0.4-0.5,0.7-1,0.9-1.7c0.2-0.6,0.2-1.3,0.2-2v-9.2
			h3.5L542.5,161.9L542.5,161.9z M534.5,152.2h-3.8v-3.4h3.8V152.2z"/>
		<path class="st5" d="M551.2,162.7c-0.6,0-1.3-0.1-1.8-0.2c-0.5-0.2-1.1-0.5-1.5-0.9c-0.5-0.4-0.8-0.9-1-1.6
			c-0.2-0.7-0.4-1.5-0.4-2.5v-15.9h3.5v15.1c0,0.7,0.2,1.3,0.5,1.7c0.3,0.4,0.8,0.6,1.5,0.6h0.8c0.5,0,0.8,0.6,0.8,1.8
			c0,1.3-0.2,2-0.8,2L551.2,162.7L551.2,162.7z"/>
		<path class="st5" d="M553,159c0.8,0,1.4-0.2,1.8-0.5c0.5-0.3,0.6-0.8,0.6-1.5v-0.8c0-0.9,0.2-1.7,0.4-2.5c0.2-0.8,0.6-1.4,1.2-2
			c0.5-0.5,1.1-0.9,1.8-1.3c0.7-0.3,1.5-0.5,2.4-0.5s1.7,0.2,2.5,0.5c0.7,0.3,1.3,0.7,1.8,1.3c0.5,0.5,0.9,1.3,1.1,2
			c0.2,0.8,0.4,1.6,0.4,2.5c0,2-0.5,3.6-1.6,4.8c-1,1.1-2.4,1.7-4.2,1.7c-0.9,0-1.8-0.2-2.6-0.5c-0.9-0.3-1.5-0.9-1.9-1.7
			c-0.5,0.9-1,1.5-1.6,1.8c-0.7,0.3-1.3,0.5-2,0.5h-0.3c-0.3,0-0.5-0.2-0.6-0.5c-0.1-0.3-0.2-0.8-0.2-1.3c0-0.6,0.1-1.2,0.2-1.5
			s0.3-0.5,0.6-0.5L553,159L553,159z M563.6,156.5c0-0.8-0.2-1.4-0.5-2c-0.3-0.5-1-0.8-1.9-0.8s-1.5,0.2-1.9,0.8
			c-0.4,0.5-0.5,1.2-0.5,2s0.2,1.4,0.6,1.8c0.4,0.4,1,0.6,1.8,0.6C562.8,159,563.6,158.1,563.6,156.5z"/>
		<path class="st5" d="M575.1,162.2c0,1.3-0.2,2.4-0.6,3.4c-0.4,1.1-0.9,2-1.7,2.8c-0.7,0.8-1.6,1.4-2.6,1.9c-1,0.5-2,0.7-3.2,0.7
			h-2.1l-0.2-3.7h1.4c1,0,1.9-0.2,2.6-0.4c0.7-0.3,1.3-0.6,1.7-1.2c0.5-0.5,0.8-1,1-1.6s0.3-1.3,0.3-1.9v-9.4h3.4v4.1
			c0,0.7,0.2,1.3,0.6,1.6c0.5,0.4,1,0.5,1.7,0.5h0.4c0.5,0,0.8,0.6,0.8,1.8c0,1.3-0.2,2-0.8,2h-0.4c-0.5,0-0.9-0.1-1.3-0.2
			c-0.5-0.2-0.9-0.5-1.2-0.9L575.1,162.2L575.1,162.2z"/>
		<path class="st5" d="M586.4,159c0.6,0,1-0.2,1.3-0.4s0.4-0.5,0.4-0.9c0-0.3-0.1-0.7-0.2-1c-0.2-0.3-0.4-0.7-0.8-1.1l-6.4-6.4v-3.9
			l11.3-4.2l0.8,3.4l-8.7,3.2l5,5.1c0.5,0.5,1,1.1,1.4,1.6c0.4,0.5,0.6,0.9,0.9,1.3s0.3,0.9,0.4,1.3s0.2,0.9,0.2,1.3
			c0,0.8-0.2,1.5-0.4,2c-0.2,0.5-0.6,1-1,1.4c-0.5,0.4-0.9,0.6-1.6,0.8c-0.6,0.2-1.3,0.2-2,0.2h-8.9c-0.3,0-0.5-0.2-0.6-0.5
			c-0.1-0.3-0.2-0.8-0.2-1.3c0-0.6,0.1-1.2,0.2-1.5c0.1-0.3,0.3-0.5,0.6-0.5L586.4,159L586.4,159z"/>
	</g>
	<g>
		<path class="st5" d="M533.8,198.3h-2.3l-3.8-5.5l-1.2,1v4.5h-2v-12.1h2v5.8c0.5-0.7,1.1-1.3,1.6-1.9l3.3-3.9h2.3
			c-2.1,2.5-3.6,4.3-4.6,5.3L533.8,198.3z"/>
		<path class="st5" d="M542.2,198.3h-6.9v-12.1h6.9v1.7h-4.9v3.3h4.6v1.7h-4.6v3.8h4.9V198.3z"/>
		<path class="st5" d="M546.8,193.5v4.8h-2v-12.1h3.4c1.6,0,2.7,0.3,3.5,0.9c0.8,0.6,1.1,1.5,1.1,2.7c0,1.5-0.8,2.6-2.4,3.2l3.4,5.4
			h-2.3l-2.9-4.8L546.8,193.5L546.8,193.5z M546.8,191.8h1.4c0.9,0,1.6-0.2,2-0.5c0.4-0.3,0.6-0.9,0.6-1.5c0-0.7-0.2-1.2-0.7-1.5
			s-1.1-0.4-2-0.4h-1.3V191.8z"/>
		<path class="st5" d="M561,198.3l-3.5-10.1h-0.1c0.1,1.5,0.1,2.9,0.1,4.2v5.9h-1.8v-12.1h2.8l3.4,9.7l0,0l3.5-9.7h2.8v12.1h-1.9v-6
			c0-0.6,0-1.4,0-2.4s0.1-1.6,0.1-1.8h-0.1l-3.6,10.1H561V198.3z"/>
		<path class="st5" d="M578.9,198.3l-1.2-3.4h-4.6l-1.2,3.4h-2.1l4.5-12.2h2.2l4.5,12.2H578.9z M577.2,193.2l-1.1-3.3
			c-0.1-0.2-0.2-0.6-0.3-1c-0.1-0.5-0.2-0.8-0.3-1c-0.1,0.7-0.4,1.4-0.7,2.2l-1.1,3.2L577.2,193.2L577.2,193.2z"/>
		<path class="st5" d="M592.8,198.3h-2.4l-6-9.7h-0.1v0.5c0.1,1,0.1,2,0.1,2.8v6.3h-1.8v-12.1h2.4l6,9.6l0,0c0-0.1,0-0.6-0.1-1.4
			c0-0.8,0-1.4,0-1.9V186h1.8v12.3H592.8z"/>
	</g>
</g>
<g id="freepik--Car--inject-46">
	<path class="st11" d="M140.7,422.4c0,13,8.2,23.6,18.3,23.6h8.3l-5.2-0.2c0.7,0.1,6.7,0.2,7.4,0.2c10.1,0,18.3-10.5,18.3-23.5
		s-8.2-23.6-18.3-23.6c-0.8,0-1.5,0.1-2.2,0.2l-0.1-0.2h-8.3C148.8,398.9,140.7,409.4,140.7,422.4z"/>
	<path class="st11" d="M310.7,422.4c0,13,8.2,23.6,18.3,23.6h8.3l0.1-0.2c0.7,0.1,1.4,0.2,2.1,0.2c10.1,0,18.3-10.5,18.3-23.5
		s-8.2-23.6-18.3-23.6c-0.7,0-1.4,0.1-2.1,0.2l-0.1-0.2H329C318.8,398.9,310.7,409.4,310.7,422.4z"/>
	<path class="st12" d="M79.9,399.6c-0.7,0-1.3,0.6-1.2,1.3v22l0,0c0,0.8,0.7,1.5,1.5,1.5H84v0.2l46,3l62.1,0.5h247.5v-29.4
		L274.5,329c-2.9-3-6.9-4.7-11.1-4.7h-96.1c-5.7,0-11.2,2.3-15.1,6.5l-36.3,38.5H93.6c-3,0-5.7,2.3-6.1,5.3l-3.6,25H79.9L79.9,399.6
		z"/>
	<path class="st11" d="M78.8,423.6c0.2,0.6,0.7,0.9,1.3,0.9h3.8v0.2l46,3l20.3,0.1v-4.2H78.8z"/>
	<path class="st11" d="M192.1,428.1h247.4v-29.4L274.4,329c-2.9-3.1-6.9-4.8-11.1-4.8h-23.9l-86.1,100.4H130
		c-0.7,0.1-1.3,0.6-1.4,1.3c-0.1,0.8,0.5,1.6,1.3,1.7l0,0L192.1,428.1z"/>
	<path class="st11" d="M382.7,422.5c0,13,8.2,23.6,18.3,23.6h8.3l5.4-8c6.1-9.5,6.1-21.7,0-31.2l-5.4-8H401
		C390.9,398.9,382.7,409.5,382.7,422.5z"/>
	<ellipse class="st13" cx="411.6" cy="422.5" rx="18.3" ry="23.6"/>
	<ellipse class="st14" cx="411.6" cy="422.5" rx="14.6" ry="18.8"/>
	<path class="st14" d="M411.6,418.5c1.7,0,3.1,1.8,3.1,4s-1.4,4-3.1,4s-3.1-1.8-3.1-4S409.9,418.5,411.6,418.5z"/>
	<path class="st11" d="M197.7,422.5c0,13,8.2,23.6,18.3,23.6h8.3l5.4-8c6.1-9.5,6.1-21.7,0-31.2l-5.4-8H216
		C205.9,398.9,197.7,409.5,197.7,422.5z"/>
	<ellipse class="st13" cx="226.6" cy="422.5" rx="18.3" ry="23.6"/>
	<ellipse class="st14" cx="226.6" cy="422.5" rx="14.6" ry="18.8"/>
	<path class="st14" d="M226.6,418.5c1.7,0,3.1,1.8,3.1,4s-1.4,4-3.1,4s-3.1-1.8-3.1-4S224.9,418.5,226.6,418.5z"/>
	<path class="st11" d="M118.1,366.9H228v-37h-74.9c-0.3,0.3-0.6,0.6-0.9,0.9L118.1,366.9z"/>
	<path class="st12" d="M143.4,424.5h4.4v0.2l53.4,3l1.8-10.1c2.3-13.3,7.7-23.2,22.6-23.2l0,0c16.8,0,23,12.3,23,27.5v6.2H386
		l1.5-10.5c1.9-13.3,9.4-23.2,21.6-23.2l0,0c13.7,0,24.7,12.3,24.7,27.5v6.2h16.5v-18.7c0-3.3-1.1-6.6-3.1-9.3l-8.1-11l-52-22.3
		l-56.4-37.7c-2.9-3.1-6.9-4.8-11.1-4.8h-88.2c-5.7,0-11.2,2.3-15.1,6.5L180,369.3h-27.7l-4.3,30.3h-4.4L143.4,424.5z"/>
	<path class="st11" d="M320.1,330.3h-32v36.3h90.5l-48.4-32.1C327.5,331.8,323.9,330.3,320.1,330.3z"/>
	<path class="st14" d="M340.7,366.6h22.9l-16.5-20.9l-17-11.2c-2.6-2.7-6.2-4.2-10-4.2H312L340.7,366.6L340.7,366.6z"/>
	<polygon class="st14" points="308.7,366.6 288.1,340.5 288.1,366.6 	"/>
	<path class="st11" d="M233.3,330.3h48.8v36.3h-79.6c-0.4,0-0.9-0.1-1.3-0.2c-2.9-0.7-4.7-3.7-4-6.7l0,0c0.2-0.9,0.7-1.8,1.4-2.5
		l20.6-21C222.9,332.4,228,330.3,233.3,330.3z"/>
	<polygon class="st14" points="267.2,366.6 275.1,366.6 246.5,330.3 238.5,330.3 	"/>
	<polygon class="st14" points="280,330.3 257.1,330.3 282.1,361.9 282.1,332.9 	"/>
	<path class="st12" d="M147.9,399.5h-64l3.6-25c0.4-3,3-5.3,6.1-5.3h58.7L147.9,399.5z"/>
	<rect x="96.6" y="382.9" class="st14" width="27.8" height="11.4"/>
	<line class="st15" x1="200.1" y1="404.3" x2="80.8" y2="404.3"/>
	<line class="st15" x1="385.5" y1="404.3" x2="253.3" y2="404.3"/>
	<line class="st15" x1="444.5" y1="404.3" x2="429.3" y2="404.3"/>
	<path class="st14" d="M129.1,383.1v16.2h34.2c0.4,0,0.8-0.1,1.2-0.3c1.3-0.6,1.9-2.2,1.2-3.5l-4.4-8.8c-1.1-2.2-3.3-3.6-5.8-3.6
		h-26.3H129.1z"/>
	<polygon class="st11" points="129.2,399.4 148.1,399.4 150.4,383.1 129.2,383.1 	"/>
	<polygon class="st11" points="84,399.4 92.8,399.4 92.8,383.1 86.3,383.1 	"/>
	<path class="st11" d="M387.6,361.1v10.3c0,1.1-0.9,2-2,2h-12.9c-1.1,0-2-0.9-2-2v-10.3c0-1.1,0.9-2,2-2h12.9
		C386.7,359.1,387.6,360,387.6,361.1z"/>
	<rect x="290.3" y="373.4" class="st11" width="16.2" height="6.5"/>
	<line class="st16" x1="286.4" y1="420.1" x2="286.4" y2="370.8"/>
	<path class="st16" d="M256.5,422.4h126.2c1.5-22.9,13.4-29.6,13.4-29.6"/>
	<path class="st16" d="M248.7,400c-3.5-6-10.4-13.6-24.9-13.6c-20.8,0-27,16.2-27,16.2"/>
	<line class="st16" x1="114" y1="325.6" x2="148.6" y2="325.6"/>
	<line class="st16" x1="44.8" y1="370.1" x2="49.1" y2="370.1"/>
	<line class="st16" x1="54.6" y1="370.1" x2="84.3" y2="370.1"/>
	<line class="st16" x1="24" y1="349.2" x2="35.6" y2="349.2"/>
	<line class="st16" x1="50.4" y1="349.2" x2="129.5" y2="349.2"/>
	<line class="st16" x1="59.6" y1="423.9" x2="73.8" y2="423.9"/>
</g>
<g id="freepik--Floor--inject-46">
	<line class="st16" x1="25.6" y1="445.9" x2="659.9" y2="445.9"/>
	<line class="st16" x1="668.2" y1="445.9" x2="674.1" y2="445.9"/>
</g>
</svg>
