<?xml version="1.0" encoding="utf-8"?>
<!-- Generator: Adobe Illustrator 24.1.1, SVG Export Plug-In . SVG Version: 6.00 Build 0)  -->
<svg version="1.1" id="Layer_1" xmlns="http://www.w3.org/2000/svg" xmlns:xlink="http://www.w3.org/1999/xlink" x="0px" y="0px"
	 viewBox="0 0 700 500" style="enable-background:new 0 0 700 500;" xml:space="preserve">
<style type="text/css">
	.st0{fill:#325FE0;}
	.st1{opacity:0.8;fill:#FFFFFF;enable-background:new    ;}
	.st2{fill:none;stroke:#CCCCCC;stroke-miterlimit:10;}
	.st3{fill:#FDA76E;}
	.st4{fill:#FFFFFF;}
	.st5{clip-path:url(#SVGID_2_);}
	.st6{opacity:0.75;fill:#FFFFFF;enable-background:new    ;}
	.st7{opacity:0.75;}
	.st8{fill:#263238;}
	.st9{fill:#658BFF;}
	.st10{fill:#CCCCCC;}
	.st11{clip-path:url(#SVGID_4_);}
	.st12{fill:#D9D9D9;}
	.st13{fill:none;stroke:#263238;stroke-linecap:round;stroke-linejoin:round;}
	.st14{clip-path:url(#SVGID_6_);}
	.st15{fill:#263238;stroke:#263238;stroke-linecap:round;stroke-linejoin:round;}
	.st16{clip-path:url(#SVGID_8_);}
	.st17{opacity:0.17;fill:#FFFFFF;enable-background:new    ;}
	.st18{fill:#FFFFFF;stroke:#263238;stroke-linecap:round;stroke-linejoin:round;}
	.st19{clip-path:url(#SVGID_10_);}
	.st20{fill:#B8B8B8;}
	.st21{clip-path:url(#SVGID_12_);}
	.st22{clip-path:url(#SVGID_14_);}
	.st23{fill:none;stroke:#FFFFFF;stroke-linecap:round;stroke-linejoin:round;}
	.st24{clip-path:url(#SVGID_16_);}
	.st25{clip-path:url(#SVGID_18_);}
	.st26{fill:none;stroke:#263238;stroke-width:2;stroke-miterlimit:10;}
</style>
<g id="freepik--background-simple--inject-140">
	<path class="st0" d="M193.5,108.1c0,0-62.4,48.9-50.5,116.9s85,120.4,142.3,164s138.8,49.7,197.7,16.3s27-75.7,60.2-136
		s54.9-73,37.1-135.3C562.5,71.7,455.8,32.3,349.7,48.8S193.5,108.1,193.5,108.1z"/>
	<path class="st1" d="M193.5,108.1c0,0-62.4,48.9-50.5,116.9s85,120.4,142.3,164s138.8,49.7,197.7,16.3s27-75.7,60.2-136
		s54.9-73,37.1-135.3C562.5,71.7,455.8,32.3,349.7,48.8S193.5,108.1,193.5,108.1z"/>
</g>
<g id="freepik--Window--inject-140">
	<polygon class="st2" points="462.1,97.6 368.9,97.6 369.8,86.4 463,86.4 	"/>
	<polygon class="st2" points="462.1,113.5 368.9,113.5 369.8,102.1 463,102.1 	"/>
	<polygon class="st2" points="462.1,129.2 368.9,129.2 369.8,118 463,118 	"/>
	<polygon class="st2" points="462.1,145 368.9,145 369.8,133.7 463,133.7 	"/>
	<polygon class="st2" points="462.1,160.8 368.9,160.8 369.8,149.5 463,149.5 	"/>
	<polygon class="st2" points="462.1,176.6 368.9,176.6 369.8,165.3 463,165.3 	"/>
	<polygon class="st2" points="462.1,192.4 368.9,192.4 369.8,181.1 463,181.1 	"/>
	<polygon class="st2" points="462.1,208.2 368.9,208.2 369.8,196.9 463,196.9 	"/>
	<polygon class="st2" points="462.1,223.9 368.9,223.9 369.8,212.7 463,212.7 	"/>
	<polygon class="st2" points="462.1,239.8 368.9,239.8 369.8,228.4 463,228.4 	"/>
	<polygon class="st2" points="462.1,255.5 368.9,255.5 369.8,244.3 463,244.3 	"/>
	<polygon class="st2" points="560.8,97.6 467.4,97.6 468.5,86.4 561.7,86.4 	"/>
	<polygon class="st2" points="560.8,113.5 467.4,113.5 468.5,102.1 561.7,102.1 	"/>
	<polygon class="st2" points="560.8,129.2 467.4,129.2 468.5,118 561.7,118 	"/>
	<polygon class="st2" points="560.8,145 467.4,145 468.5,133.7 561.7,133.7 	"/>
	<polygon class="st2" points="560.8,160.8 467.4,160.8 468.5,149.5 561.7,149.5 	"/>
	<polygon class="st2" points="560.8,176.6 467.4,176.6 468.5,165.3 561.7,165.3 	"/>
	<polygon class="st2" points="560.8,192.4 467.4,192.4 468.5,181.1 561.7,181.1 	"/>
	<polygon class="st2" points="560.8,208.2 467.4,208.2 468.5,196.9 561.7,196.9 	"/>
	<polygon class="st2" points="560.8,223.9 467.4,223.9 468.5,212.7 561.7,212.7 	"/>
	<polygon class="st2" points="560.8,239.8 467.4,239.8 468.5,228.4 561.7,228.4 	"/>
	<polygon class="st2" points="560.8,255.5 467.4,255.5 468.5,244.3 561.7,244.3 	"/>
</g>
<g id="freepik--Picture--inject-140">
	<rect x="163" y="85.7" class="st3" width="192.7" height="137"/>
	<rect x="172.7" y="92.6" class="st4" width="173.4" height="123.3"/>
	<g>
		<g>
			<g>
				<defs>
					<rect id="SVGID_1_" x="172.7" y="92.6" width="173.4" height="123.3"/>
				</defs>
				<clipPath id="SVGID_2_">
					<use xlink:href="#SVGID_1_"  style="overflow:visible;"/>
				</clipPath>
				<g class="st5">
					<path class="st0" d="M346.2,130c-31.1,18.4-75.8,30.6-127.7,49.8c-16.3,6-31.6,13.6-45.7,22.7V216h173.4V130z"/>
					<path class="st0" d="M346.2,92.6h-69.6c-7.7,5.5-16.9,11.7-27.8,18.2c-39.6,24.1-22.5,48.2,25.1,30.6c24.4-9,51.5-29.8,72.2-48
						v-0.9L346.2,92.6L346.2,92.6z"/>
					<path class="st0" d="M202.7,106.4c0-10.1-15.1-2.1-30,7.9v25.4C187.2,128,202.7,115.4,202.7,106.4z"/>
					<path class="st0" d="M217.1,146.3c0,6.3-6.2,11.5-13.8,11.5s-13.8-5.1-13.8-11.5s6.2-11.5,13.8-11.5
						C210.9,134.9,217.1,140,217.1,146.3L217.1,146.3z"/>
					<path class="st6" d="M346.2,130c-31.1,18.4-75.8,30.6-127.7,49.8c-16.3,6-31.6,13.6-45.7,22.7V216h173.4V130z"/>
					<path class="st6" d="M346.2,92.6h-69.6c-7.7,5.5-16.9,11.7-27.8,18.2c-39.6,24.1-22.5,48.2,25.1,30.6c24.4-9,51.5-29.8,72.2-48
						v-0.9L346.2,92.6L346.2,92.6z"/>
					<g class="st7">
						<path class="st4" d="M202.7,106.4c0-10.1-15.1-2.1-30,7.9v25.4C187.2,128,202.7,115.4,202.7,106.4z"/>
					</g>
					<path class="st6" d="M217.1,146.3c0,6.3-6.2,11.5-13.8,11.5s-13.8-5.1-13.8-11.5s6.2-11.5,13.8-11.5
						C210.9,134.9,217.1,140,217.1,146.3L217.1,146.3z"/>
				</g>
			</g>
		</g>
	</g>
	<path class="st4" d="M316.2,183c0,8.5-8.3,15.3-18.5,15.3s-18.5-6.9-18.5-15.3c0-8.5,8.3-15.3,18.5-15.3l0,0
		C307.9,167.7,316.2,174.6,316.2,183L316.2,183z"/>
</g>
<g id="freepik--Plants--inject-140">
	<path class="st0" d="M576.8,368.2c-3.4,3.2-5.6,7.2-6.6,11.3l-13.2,6.1v-28.9l0.3,0.3l20.9-12.7c2.6,0.3,12.8,1.3,22.1-2.8
		c10.7-4.8,18.6-21.3,18.6-21.3s-25.7-2.5-34.4,6.5c-7.1,7.3-7.2,14.2-7.1,16.6L557,355.7v-21.3c7.7-3,13.4-8.7,15.6-15.6
		c3.7-12-16.1-35.6-16.1-35.6S535.9,307.7,540,320c3.5,10.5,12.9,13.8,15.8,14.6V381l-14.7-10.4c0.4-2.5,0.6-10.1-7.6-17.7
		c-9.9-9.3-36.4-8.6-36.4-8.6s11.1,18.5,20.7,24.7c8.3,5.4,19.8,3.2,22.6,2.6l15.5,10.7v14h-23.1l9.4,48.8h28.3l9.4-48.8h-22.6V387
		l14.5-6.7c3.5,0.9,13.3,2.5,22.6-1.4c11.6-4.8,21.2-15.1,21.2-15.1S587.7,358,576.8,368.2z"/>
	<path class="st1" d="M576.8,368.2c-3.4,3.2-5.6,7.2-6.6,11.3l-13.2,6.1v-28.9l0.3,0.3l20.9-12.7c2.6,0.3,12.8,1.3,22.1-2.8
		c10.7-4.8,18.6-21.3,18.6-21.3s-25.7-2.5-34.4,6.5c-7.1,7.3-7.2,14.2-7.1,16.6L557,355.7v-21.3c7.7-3,13.4-8.7,15.6-15.6
		c3.7-12-16.1-35.6-16.1-35.6S535.9,307.7,540,320c3.5,10.5,12.9,13.8,15.8,14.6V381l-14.7-10.4c0.4-2.5,0.6-10.1-7.6-17.7
		c-9.9-9.3-36.4-8.6-36.4-8.6s11.1,18.5,20.7,24.7c8.3,5.4,19.8,3.2,22.6,2.6l15.5,10.7v14h-23.1l9.4,48.8h28.3l9.4-48.8h-22.6V387
		l14.5-6.7c3.5,0.9,13.3,2.5,22.6-1.4c11.6-4.8,21.2-15.1,21.2-15.1S587.7,358,576.8,368.2z"/>
</g>
<g id="freepik--Desk--inject-140">
	<path class="st8" d="M550.7,220.8l-38,0.3c0,0-2.6-0.3-3.1,1.3c0,0-6.6,13.8-7,18.7s1.3,4.2-1.3,10.7c-2.6,6.5-9.7,21.8-13.8,34.4
		c-5.6,16.8-7,34.7-7.2,51.9c0,2.8-2.1,26.8,3.2,26.8c4.4,0,44.3,4.4,44.8-2c1.9-25.5-3.6-50.3,7.1-75.1c4.1-9.6,8.9-19.8,12.4-29.9
		s4.1-20.6,6.5-30.8C555.8,220.1,550.7,220.8,550.7,220.8z"/>
	<path class="st9" d="M554.5,223.9c-0.4-3.6-3.7-3.1-3.7-3.1l-38,0.3c0,0-2.6-0.3-3.1,1.3c0,0-6.6,13.8-7,18.7c-0.1,1.3,0,2.6,0.1,4
		l0.8,1.1c0,0,1.3,9.1,16.3,9.6c15,0.5,23.6-5.2,26.7-10.7c3.1-5.5,4.4-14.3,7-19.6C553.8,225,554.2,224.5,554.5,223.9z"/>
	<path class="st9" d="M545.7,234.1c-2.6,7.6-1,9.7-3.6,22.8c-2.6,13.1-11.8,27.8-15.4,41.4c-3.6,13.6-2.1,61.2-1.5,63.4
		c0.3,1.1,0.3,2.2,0.3,3.4c1.7-0.5,2.7-1.3,2.8-2.2c1.9-25.5-3.6-50.3,7.1-75.1c4.1-9.6,8.9-19.8,12.4-29.9s4.1-20.6,6.5-30.8
		c1-4.3-0.5-5.7-1.9-6.1l0,0C549.5,225.1,547.3,229.6,545.7,234.1z"/>
	<path class="st8" d="M472.2,426.5l-0.3-0.2v-29.4h5.2v-18.6h-18.9v18.6h5v30l-45.1,11.9v3c0,1.8,1.8,3.4,4.1,3.4
		c2.3,0,4.1-1.5,4.1-3.4v-0.4l37.7-3.6v4.5c0,1.6,1.5,3,3.6,3c1.9,0,3.6-1.3,3.6-3v-4.6l39.3,3.7v0.4c0,1.8,1.8,3.4,4.1,3.4
		s4.1-1.5,4.1-3.4v-3L472.2,426.5z"/>
	<path class="st8" d="M414,360.1h112.1c2.8,0,5.2,1.9,5.2,4.3v13c0,2.4-2.3,4.3-5.2,4.3H414c-2.8,0-5.2-1.9-5.2-4.3v-13
		C408.8,362,411.1,360.1,414,360.1z"/>
	<path class="st8" d="M84.9,220.8l38,0.3c0,0,2.6-0.3,3.1,1.3c0,0,6.6,13.8,6.8,18.7c0.3,4.9-1.3,4.2,1.3,10.7
		c2.6,6.5,9.7,21.8,13.8,34.4c5.6,16.8,7,34.7,7.2,51.9c0,2.8,2.1,26.8-3.1,26.8c-4.3,0-44.3,4.4-44.8-2
		c-1.9-25.5,3.6-50.3-7.1-75.1c-4.1-9.6-8.9-19.8-12.4-29.9s-4.1-20.6-6.5-30.8C80,220.1,84.9,220.8,84.9,220.8z"/>
	<path class="st9" d="M81.3,223.9c0.4-3.6,3.7-3.1,3.7-3.1l38,0.3c0,0,2.6-0.3,3.1,1.3c0,0,6.6,13.8,6.8,18.7c0.1,1.3,0,2.6-0.1,4
		l-0.8,1.1c0,0-1.3,9.1-16.4,9.6c-15.1,0.5-23.6-5.2-26.7-10.7c-3.1-5.5-4.4-14.3-6.8-19.6C81.9,225,81.5,224.5,81.3,223.9z"/>
	<path class="st9" d="M90.1,234.1c2.6,7.6,1,9.7,3.6,22.8c2.6,13.1,11.8,27.8,15.4,41.4s2.1,61.2,1.5,63.4c-0.1,1.1-0.3,2.2-0.3,3.4
		c-1.7-0.5-2.7-1.3-2.8-2.2c-1.9-25.5,3.6-50.3-7.1-75.1c-4.1-9.6-8.9-19.8-12.4-29.9s-4.1-20.6-6.5-30.8c-0.9-4.3,0.5-5.7,1.9-6.1
		l0,0C86.2,225.1,88.5,229.6,90.1,234.1z"/>
	<path class="st8" d="M163.4,426.5l0.3-0.2v-29.4h-5.2v-18.6h18.9v18.6h-5v30l45.1,11.9v3c0,1.8-1.8,3.4-4.1,3.4s-4.1-1.5-4.1-3.4
		v-0.4l-37.6-3.6v4.5c-0.1,1.6-1.8,2.9-3.7,2.8c-1.8-0.1-3.2-1.3-3.4-2.8v-4.6l-39.3,3.7v0.4c0.1,1.8-1.5,3.4-3.9,3.5
		c-2.2,0.1-4.1-1.3-4.3-3.2c0-0.1,0-0.2,0-0.4v-3L163.4,426.5z"/>
	<path class="st8" d="M221.7,381.7h-112c-2.8,0-5.2-1.9-5.2-4.3v-13c0-2.4,2.3-4.3,5.2-4.3h112.1c2.8,0,5.2,1.9,5.2,4.3v13
		C226.8,379.8,224.5,381.7,221.7,381.7z"/>
	<rect x="196.7" y="299.5" class="st10" width="306.9" height="146.2"/>
	<rect x="196.9" y="303.1" class="st8" width="306.5" height="4.1"/>
	<rect x="189.9" y="297.2" class="st10" width="316" height="6.4"/>
</g>
<g id="freepik--Characters--inject-140">
	<path class="st4" d="M301,284.6c0,0,2.7,13.4,2.5,17.1s-6.6,13.7-6.7,11.5c0.1-1.9,0.4-3.9,1.1-5.7c0,0-2.2,3.3-3,3.2
		s0.7-4.8,0.7-4.8s-2.4,2.7-3.2,2.1c-0.8-0.6,1.7-4.4,1.7-4.4s-2.9,3.3-3,2.2c-0.1-1.1,2.5-5.5,2.5-5.5s-2.7-6.3-2.9-9
		c0-1.8,0.6-3.6,1.6-5.1L301,284.6z"/>
	<g>
		<g>
			<g>
				<defs>
					<path id="SVGID_3_" d="M301,284.6c0,0,2.7,13.4,2.5,17.1s-6.6,13.7-6.7,11.5c0.1-1.9,0.4-3.9,1.1-5.7c0,0-2.2,3.3-3,3.2
						s0.7-4.8,0.7-4.8s-2.4,2.7-3.2,2.1c-0.8-0.6,1.7-4.4,1.7-4.4s-2.9,3.3-3,2.2c-0.1-1.1,2.5-5.5,2.5-5.5s-2.7-6.3-2.9-9
						c0-1.8,0.6-3.6,1.6-5.1L301,284.6z"/>
				</defs>
				<clipPath id="SVGID_4_">
					<use xlink:href="#SVGID_3_"  style="overflow:visible;"/>
				</clipPath>
				<g class="st11">
					<path class="st12" d="M301,284.6c0,0,2.7,13.4,2.5,17.1s-6.6,13.7-6.7,11.5c0.1-1.9,0.4-3.9,1.1-5.7c0,0-2.2,3.3-3,3.2
						s0.7-4.8,0.7-4.8s-2.4,2.7-3.2,2.1c-0.8-0.6,1.7-4.4,1.7-4.4s-2.9,3.3-3,2.2c-0.1-1.1,2.5-5.5,2.5-5.5s-2.7-6.3-2.9-9
						c0-1.8,0.6-3.6,1.6-5.1L301,284.6z"/>
				</g>
			</g>
		</g>
	</g>
	<path class="st13" d="M301,284.6c0,0,2.7,13.4,2.5,17.1s-6.6,13.7-6.7,11.5c0.1-1.9,0.4-3.9,1.1-5.7c0,0-2.2,3.3-3,3.2
		s0.7-4.8,0.7-4.8s-2.4,2.7-3.2,2.1c-0.8-0.6,1.7-4.4,1.7-4.4s-2.9,3.3-3,2.2c-0.1-1.1,2.5-5.5,2.5-5.5s-2.7-6.3-2.9-9
		c0-1.8,0.6-3.6,1.6-5.1L301,284.6z"/>
	<path class="st4" d="M300.4,284.6c0,0,1.9,9.3,1.7,12c-0.2,2.7-2.5,10.4-4.3,9c-1.7-1.4,1-6.7,1-6.7s-4.9-3.9-6.1-7.4
		s-0.4-5.1-0.4-5.1L300.4,284.6z"/>
	<g>
		<g>
			<g>
				<defs>
					<path id="SVGID_5_" d="M300.4,284.6c0,0,1.9,9.3,1.7,12c-0.2,2.7-2.5,10.4-4.3,9c-1.7-1.4,1-6.7,1-6.7s-4.9-3.9-6.1-7.4
						s-0.4-5.1-0.4-5.1L300.4,284.6z"/>
				</defs>
				<clipPath id="SVGID_6_">
					<use xlink:href="#SVGID_5_"  style="overflow:visible;"/>
				</clipPath>
				<g class="st14">
					<path class="st12" d="M300.4,284.6c0,0,1.9,9.3,1.7,12c-0.2,2.7-2.5,10.4-4.3,9c-1.7-1.4,1-6.7,1-6.7s-4.9-3.9-6.1-7.4
						s-0.4-5.1-0.4-5.1L300.4,284.6z"/>
				</g>
			</g>
		</g>
	</g>
	<path class="st13" d="M300.4,284.6c0,0,1.9,9.3,1.7,12c-0.2,2.7-2.5,10.4-4.3,9c-1.7-1.4,1-6.7,1-6.7s-4.9-3.9-6.1-7.4
		s-0.4-5.1-0.4-5.1L300.4,284.6z"/>
	<polygon class="st15" points="294.5,240.8 301.3,285.6 291.8,287.9 282.2,253.5 	"/>
	<path class="st15" d="M291.8,262.7c0,0,0.6,53.2,1.6,67.5s-2.5,33.4-5.5,38.9c-3,5.5-16.6,39.6-16,41.6s3.4,8.1,3.4,9.8v7.2
		c0,0,15.3,11.2,16.6,11.2c1.3,0,2.8,2.7-0.3,4.8s-37.6,2-39.1,0.6c-1-1-1.7-2.4-2.1-3.7c0,0-4.9,2-4.6-3.1c0.3-5.1,5.9-27,5.9-27
		s-3.4-23.9-2.1-39.3c1.3-15.4,5.5-33.8,5.5-37.6c0-3.8-4.3-28.7-4.9-32.8c-0.6-4.1-9.6-15.7-5.5-24.9c4-9.2,7-23.9,8.3-24.9
		c1.3-1,17.9-1.7,24.6,0C284.1,253.2,291.5,253.2,291.8,262.7z"/>
	<path class="st8" d="M261.2,155.4c0,0-5.2,5.2-6.2,7.1c-1,1.8-12,19.3-12.2,31.8s8.2,50.2,8.2,50.2l-12.6,35.4l3.7,1.6l3.7-4.4v6.6
		c0,0,4.2,4.2,15,8.2c10.9,4,24.8-0.6,24.8-0.6l4.2-29.3v29l4.9-3.6l0.4-48.3c0,0,4-25.9,4-33.2s-11-30-15.9-36.6
		c-4.9-6.6-13-12.1-15.5-14C265.4,153.4,261.2,155.4,261.2,155.4z"/>
	<g>
		<g>
			<g>
				<defs>
					<path id="SVGID_7_" d="M261.2,155.4c0,0-5.2,5.2-6.2,7.1c-1,1.8-12,19.3-12.2,31.8s8.2,50.2,8.2,50.2l-12.6,35.4l3.7,1.6
						l3.7-4.4v6.6c0,0,4.2,4.2,15,8.2c10.9,4,24.8-0.6,24.8-0.6l4.2-29.3v29l4.9-3.6l0.4-48.3c0,0,4-25.9,4-33.2s-11-30-15.9-36.6
						c-4.9-6.6-13-12.1-15.5-14C265.4,153.4,261.2,155.4,261.2,155.4z"/>
				</defs>
				<clipPath id="SVGID_8_">
					<use xlink:href="#SVGID_7_"  style="overflow:visible;"/>
				</clipPath>
				<g class="st16">
					<path class="st17" d="M261.2,155.4c0,0-5.2,5.2-6.2,7.1c-1,1.8-12,19.3-12.2,31.8s8.2,50.2,8.2,50.2l-12.6,35.4l3.7,1.6
						l3.7-4.4v6.6c0,0,4.2,4.2,15,8.2c10.9,4,24.8-0.6,24.8-0.6l4.2-29.3v29l4.9-3.6l0.4-48.3c0,0,4-25.9,4-33.2s-11-30-15.9-36.6
						c-4.9-6.6-13-12.1-15.5-14C265.4,153.4,261.2,155.4,261.2,155.4z"/>
					<path class="st13" d="M245.7,198.2c0,0,6.6,5.1,11,7"/>
					<path class="st13" d="M247.6,203.7c0,0,7.4,2.1,11.2,2.1"/>
					<polyline class="st13" points="258.3,252.3 279.2,255.1 277.8,259.9 258.6,257.5 					"/>
				</g>
			</g>
		</g>
	</g>
	<path class="st13" d="M261.2,155.4c0,0-5.2,5.2-6.2,7.1c-1,1.8-12,19.3-12.2,31.8s8.2,50.2,8.2,50.2l-12.6,35.4l3.7,1.6l3.7-4.4
		v6.6c0,0,4.2,4.2,15,8.2c10.9,4,24.8-0.6,24.8-0.6l4.2-29.3v29l4.9-3.6l0.4-48.3c0,0,4-25.9,4-33.2s-11-30-15.9-36.6
		c-4.9-6.6-13-12.1-15.5-14C265.4,153.4,261.2,155.4,261.2,155.4z"/>
	<path class="st18" d="M260.2,156.6l20.1,24.1l11.8,24.9c0,0-2.5-18.5-4.7-23.6s-12-17.6-13-20.4
		C273.2,158.7,260.2,156.6,260.2,156.6z"/>
	<path class="st15" d="M286.5,193.8l5.6,11.8c0,0-1.7-12.6-3.6-19.8l-1.1-3.6c-1.6-3-3.3-5.9-5.2-8.6l-3.2-0.6l1.3,7.9l4,3.6
		L286.5,193.8z"/>
	<path class="st18" d="M281.1,165.7l1,1.4l3.3,4.3l1.9,10.9L279,173C279,172.9,280.1,167.3,281.1,165.7z"/>
	<path class="st4" d="M290.6,120.8c0,0,4.4,3.7,4.9,7.4c0.4,3.6-1,7.6-0.9,9c0.2,1.4,3.4,4.6,3.3,6.2c-0.2,1.6-2.9,2.2-2.9,2.2
		s-3,11.9-3.7,13.9s-4.3,1.4-7,1l-4.9,16.1l-16.1-21.1l2.5-8.5c0,0-6.9-9.2-7.4-19.1s6.6-16.7,16.7-18.1c10.2-1.4,18.6,4.1,19.8,6.2
		C296,118.3,290.6,120.8,290.6,120.8z"/>
	<g>
		<g>
			<g>
				<defs>
					<path id="SVGID_9_" d="M290.6,120.8c0,0,4.4,3.7,4.9,7.4c0.4,3.6-1,7.6-0.9,9c0.2,1.4,3.4,4.6,3.3,6.2
						c-0.2,1.6-2.9,2.2-2.9,2.2s-3,11.9-3.7,13.9s-4.3,1.4-7,1l-4.9,16.1l-16.1-21.1l2.5-8.5c0,0-6.9-9.2-7.4-19.1
						s6.6-16.7,16.7-18.1c10.2-1.4,18.6,4.1,19.8,6.2C296,118.3,290.6,120.8,290.6,120.8z"/>
				</defs>
				<clipPath id="SVGID_10_">
					<use xlink:href="#SVGID_9_"  style="overflow:visible;"/>
				</clipPath>
				<g class="st19">
					<path class="st12" d="M290.6,120.8c0,0,4.4,3.7,4.9,7.4c0.4,3.6-1,7.6-0.9,9c0.2,1.4,3.4,4.6,3.3,6.2c-0.2,1.6-2.9,2.2-2.9,2.2
						s-3,11.9-3.7,13.9s-4.3,1.4-7,1l-4.9,16.1l-16.1-21.1l2.5-8.5c0,0-6.9-9.2-7.4-19.1s6.6-16.7,16.7-18.1
						c10.2-1.4,18.6,4.1,19.8,6.2C296,118.3,290.6,120.8,290.6,120.8z"/>
					<path class="st20" d="M271.8,166.9c2.7-0.6,7.3-1.7,11.4-2.7l1-3.5c2.2,0.3,5.1,0.9,6.5-0.2c-3.1-1.4-10.7-3.9-12.3-7.1
						c-1.9-4,4.9-15.4,4.9-21.2s-6.5-12.2-6.5-12.2c-3.1-3.3-8.8-4.3-13.9-4.3c-3.2,3.1-4.9,7.7-4.6,12.4c0.6,9.8,7.4,19.1,7.4,19.1
						l-2.5,8.5L271.8,166.9z"/>
				</g>
			</g>
		</g>
	</g>
	<path class="st13" d="M290.6,120.8c0,0,4.4,3.7,4.9,7.4c0.4,3.6-1,7.6-0.9,9c0.2,1.4,3.4,4.6,3.3,6.2c-0.2,1.6-2.9,2.2-2.9,2.2
		s-3,11.9-3.7,13.9s-4.3,1.4-7,1l-4.9,16.1l-16.1-21.1l2.5-8.5c0,0-6.9-9.2-7.4-19.1s6.6-16.7,16.7-18.1c10.2-1.4,18.6,4.1,19.8,6.2
		C296,118.3,290.6,120.8,290.6,120.8z"/>
	<path class="st15" d="M290.6,120.8c0,0,5.2-2.5,4.2-4.6c-1-2.1-9.6-7.6-19.8-6.2c-10.3,1.4-17.2,8.2-16.7,18.1
		c0.4,9.8,7.4,19.1,7.4,19.1l-0.4,1.3c3.7,2,7.6-1.3,7.6-1.3c-1.4,0.9-3.2,0.5-4.3-0.9c-2.2-2.2-2.3-9.2,0.4-9.8
		c2.7-0.6,4.6,0.6,4.6,2.8s0.6,0.9,2,0.6c1.4-0.2,0.2-5,1-5.8c1.4-1,2.8-2.4,3.7-3.9c1.6-2.5-3.1-4.4-3.7-6.6
		C276.1,121.4,290.6,120.8,290.6,120.8z"/>
	<polyline class="st13" points="292,136.6 288.6,137.8 291.5,137.8 	"/>
	<path class="st13" d="M293.2,132.8c0,0-1.4-2.2-3-1.3s-1.7,1.8-1.7,1.8"/>
	<path class="st13" d="M289.7,149c1,0.7,2.2,1.1,3.4,0.9"/>
	<polygon class="st18" points="262.5,151.8 282.8,173.9 281.1,183.4 259.4,157.7 	"/>
	<path class="st18" d="M340.6,236.3c0,0-7.2-4.7-8.3-4.3s-12.3,9.4-11.6,11.6c0.7,2.2,6.7,4.9,10.3,6.4c3.4,1.5,10.6-1.7,10.6-1.7
		L340.6,236.3z"/>
	<path class="st4" d="M319.7,234.6c0,0,6.2-3.9,7.2-3.9c1,0,6.6,5.6,6.6,5.6l-2.3,3.9c0,0,7.3,4.1,6.6,5.6c-0.7,1.5-3.7,3.9-6.7,4.3
		c-3.1,0.4-11.8-5.8-11.8-5.8L319.7,234.6z"/>
	<g>
		<g>
			<g>
				<defs>
					<path id="SVGID_11_" d="M319.7,234.6c0,0,6.2-3.9,7.2-3.9c1,0,6.6,5.6,6.6,5.6l-2.3,3.9c0,0,7.3,4.1,6.6,5.6
						c-0.7,1.5-3.7,3.9-6.7,4.3c-3.1,0.4-11.8-5.8-11.8-5.8L319.7,234.6z"/>
				</defs>
				<clipPath id="SVGID_12_">
					<use xlink:href="#SVGID_11_"  style="overflow:visible;"/>
				</clipPath>
				<g class="st21">
					<path class="st12" d="M319.7,234.6c0,0,6.2-3.9,7.2-3.9c1,0,6.6,5.6,6.6,5.6l-2.3,3.9c0,0,7.3,4.1,6.6,5.6
						c-0.7,1.5-3.7,3.9-6.7,4.3c-3.1,0.4-11.8-5.8-11.8-5.8L319.7,234.6z"/>
				</g>
			</g>
		</g>
	</g>
	<path class="st13" d="M319.7,234.6c0,0,6.2-3.9,7.2-3.9c1,0,6.6,5.6,6.6,5.6l-2.3,3.9c0,0,7.3,4.1,6.6,5.6
		c-0.7,1.5-3.7,3.9-6.7,4.3c-3.1,0.4-11.8-5.8-11.8-5.8L319.7,234.6z"/>
	<polygon class="st18" points="315.4,232.9 320.9,234 319.1,244.3 314.4,242.6 	"/>
	<path class="st8" d="M252.6,173.2c0,0-5.2,11.1-5.8,16.7c-0.6,5.6,20.7,49.9,22.2,51.4s46.8,3,46.8,3l1.9-10.9l-38.7-12.2
		L266,176.5"/>
	<g>
		<g>
			<g>
				<defs>
					<path id="SVGID_13_" d="M252.6,173.2c0,0-5.2,11.1-5.8,16.7c-0.6,5.6,20.7,49.9,22.2,51.4s46.8,3,46.8,3l1.9-10.9l-38.7-12.2
						L266,176.5"/>
				</defs>
				<clipPath id="SVGID_14_">
					<use xlink:href="#SVGID_13_"  style="overflow:visible;"/>
				</clipPath>
				<g class="st22">
					<path class="st17" d="M252.6,173.2c0,0-5.2,11.1-5.8,16.7c-0.6,5.6,20.7,49.9,22.2,51.4s46.8,3,46.8,3l1.9-10.9l-38.7-12.2
						L266,176.5"/>
				</g>
			</g>
		</g>
	</g>
	<path class="st13" d="M252.6,173.2c0,0-5.2,11.1-5.8,16.7c-0.6,5.6,20.7,49.9,22.2,51.4s46.8,3,46.8,3l1.9-10.9l-38.7-12.2
		L266,176.5"/>
	<path class="st18" d="M333.8,233.1c0,0-2.7-2.6-3.7,0.4s-7,10.3-4.3,10.5s7.7-6,7.7-6"/>
	<path class="st18" d="M321.9,245.1c0,0-0.7,3.6,1,5.1c1.1,1.1,1.9-1.9,1.6-4.1C324,244.1,322.4,243.4,321.9,245.1z"/>
	<path class="st18" d="M324.5,246c0,0-0.7,3.6,1,5.1c1.1,1.1,1.9-1.9,1.6-4.1C326.7,244.9,325.1,244.3,324.5,246z"/>
	<path class="st18" d="M327.2,247.3c0,0-0.7,3.6,1,5.1c1.1,1.1,1.9-1.9,1.6-4.1C329.5,246.2,327.8,245.6,327.2,247.3z"/>
	<path class="st18" d="M329.9,249c0,0-0.7,2.5,0.9,3.4c1,0.7,1.6-1.3,1.4-2.8S330.5,247.8,329.9,249z"/>
	<polygon class="st13" points="340.6,236.3 341.2,250 345.4,248.8 344.5,236.1 	"/>
	<polygon class="st15" points="343.5,235.1 345.4,251.3 377.7,247.5 378.4,226.3 	"/>
	<path class="st23" d="M286.8,299.9c0,0-5.9,43.4-5.9,58c0,14.6-8.9,39.3-9.3,52.9"/>
	<path class="st18" d="M252.3,444.6c1.6,1.4,36.1,1.4,39.1-0.6c3.1-2,1.6-4.8,0.3-4.8c-1.3,0-16.6-11.2-16.6-11.2s-8.3,7.2-12.9,8.9
		c-4.6,1.7-12,2-12,2v2C250.6,442.2,251.4,443.6,252.3,444.6z"/>
	<path class="st18" d="M291.5,443.9c1.6-1.1,1.9-2.4,1.7-3.3c-4.6,1-9.2,1.5-13.7,1.6c-9.3,0.3-23.9-0.3-29-0.5c0.4,1.2,1,2.1,1.9,3
		C253.9,446,288.4,446,291.5,443.9z"/>
	<path class="st15" d="M249.3,441.1l0.9-2.4l1.3-27.9c0,0-5.5,21.8-5.9,27C245.4,441.5,247.9,441.5,249.3,441.1z"/>
	<path class="st15" d="M382.3,291.4c0,0-3.1,50.8,0,71.3c3.1,20.5,10.9,56,12,60.4c0.7,2.7,1,5.5,1,8.1l17.3,2.7
		c0,0-5.2-67.2-5.2-75s5.9-66.6,5.9-66.6L382.3,291.4z"/>
	<path class="st15" d="M395.3,431.3c0,0-18.8,8.9-21,10.6c-2.2,1.7,4.6,4.1,12.9,4.1s16.6-1.1,16.6-1.1l3.4-2l0.3,2.4h8.9
		c0,0,1.6-8.1,1-10.3c-0.4-1.4-1-2.8-1.6-4.1L395.3,431.3z"/>
	<path class="st15" d="M379.5,287.3c0,0,1.6,48.8,5.2,66.2c3.7,17.3,10.2,59.7,10.2,64.1c0,2.6-0.3,5-1,7.5l-1.3,4.5
		c0.2,1.1,0.6,2.1,1,3.1c0,0,8,2,13.2,2c3.3,0,6.6-0.5,9.7-1.6c0,0,0.2-10.7,0.4-15.8c0.3-5.1-1.3-37.9-1.3-45.7
		c0-7.8-1.9-12.3-1.9-21.8s-1.6-35.1-1.3-39.3c0.3-4.2,4.6-8.6,5.5-13.7c0.9-5.1,1.9-10.6,1.9-10.6L379.5,287.3z"/>
	<path class="st23" d="M383.3,338.6c0,0,8.6,66.2,10.7,70.3c1.3,2.7,1.6,5.8,1,8.7"/>
	<path class="st15" d="M372.1,248.8c0,0-1.1,13.1-1.1,23c0,5.6,0,12.8-0.1,18.1c0,4.5,2.8,8.3,6.7,9.2c2,0.5,4,0.7,6.2,0.9
		l-7.3-49.7C376.6,250.3,373.3,244.2,372.1,248.8z"/>
	<path class="st15" d="M406.4,159.8c1.7,1.1,3.4,2.4,4.7,4c1.3,1.8,2.3,3.7,3.3,5.7c0,0,13,16.7,13.5,18.4
		c0.4,1.7-7.3,55.5-7.3,55.5l8.8,50.8c0,0-14.2,8.7-24.9,9.2c-7.6,0.3-19-2.4-25.1-4c-2.5-0.6-4.3-3-4.6-5.9
		c-0.6-7.2-1.7-21.4-2.4-34.9c-0.7-15.6,1.3-46.8,2.9-57.7s6.3-25.8,10-31.9C389,162.9,398.9,156.6,406.4,159.8z"/>
	<path class="st8" d="M414.4,169.4c-1-1.9-2-3.9-3.2-5.7c-1.3-1.6-3-2.9-4.7-4c-6.2-2.7-14.2,1.2-18.9,6.1
		c-0.6,1.5-5.5,13.8-7.9,23.9c-2.4,10.7-2.1,24.2-2.1,24.2s8.2-11.6,19.2-25.3c5.5-6.9,11.6-13.2,18.1-18.8L414.4,169.4z"/>
	<g>
		<g>
			<g>
				<defs>
					<path id="SVGID_15_" d="M414.4,169.4c-1-1.9-2-3.9-3.2-5.7c-1.3-1.6-3-2.9-4.7-4c-6.2-2.7-14.2,1.2-18.9,6.1
						c-0.6,1.5-5.5,13.8-7.9,23.9c-2.4,10.7-2.1,24.2-2.1,24.2s8.2-11.6,19.2-25.3c5.5-6.9,11.6-13.2,18.1-18.8L414.4,169.4z"/>
				</defs>
				<clipPath id="SVGID_16_">
					<use xlink:href="#SVGID_15_"  style="overflow:visible;"/>
				</clipPath>
				<g class="st24">
					<path class="st17" d="M414.4,169.4c-1-1.9-2-3.9-3.2-5.7c-1.3-1.6-3-2.9-4.7-4c-6.2-2.7-14.2,1.2-18.9,6.1
						c-0.6,1.5-5.5,13.8-7.9,23.9c-2.4,10.7-2.1,24.2-2.1,24.2s8.2-11.6,19.2-25.3c5.5-6.9,11.6-13.2,18.1-18.8L414.4,169.4z"/>
				</g>
			</g>
		</g>
	</g>
	<path class="st13" d="M414.4,169.4c-1-1.9-2-3.9-3.2-5.7c-1.3-1.6-3-2.9-4.7-4c-6.2-2.7-14.2,1.2-18.9,6.1
		c-0.6,1.5-5.5,13.8-7.9,23.9c-2.4,10.7-2.1,24.2-2.1,24.2s8.2-11.6,19.2-25.3c5.5-6.9,11.6-13.2,18.1-18.8L414.4,169.4z"/>
	<path class="st18" d="M386.5,173.8c0,0-4.2,14.5-5.4,18.5c-1.2,4-1.3,10.5-1.3,10.5s15.6-25.8,19.5-30.2c3.9-4.4,8.8-11.1,8.8-11.1
		l-3.4-1.1L386.5,173.8z"/>
	<path class="st18" d="M387.6,168.6c0,0-1.9,6-1.9,6.4s-0.4,6.1-0.4,6.1l6.6-9.8L387.6,168.6z"/>
	<polygon class="st18" points="404.4,156.6 386.4,172.9 389.2,181.8 407.6,161 	"/>
	<path class="st18" d="M402.1,285.5c0,0-2.5,7.1-3.3,9.4c-0.7,2.4-0.4,11.3-0.3,12.3s1.6,1.2,1.6,1.2s0.4,7.3,1,7.5
		c0.6,0.2,1.1,0.2,1.9,0.3c0,0,1,3.7,2.4,3.3c0.7-0.3,1.4-1.1,1.6-2c0.9,0.1,1.7-0.3,2.3-1.2c0.6-0.9,1-1.8,1.3-2.8
		c0,0,2.3-1.3,2.4-2.2c0.1-1,0.7-4.3,0.7-4.3s0.7-0.2,0.7-2.5s-1.6-15.8-1.6-15.8L402.1,285.5z"/>
	<line class="st13" x1="400.1" y1="308.3" x2="400.4" y2="302"/>
	<line class="st13" x1="402.9" y1="316.1" x2="403.6" y2="306.7"/>
	<line class="st13" x1="406.8" y1="317.5" x2="407.2" y2="307.2"/>
	<line class="st13" x1="410.5" y1="313.5" x2="411.1" y2="306.4"/>
	<path class="st15" d="M420.9,183.2l7,4.6l-2.3,53.1l-12.3,50.3l-11.7-3.4l3.7-39.6l-1.9-39.9c0,0,2.6-9.3,8.6-14.5"/>
	<path class="st23" d="M406.6,192.1c0,0-3.2,8.9-3.3,16"/>
	<path class="st23" d="M409.2,196.4c0,0-5.4,9.7-5.4,14.1s1.4,41.2,1.4,41.2l-3.7,31.8"/>
	<path class="st4" d="M375.7,124.1c0,0-3.7,11.7-3.4,13.3c0.3,1.6,0.7,4.2,0.7,4.2s-5.8,7.9-5.1,8.9c0.7,1,4,1.9,4,1.9
		s2.7,12.3,3.7,13.5c1,1.2,7.6-1.4,7.6-1.4l7,9.7l14.2-15.1l-1.7-7.9c0,0,7.6-14.6,7.3-21.5c-0.2-7-12.9-16.2-22-16
		c-9.1,0.2-17.7,3.9-15.9,6.5C373,121.7,374.2,123.1,375.7,124.1z"/>
	<g>
		<g>
			<g>
				<defs>
					<path id="SVGID_17_" d="M375.7,124.1c0,0-3.7,11.7-3.4,13.3c0.3,1.6,0.7,4.2,0.7,4.2s-5.8,7.9-5.1,8.9c0.7,1,4,1.9,4,1.9
						s2.7,12.3,3.7,13.5c1,1.2,7.6-1.4,7.6-1.4l7,9.7l14.2-15.1l-1.7-7.9c0,0,7.6-14.6,7.3-21.5c-0.2-7-12.9-16.2-22-16
						c-9.1,0.2-17.7,3.9-15.9,6.5C373,121.7,374.2,123.1,375.7,124.1z"/>
				</defs>
				<clipPath id="SVGID_18_">
					<use xlink:href="#SVGID_17_"  style="overflow:visible;"/>
				</clipPath>
				<g class="st25">
					<path class="st20" d="M405.4,121.6c-1.7,0.3-3.4,0.9-5.1,1.6l-13.6,6.1c0,0-6.5,6.1-5.8,10.8c0.7,4.7,6.5,11.1,5.2,15.8
						c-1.3,4.7-9.4,9.7-9.4,9.7l2.5,0.1c1.9-0.5,4-1.3,4-1.3l1,1.5l13.2,0.5l7-7.4l-1.7-7.9c0,0,7.6-14.6,7.3-21.5
						C409.9,127,408.1,124.2,405.4,121.6z"/>
				</g>
			</g>
		</g>
	</g>
	<path class="st13" d="M375.7,124.1c0,0-3.7,11.7-3.4,13.3c0.3,1.6,0.7,4.2,0.7,4.2s-5.8,7.9-5.1,8.9c0.7,1,4,1.9,4,1.9
		s2.7,12.3,3.7,13.5c1,1.2,7.6-1.4,7.6-1.4l7,9.7l14.2-15.1l-1.7-7.9c0,0,7.6-14.6,7.3-21.5c-0.2-7-12.9-16.2-22-16
		c-9.1,0.2-17.7,3.9-15.9,6.5C373,121.7,374.2,123.1,375.7,124.1z"/>
	<path class="st15" d="M402.5,151.1c0,0,7.6-14.6,7.3-21.5c-0.2-7-12.9-16.2-22-16s-17.7,3.9-15.9,6.5c1,1.6,2.3,2.9,3.9,4
		c0,0,5.7,3,5.7,3.7s-3.4,4.8-2.2,6.6s6.7,4,6.7,4s-1,3.4,0.4,3.9c1.4,0.4,2-1.2,3-2.1c1-0.9,4.2-2.5,4.6,1.9
		c0.3,3.1-0.4,6.2-2.1,8.9c-0.4,0.4,5.9,5.1,8.7,3.7c0.7-0.3,1.6-0.9,2.4-1.4L402.5,151.1z"/>
	<ellipse class="st13" cx="374.8" cy="141.4" rx="0.7" ry="3.4"/>
	<line class="st13" x1="375.7" y1="140" x2="389.4" y2="140.1"/>
	<path class="st13" d="M373.6,135.8c0,0,1.3-2.2,2.6,0.5"/>
	<path class="st13" d="M373.3,154.5c1.4-0.6,2.7-1.5,3.9-2.6"/>
</g>
<g id="freepik--Floor--inject-140">
	<line class="st26" x1="92" y1="445.8" x2="600.2" y2="445.8"/>
</g>
</svg>
