<?xml version="1.0" encoding="utf-8"?>
<!-- Generator: Adobe Illustrator 25.4.1, SVG Export Plug-In . SVG Version: 6.00 Build 0)  -->
<svg version="1.1" id="Layer_1" xmlns="http://www.w3.org/2000/svg" xmlns:xlink="http://www.w3.org/1999/xlink" x="0px" y="0px"
	 viewBox="0 0 519.3 233.7" style="enable-background:new 0 0 519.3 233.7;" xml:space="preserve">
<style type="text/css">
	.st0{fill:#FFFFFF;}
	.st1{opacity:0.3;}
	.st2{opacity:0.53;}
	.st3{opacity:0.4;}
	.st4{opacity:0.1;}
	.st5{fill:#3742FA;}
	.st6{fill:url(#SVGID_1_);}
	.st7{fill:url(#SVGID_00000137128898981936930580000011564981204667658395_);}
	.st8{opacity:0.1;fill:#3742FA;enable-background:new    ;}
	.st9{opacity:0.1;fill:none;stroke:#3742FA;stroke-miterlimit:10;enable-background:new    ;}
	.st10{opacity:0.1;fill:none;stroke:#3742FA;stroke-width:0.25;stroke-miterlimit:10;enable-background:new    ;}
	.st11{fill:url(#SVGID_00000127758486322275016100000000315670353594532226_);}
	.st12{fill:url(#SVGID_00000080929523852268901210000015442883027931223995_);}
	.st13{fill:url(#SVGID_00000095328455798312001590000010189129224643925918_);}
	.st14{fill:url(#SVGID_00000078731636909015776600000001524358182810832279_);}
	.st15{fill:url(#SVGID_00000039833538813870780200000012759309249107162278_);}
</style>
<path class="st0" d="M0-1.4v237.6h519.3V-1.4H0z M411.5,171.7c-3.2,4.3-6.7,8.5-11.1,11.7c-8.8,5.6-19.9,6.3-30,4.6
	c-9.5-1.6-17.7-6.8-26.2-10.9c-9.6-4.6-18.8-11-29.6-12.2c-7.6-0.7-16.1-0.5-22.6,4.2c-7.1,5.2-12.7,12-18.9,18.1
	c-7,7.5-20.8,9.1-27.9,7.9c-4.7-0.9-9.4-2.1-14-3.7c-0.2,0.2-0.3,0.4-0.4,0.5c-8.3,9.7-17.6,19.1-29.3,24.7
	c-16.8,7.4-37.4,2.4-50.2-10.3c-7.5-7.5-15.2-14.9-21.7-23.4c-7.9-8.4-15.7-17.4-25.8-23.1c-9.2-5.4-20-7.3-30.6-7.1
	c-9,0.1-18,0.1-27,0.2c-16,0-32.5-3.5-46-12.4V60.6c9.4,0,18.4,2.8,27.5,4.3c13.3,3,27,3.4,40.5,2.6c16.2-1,30.8-9.8,42.3-20.8
	c8.7-8.3,16.4-17.8,26.9-24.1c8.5-5.4,18.7-8.8,28.8-7.6c6.1,0.7,10.9,5.6,12.8,11.3c4.9,11.9,3.9,25.3,9.1,37
	c1.8,4.2,3.3,8.7,6.3,12.2c0.2,0.3,0.5,0.6,0.8,0.9c3,3.1,6.2,6.1,10.1,7.9c5.4,2.5,11.8,1.7,17-1c9.9-5.1,20.6-10,31.9-10.5
	c7.7-10.5,13.8-22.3,23.3-31.4c0.2-0.2,0.3-0.3,0.5-0.5c4.6-4.3,9.8-7.9,15.5-10.5c4.7-1.8,9.7-2.5,14.7-3.3
	c12.9-2,26.3,2.6,35.9,11.2c5,4.7,10.5,9.3,13.2,15.8c1.9,4.4,4.5,8.5,6,13c3.7,13,5,26.8,10.9,39.2c2.6,5.9,6.3,11.5,11.7,15.2
	s11.4,6.4,16.5,10.6c5.6,4.5,11,9.9,13.2,16.9C417.3,156.6,416.3,165.2,411.5,171.7z"/>
<g class="st1">
	
		<image style="overflow:visible;enable-background:new    ;" width="102" height="103" xlink:href="F5031082.png"  transform="matrix(1 0 0 1 59.5125 119.0791)">
	</image>
</g>
<image style="overflow:visible;enable-background:new    ;" width="89" height="90" xlink:href="F5031086.png"  transform="matrix(1 0 0 1 15.6293 120.5591)">
</image>
<g class="st2">
	
		<image style="overflow:visible;enable-background:new    ;" width="103" height="98" xlink:href="F5031081.png"  transform="matrix(1 0 0 1 326.3525 35.6791)">
	</image>
</g>
<g class="st3">
	
		<image style="overflow:visible;enable-background:new    ;" width="92" height="91" xlink:href="F5031083.png"  transform="matrix(1 0 0 1 414.5124 129.0791)">
	</image>
</g>
<g class="st4">
	<path class="st5" d="M200.8,216.8c-1.1,0.6-2.2,1.2-3.3,1.7c-16.8,7.4-37.4,2.4-50.2-10.3c-7.6-7.5-15.2-14.9-21.7-23.4
		c-7.9-8.4-15.7-17.3-25.8-23.1c-9.2-5.4-20.1-7.3-30.6-7.1c-9,0.1-18,0.1-27,0.2c-16,0-28.7-1.2-42.2-10.1v-4.3
		c13.6,8.9,30,12.4,46,12.4c9,0,18,0,27-0.2c10.6-0.2,21.4,1.7,30.6,7.1c10.2,5.8,17.9,14.7,25.8,23.1c6.5,8.4,14.1,15.9,21.7,23.4
		C163.8,218.9,184.1,223.8,200.8,216.8z"/>
</g>
<g id="_000000ff" class="st4">
	<path class="st5" d="M119,37.6c-0.3,0.5-0.7,1-1,1.5c-2.5,2.6-5,5.2-7.6,7.7c-11.5,11-26.1,19.8-42.3,20.8
		c-13.5,0.8-27.2,0.3-40.5-2.6c-6.6-1.1-13.1-2.8-19.7-3.7C8,60.8,8.1,60.4,8.3,60c2.8-7.9,8.8-15.2,16.9-16.9
		C35.4,40,45.9,44,54.8,49.2c7.3,4.5,14.9,9,23.4,10.7c4,0.6,8.5,0.8,12.1-1.5c7.3-5.8,12-15.2,20.7-18.9
		C113.4,38.1,116.3,37.9,119,37.6z"/>
</g>
<g class="st3">
	
		<linearGradient id="SVGID_1_" gradientUnits="userSpaceOnUse" x1="150.9224" y1="-1472.5845" x2="149.4824" y2="-1390.5055" gradientTransform="matrix(1 0 0 -1 0.3153 -1256.443)">
		<stop  offset="0" style="stop-color:#000000"/>
		<stop  offset="0.84" style="stop-color:#000000;stop-opacity:0.5"/>
	</linearGradient>
	<path class="st6" d="M289.4,117.8c-3.7,6.5-50.9,65-58.4,73.6c-0.2,0.2-0.3,0.4-0.4,0.5c-1.4,1.7-2.9,3.4-4.4,5
		c-7.2,7.9-15.3,15.1-24.9,19.7c-0.2,0.1-0.4,0.2-0.5,0.2c-16.7,7-37,2.1-49.7-10.5c-7.5-7.5-15.2-14.9-21.7-23.4
		c-7.9-8.4-15.7-17.4-25.8-23.1c-9.2-5.4-20-7.3-30.6-7.1c-9,0.1-18,0.1-27,0.2c-16.1-0.1-32.5-3.5-46-12.4V60.6
		c2.6,0,5.3,0.2,7.9,0.6c6.6,0.9,13.1,2.7,19.7,3.7c13.3,3,27,3.4,40.5,2.6c7.2-0.5,14.2-2.4,20.6-5.5c8-3.9,15.3-9,21.7-15.3
		c2.6-2.5,5.1-5.1,7.6-7.7c5.9-6,11.9-12.1,19.2-16.4c0.9-0.5,1.7-1.1,2.6-1.6c7.9-4.5,17.1-7.1,26.2-6c6.1,0.7,10.9,5.6,12.8,11.3
		c4.9,11.9,3.9,25.3,9.1,37c1.9,4.5,3.5,9.4,7,13c3,3.1,6.2,6.1,10.1,7.9c5.4,2.5,11.8,1.7,17-1c6.7-3.4,13.7-6.8,21-8.8
		c3.6-1,7.2-1.6,10.9-1.8c1,0,2.1,0,3.1,0c11.1,0,22.8,0.6,32.9,5.7c4.7,2.2,8.4,6.6,8.9,11.9C300.1,100.5,294.3,109.5,289.4,117.8z
		"/>
</g>
<g id="_000000ff-2" class="st1">
	
		<linearGradient id="SVGID_00000044895488550761630240000016743717807061285561_" gradientUnits="userSpaceOnUse" x1="300.5049" y1="-1377.7415" x2="140.6649" y2="-1297.5815" gradientTransform="matrix(1 0 0 -1 0.3153 -1256.443)">
		<stop  offset="0" style="stop-color:#000000"/>
		<stop  offset="0.84" style="stop-color:#000000;stop-opacity:0"/>
	</linearGradient>
	<path style="fill:url(#SVGID_00000044895488550761630240000016743717807061285561_);" d="M411.2,171.8c-3.2,4.3-6.7,8.5-11.1,11.7
		c-1.1,0.7-2.2,1.3-3.3,1.8c-3.8,1.8-7.9,2.9-12.1,3.3c-4.9,0.5-9.8,0.3-14.6-0.5c-9.5-1.6-17.7-6.8-26.2-10.9
		c-9.6-4.6-18.8-11-29.6-12.2c-4.9-0.6-10-0.4-14.8,0.7c-2.1,0.5-4.1,1.3-6,2.4c-0.6,0.4-1.2,0.7-1.8,1.1
		c-7.1,5.2-12.7,12-18.9,18.1c-1.9,1.9-4.1,3.5-6.5,4.6c-3.8,1.8-7.9,2.9-12.1,3.3c-3.1,0.4-6.2,0.3-9.3-0.1
		c-4.7-0.9-9.4-2.1-14-3.7c-17.6-6.1-37.9-18.1-58.8-34.4c-24.2-18.8-39-32.5-44.3-47.9c-1.7-5.1-0.8-16,1.2-21.7
		c1.1-3.2,3-6.1,5.6-8.3c1.7-1.5,3.9-2.5,6.2-2.8h0.1c5.6-1,11.3-0.6,16.6,1.2c7.9,2.8,15.2,7.1,23,10.1c7.3,3,16.6,6.5,22.4,7.8
		c5.3,1.1,10.7,1.5,16.1,1.1c0.9-0.1,1.7-0.2,2.5-0.3c3.1-0.4,6.2-1.3,9-2.8c4.4-2.3,8.5-5,12.2-8.3c4.1-3.7,7.8-7.8,11.1-12.3
		c7.9-10.7,14-22.7,23.8-31.9c4.2-3.9,8.9-7.3,14.1-9.8c0.5-0.2,1-0.4,1.4-0.7c1.1-0.4,2.2-0.8,3.3-1.1c3.7-1,7.5-1.7,11.4-2.2
		c12.9-2,26.3,2.6,35.9,11.2c5,4.7,10.5,9.3,13.2,15.8c1.9,4.4,4.5,8.5,6,13c3.7,13,5,26.8,10.9,39.2c2.6,5.9,6.3,11.5,11.7,15.2
		c5.4,3.7,11.4,6.4,16.5,10.6c5.6,4.5,11,9.9,13.2,16.9C417,156.8,416,165.3,411.2,171.8z"/>
</g>
<path class="st8" d="M384.7,188.5c-8.2,3.9-17.8,4.2-26.6,2.8c-9.5-1.6-17.7-6.8-26.2-10.9c-9.6-4.6-18.8-11-29.6-12.2
	c-2.9-0.3-5.9-0.4-8.8-0.2c6.2-3.6,13.9-3.7,20.8-3.1c10.8,1.2,20,7.6,29.6,12.2c8.5,4.1,16.7,9.3,26.2,10.9
	C374.9,188.8,379.9,189,384.7,188.5z"/>
<path class="st8" d="M254.4,195.2c-6.7,3-14.1,4.1-21.4,3.1c-2.2-0.4-4.5-0.9-6.8-1.5c1.5-1.6,3-3.3,4.4-5c0.1-0.1,0.3-0.3,0.4-0.5
	c4.5,1.6,9.2,2.8,14,3.7C248.1,195.6,251.2,195.6,254.4,195.2z"/>
<g id="_000000ff-3" class="st4">
	<path class="st5" d="M277.1,41.5c-9.4,9.1-15.5,20.9-23.3,31.4c-11.3,0.5-21.9,5.4-31.9,10.5c-5.2,2.7-11.6,3.4-17,1
		c-3.9-1.8-7.1-4.9-10.1-7.9c-0.3-0.3-0.5-0.6-0.8-0.9c10.6,2.6,22.4,4.3,32.6-0.8c9.4-5.8,15.1-15.5,23.1-22.7
		C257.8,46.3,267,40.9,277.1,41.5z"/>
</g>
<circle class="st8" cx="210" cy="55.9" r="7.1"/>
<circle class="st9" cx="210.8" cy="54.7" r="7.1"/>
<circle class="st8" cx="259.4" cy="35.1" r="2.7"/>
<circle class="st10" cx="259.7" cy="34.7" r="2.7"/>
<circle class="st9" cx="34.7" cy="163.9" r="4.2"/>
<circle class="st9" cx="30.5" cy="171.9" r="1.8"/>
<linearGradient id="SVGID_00000124157633378109001410000012576069809990421640_" gradientUnits="userSpaceOnUse" x1="444.3231" y1="-528.8034" x2="456.8631" y2="-538.7634" gradientTransform="matrix(1 0 0 -1 0 -371.0098)">
	<stop  offset="0" style="stop-color:#6576DD"/>
	<stop  offset="0.84" style="stop-color:#30B0D1"/>
</linearGradient>
<path style="fill:url(#SVGID_00000124157633378109001410000012576069809990421640_);" d="M439.1,166.2c0-2.2,4.3-4.1,6.7-6.8
	s3-6.3,5.3-7.1s5.4,0.7,6.5,2.9c1.2,2.2,0.4,5.2-0.6,7.5c-0.9,2.1-2.2,3.9-4,5.2c-2,1.8-4.6,2.7-7.3,2.6
	C442.7,170.4,439.1,168.4,439.1,166.2z"/>
<linearGradient id="SVGID_00000145754826716426484990000000350860166028355985_" gradientUnits="userSpaceOnUse" x1="504.0347" y1="-1550.135" x2="540.1925" y2="-1552.0933" gradientTransform="matrix(0.8296 -5.331000e-02 5.331000e-02 -0.9844 -262.1031 -1338.1738)">
	<stop  offset="0" style="stop-color:#6576DD"/>
	<stop  offset="0.84" style="stop-color:#30B0D1"/>
</linearGradient>
<path style="fill:url(#SVGID_00000145754826716426484990000000350860166028355985_);" d="M90.8,175.6c-5.4,1.1-9.9-0.3-13.2-4
	c-3.6-4.2-4.9-9.9-3.6-15.3c1.5-5.6,6.3-10.6,9.8-10.4c3.5,0.2,5.6,5.7,9.5,10.2s9.5,8,9.3,11.5C102.3,171.1,96.2,174.5,90.8,175.6z
	"/>
<linearGradient id="SVGID_00000088819560545574577530000006791553609525391489_" gradientUnits="userSpaceOnUse" x1="561.0847" y1="-1391.2533" x2="560.8519" y2="-1371.9418" gradientTransform="matrix(3.516000e-02 0.8702 -0.8481 1.048000e-02 -1120.2054 -323.1583)">
	<stop  offset="0" style="stop-color:#F9C671"/>
	<stop  offset="1" style="stop-color:#FCAE76"/>
</linearGradient>
<path style="fill:url(#SVGID_00000088819560545574577530000006791553609525391489_);" d="M75.2,141.8c-2,0-3.5,3.9-5.8,6.2
	s-5.5,2.8-6.1,4.9c-0.6,2,0.8,4.9,2.8,5.9c2,1.1,4.7,0.3,6.6-0.6c1.8-0.8,3.4-2.1,4.5-3.7c1.5-1.9,2.3-4.3,2.1-6.7
	C79,145.1,77.1,141.8,75.2,141.8z"/>
<linearGradient id="SVGID_00000176026136943646556840000010222814554205185180_" gradientUnits="userSpaceOnUse" x1="-1508.9534" y1="2606.0486" x2="-1516.7794" y2="2610.9324" gradientTransform="matrix(-0.5981 0.4848 0.6297 0.7769 -2459.3193 -1104.5844)">
	<stop  offset="0" style="stop-color:#6576DD"/>
	<stop  offset="0.84" style="stop-color:#30B0D1"/>
</linearGradient>
<path style="fill:url(#SVGID_00000176026136943646556840000010222814554205185180_);" d="M85.8,192.3c-1.3-0.8-1.6-3.5-1.1-5.2
	c0.4-1.5,1.8-2.6,3.4-2.5c1.5,0.1,2.7,1,3.4,2.3c0.6,1.3-0.7,1.9-2,3.2C88.2,191.3,87,193.2,85.8,192.3z"/>
<linearGradient id="SVGID_00000085946679632489069260000012568029205200086702_" gradientUnits="userSpaceOnUse" x1="349.8803" y1="-1318.2645" x2="371.9405" y2="-1318.2645" gradientTransform="matrix(1 0 0 -1 0.3153 -1256.443)">
	<stop  offset="0" style="stop-color:#F9C671"/>
	<stop  offset="1" style="stop-color:#FCAE76"/>
</linearGradient>
<path style="fill:url(#SVGID_00000085946679632489069260000012568029205200086702_);" d="M347.8,66c-1.8-5.2,1.7-12.4,6.4-15.2
	c4.7-2.8,10.7-1.3,15.6,2.2c4.9,3.4,8.7,8.8,7.5,13.3c-1.2,4.4-7.4,8-14.1,8.1C356.6,74.5,349.6,71.2,347.8,66z"/>
</svg>
