<svg id="Layer_1" data-name="Layer 1" xmlns="http://www.w3.org/2000/svg" viewBox="0 0 2022.43298 669.8653"><defs><style>.cls-1{fill:#325fe0;}</style></defs><g id="_020202ff" data-name=" 020202ff"><path class="cls-1" d="M1614.78952,178h3.99549c1.48788,2.55777,2.6748,5.53348,5.44991,6.98789,10.74931,6.36935,21.63238,12.605,31.49567,20.34515,11.301,7.456,20.77978,17.18554,31.44553,25.47739,22.23419,19.70988,41.20851,42.72981,59.07947,66.36829a373.51429,373.51429,0,0,1,32.91666,58.695c7.90738,19.34209,17.60348,38.53372,20.47888,59.41382-3.97876-2.00609-5.4499-6.45293-7.90737-9.84658-7.94079-11.80251-18.33905-21.63238-28.2358-31.76315-26.73119-25.87861-56.388-49.01557-89.37149-66.40173-15.49706-6.77057-30.175-15.4302-46.39093-20.47888a227.31322,227.31322,0,0,0-43.14774-13.725c-17.85423-4.51372-35.85893-8.62621-54.21468-10.33139-3.4438-.43465-7.43927.26748-9.997-2.62464,5.149-7.28881,11.88611-13.2235,18.2053-19.47583a369.48722,369.48722,0,0,1,62.99135-50.75419C1606.49767,186.54262,1611.93085,183.46661,1614.78952,178Z" transform="translate(70.42188 -178)"/><path class="cls-1" d="M1729.371,264.44594c14.17642-.70213,28.40293-.26747,42.61277-.41793,7.8739-.31763,15.46364,2.424,23.371,1.98937,17.63689,1.73862,35.08991,4.54715,52.52625,7.82377,3.57756.40122,8.60948.68542,9.646,4.94837,1.00305,12.38763,4.96508,24.257,6.9712,36.46076,1.304,15.58067,5.33287,30.87714,5.06538,46.57482-.13372,8.108.41794,16.24937-.48482,24.30718-1.60486,8.39217-.25075,16.98494-1.28722,25.42726-2.05627,8.77666-2.13984,17.871-3.87847,26.69777-3.91187,17.53662-5.801,35.62489-12.12015,52.55968-2.85867,7.74019-6.16874,15.31319-8.49244,23.23725-3.56083,13.491-10.93323,25.51082-16.86791,38.0322a128.309,128.309,0,0,1-9.763,18.25545h-2.40732c0-8.65962,3.57756-16.8679,3.62771-25.54426-.2006-10.31467,2.17325-20.44544,1.47114-30.77684.769-12.33748-1.70516-24.49105-1.62159-36.7951.25075-7.9575-2.7751-15.5305-3.193-23.42114-.25075-7.3724-2.959-14.377-3.56083-21.716-3.71127-19.877-11.85266-38.50029-17.55332-57.79223a568.436,568.436,0,0,0-30.8604-61.73756c-10.54871-14.9454-19.79346-30.96072-32.365-44.3514A4.57809,4.57809,0,0,1,1729.371,264.44594Z" transform="translate(70.42188 -178)"/><path class="cls-1" d="M1423.72576,269.7621c14.64448-1.08664,29.05494-4.29639,43.81646-4.09578,12.90587-.06687,25.84519-.45137,38.71762.45137,8.2417,1.58816,16.78431.10031,24.909,2.47418a117.14381,117.14381,0,0,1,25.143,3.62769,234.388,234.388,0,0,1,50.47,12.70526c10.63228,3.77815,21.81626,6.035,31.8802,11.301,10.415,5.29942,21.716,8.74323,31.74642,14.79494,2.29028,1.87236,6.2189,2.959,6.2189,6.50309-11.81926.53495-23.45459-1.93923-35.14007-3.1596q-20.93862-.20061-41.84378.20061c-10.54871,1.35411-21.09742,2.842-31.713,3.59426a131.79967,131.79967,0,0,1-18.3892,3.02585,365.83,365.83,0,0,0-51.18883,13.74175,108.56557,108.56557,0,0,0-22.16733,7.62315c-16.38311,7.69-33.36805,14.27671-48.76481,23.92267-20.81322,10.01376-37.89846,26.01237-57.17368,38.46687H1368.157c-.70213-14.34358-.40122-28.70387-.50153-43.04744-.55168-23.97282,2.80853-47.86207,8.12468-71.18292,1.50456-4.53043,1.70519-11.56847,7.47271-12.65511C1396.57664,274.47642,1410.33509,273.022,1423.72576,269.7621Z" transform="translate(70.42188 -178)"/><path class="cls-1" d="M1515.57145,334.793c3.00915-.73557,7.25537-3.29334,9.646-.05015-9.646,6.1353-18.339,13.55785-27.45006,20.412-7.60644,8.07453-16.90134,14.31013-24.20686,22.68558-8.67636,8.04109-16.01532,17.30256-23.78893,26.19626-6.06844,8.82681-14.07609,16.29951-18.69012,26.09594-8.42559,14.20983-18.62324,27.45-24.675,42.96385a404.90167,404.90167,0,0,0-23.07009,57.25727c-4.43012,17.63692-10.16422,35.0565-12.187,53.21166a139.39779,139.39779,0,0,0-3.0593,23.52146c-2.40732-.05015-5.29943.41794-7.17179-1.45441-6.33591-5.34958-11.35115-12.01985-17.5366-17.53661-11.45146-9.77972-19.9272-22.38467-29.8908-33.55192-6.9879-7.89064-11.21741-17.72051-17.92111-25.81175-4.29639-4.81463-8.15812-11.25084-5.63379-17.88767,4.17936-7.48941,9.21132-14.46058,13.30709-22.00017,3.57753-6.82072,9.228-12.13686,13.54113-18.43935,5.918-8.459,13.67488-15.41349,19.76-23.75551,20.39529-23.35428,44.53528-43.04744,69.51116-61.25274,21.24789-13.32382,42.76325-26.73121,66.46858-35.2404A374.5153,374.5153,0,0,1,1515.57145,334.793Z" transform="translate(70.42188 -178)"/><path class="cls-1" d="M1609.56,347.43992c3.86172,7.67332,12.08673,11.08367,17.687,17.20226-2.3739,10.74933-1.68848,21.81628-1.73863,32.76622.41794.36779,1.27054,1.12007,1.68848,1.48785,10.23107.886,20.64606-.96961,30.77683,1.47115,13.45753.41793,27.01541-.56839,40.43953.80243l2.6748,1.60488c1.20366,9.94688-4.96509,19.57615-1.10336,29.42273,1.67175,3.193-.66869,6.2356-1.67175,9.228-2.42405,4.32981,1.1201,8.92711.61854,13.491.2006,31.479-.55165,62.97464.06689,94.4536,3.49394,15.1293.61853,30.76011,1.92249,46.09,2.15657,6.83743.80246,14.026,1.37085,21.03053.31763,2.03954,2.44073,3.09274,3.4772,4.74775.26749,4.24625-.55165,8.5928.93618,12.722,1.82219,4.76449-1.45441,9.2949-1.18693,14.0928-.03341,3.42706,1.90582,6.50311,1.90582,9.94691a27.20572,27.20572,0,0,1-11.06695-1.05321c-4.91493-1.58818-9.41193,1.50456-14.05938,2.541-5.617,1.03648-11.05021-1.17024-16.567-1.78878-.1003-.70215-.28422-2.1231-.38452-2.82525,8.24169-.16719,16.48338-.01673,24.72512-.08357,3.76143-1.25381,1.7219-5.85111,2.19-8.70978l1.67174-.13371a52.768,52.768,0,0,0,.33437,8.44229c2.40732,1.70516,4.68087-.95291,6.78728-1.88908a14.5025,14.5025,0,0,1-.06688-11.2174c-7.90738-.21733-16.032,1.08663-23.72207-1.27054-3.71128-.83587-7.18849,1.58818-10.89976,1.37084-8.04109.01674-16.09892-.6018-24.12327.117-.15045,2.19-.30091,4.3967-.45136,6.60341q-21.18939-.37612-42.39548.117a28.55316,28.55316,0,0,0-5.81769,1.20366c-.18387-2.64134-.15046-5.31614-.23407-7.95753-9.72957-1.25381-19.30867,3.52736-28.97135.769-7.456-2.7751-14.97885,2.40732-22.485.117-4.31311-.652-10.415-2.959-13.32381,1.5213-.3845,3.64439-.18389,7.32225-.35108,10.98338a15.14363,15.14363,0,0,1-4.51371-.26749c-.45137-49.2496,0-98.56608-.234-147.83242a41.557,41.557,0,0,1,1.47114-10.03047c.73558-4.53044-1.82219-8.77666-1.48785-13.29037.40123-28.52-.56838-57.02323.01671-85.5432,1.93923-3.37693,5.9347-2.02282,9.12774-2.22342,7.807.3009,15.63083-.06686,23.43788.38449,11.60191,2.424,23.43787.33435,35.15682,1.03648,5.617-.98633,5.70066-7.92407,5.85111-12.43779-1.8222-2.80854-4.38-5.01524-6.45291-7.62316a7.99216,7.99216,0,0,1,1.18692-8.49247c2.17325-2.82525,4.26293-8.1414,8.70978-6.269a27.88671,27.88671,0,0,0,13.7919,1.85564c.6018-5.23256-4.22951-7.74018-7.38914-10.9165.81914-1.95594,1.70517-3.87845,2.67481-5.76751m-7.18849,35.77535c.45135,8.39215,9.51224,10.36483,16.34967,9.19461.117-4.86479.08357-9.71284-.16719-14.5609a18.05439,18.05439,0,0,0-10.86634-2.37388c-3.12616,1.27053-4.07906,4.93165-5.31614,7.74018m-63.52632,30.87714c-.3009,20.295-.55168,40.62341-.56838,60.93511.06685,4.5137-1.55472,8.86025-1.40426,13.39067-.31764,27.16586-.26749,54.33172-.45138,81.51428.55168-.0167,1.67174-.03344,2.22342-.03344.08359-3.24319-.13374-6.46964-.03344-9.71283,2.12312-1.73861,4.2128-4.43012,7.30552-4.04562,4.93164.28419,11.80252-1.8222,14.02594,4.22951-.61854,3.59424-1.22037,7.18851-1.538,10.8329-2.77511.3009-5.68393,0-8.25843,1.27052-.06686.98632-.234,2.959-.3009,3.94532,2.62465.06686,5.24928-.08359,7.89064,0,.85258,1.13677,2.57448,3.42708,3.42708,4.58059a109.55362,109.55362,0,0,1-11.953.21733,14.67274,14.67274,0,0,0,3.34349,16.18251,46.31543,46.31543,0,0,1,8.44232,12.53809c1.15351-.61854,3.46053-1.82219,4.614-2.424-.66869-3.2599-2.20672-6.36934-2.03953-9.763.2006-27.53364.1003-55.05055.234-82.5842,2.34044-18.27216.61854-36.7784,1.15351-55.15089.55168-6.75383-2.12312-13.35725-1.03647-20.07765,1.93923-8.35872.71884-16.98493,1.304-25.46067-.63528-.85258-1.87235-2.57448-2.49091-3.44379-.61854.85258-1.85564,2.52433-2.45747,3.37693.35108,8.94385.05015,17.88767.26748,26.83152-2.70821-.95291-5.383-3.3602-8.40887-2.03953a337.54665,337.54665,0,0,0-.33435,40.08844c2.75837.1003,5.51677-.08359,8.29187,0-2.80852,6.05171-10.81619,2.17327-16.13233,3.34349-2.79181-2.307-2.03953-6.035-2.17327-9.21131.35107-19.91049,0-39.83769.25075-59.74818-.78572.1003-2.39059.3009-3.193.41794m84.22251.38449c1.13677.68542,3.39364,2.03953,4.51373,2.72495,11.10041,1.01977,22.53514-.71883,33.48505.98633,7.53959,5.70065,3.49395,16.567,4.2964,24.60809-4.16263-1.85564-6.921-5.60036-10.18092-8.60948a45.70291,45.70291,0,0,1,2.13983,6.78728c-1.85561,1.50456-3.86173,2.77511-5.801,4.16266a30.17213,30.17213,0,0,0,8.07451,6.31919c-.535-3.37693-3.845-6.31919-1.98938-9.763,3.02585,2.70822,9.04415,5.58362,7.6733,10.4484a13.55665,13.55665,0,0,1-4.83136.93618,16.81186,16.81186,0,0,1-.46809,3.97876c1.35411.18389,4.04564.55168,5.383.71884.23407,10.415.85261,20.88011-.21733,31.27834-1.87235-5.39973-2.25687-11.23413-4.83137-16.38311-3.81158-10.31467-11.953-18.0047-18.74025-26.36343-3.67786-4.5973-9.36179-6.67027-14.62777-8.82681-3.51068-1.3374-6.93774-3.44379-10.84961-3.10945,3.1763,6.035,10.88307,7.6733,16.1658,11.56847-1.13678.535-3.42706,1.60489-4.56389,2.13983,3.04259,3.59425,6.85417,7.18851,11.73564,7.84049,4.66418.25076,7.00461,4.731,9.46208,8.05783,2.13983,3.46052,4.94835,7.00462,4.86478,11.301.20061,7.12162,6.40277,12.53809,6.58668,19.70986.15046,13.44082.40121,26.88167.28422,40.33922,4.11248,27.85128-.25075,56.3211,3.12616,84.28942,2.7751.23407,5.56689.18387,8.35873.2006.58512-8.67636,2.44073-17.40287.535-26.0625-.70216-10.88305-.40121-21.79955-.50151-32.69933a179.18077,179.18077,0,0,1,18.47277.08359c.3009,3.97876.33437,7.97423.28422,11.9697-3.32676.08359-6.65357-.13374-9.94691.25075a39.32725,39.32725,0,0,0-.2006,7.42256c3.49394.41793,7.038.117,10.54871.535l-.1003,3.05929c-3.41038.43465-6.85417.26749-10.24781.66869-.56839,8.47576,0,16.96821-.2006,25.4607-.18387,3.37691.43467,7.72345,3.82831,9.37847a30.33769,30.33769,0,0,0,9.42867-1.8222c.06688-23.70534-.01673-47.394-.03342-71.09932-.25075-5.34958.55166-10.93321-1.67174-15.98188-3.41038-7.92409-1.05321-16.70075-1.7219-25.026-3.92861-1.85564-10.48182-3.27663-11.50161,2.62465-.16719,15.66425-.90276,31.46226,1.63833,46.976a34.15634,34.15634,0,0,1-7.60643.45138c-1.43767-2.20672-.78572-4.94838-1.00305-7.40582,0-15.58065-.15045-31.21148-.15045-46.70857a27.213,27.213,0,0,1-1.27055-12.187c6.804-3.92861,14.31014-.117,21.49862.1003a70.20336,70.20336,0,0,0,0-7.95749c-6.53653,3.04258-15.06244,3.91187-21.5655.78572-.535-6.33591.06688-12.70528-.48482-19.04118-1.90581-11.13383-.48482-22.5017-1.01974-33.73581a41.26134,41.26134,0,0,1,1.28722-11.8694c-4.9985-3.86172-11.73563-1.37084-17.38614-3.47723a221.18056,221.18056,0,0,0-29.95769-.03344m65.616,17.67036c-2.65807.117-5.33287,0-7.95753.36778a20.68227,20.68227,0,0,0-.21733,5.28272,65.23612,65.23612,0,0,0,8.37546-2.89211,29.13942,29.13942,0,0,1-.23407,8.60948c-3.39364,1.78878-7.13833-2.69151-11.00006-.80243-.48482,9.67939.15045,19.37552-.06688,29.05494.18386,3.3602.48482,7.60645,3.41037,9.763,2.72495-.06686,7.82376.2006,7.85722-3.69457,2.99244-14.66122,1.37085-29.69019,1.8222-44.552-.06689-5.0821.83587-10.36482-.85261-15.27975-1.85561,4.46355-.63527,9.44535-1.13677,14.143m-115.71821-2.65807c2.52433-1.08662,4.91494-2.424,7.456-3.47723.08359,3.51068-2.94227,5.98485-4.38,8.96056,3.99547-.55168,6.90432-7.573,10.18095-1.8222-2.89211,2.6748-5.96814,6.804-10.39826,6.16874-1.00306-2.00609-2.03953-4.01217-3.076-5.98485-5.23257,2.79181.43464,6.804,1.72189,10.18093-1.12006.31763-3.34349.9529-4.46355,1.27051a35.123,35.123,0,0,0,1.78877,7.10492c-.9529,2.62465-2.64136,5.266-1.10335,8.07453a47.28112,47.28112,0,0,0,6.48638-6.70369c-.43465-2.35716-2.08968-4.2128-3.10945-6.3359a54.00224,54.00224,0,0,0,5.383,2.70822,55.69071,55.69071,0,0,0,5.60036-6.921c.08356-1.772-.16719-3.52738-.25075-5.28272q1.981-.12534,3.962-.2006a51.52063,51.52063,0,0,0,.05015-5.56691,4.76435,4.76435,0,0,0,6.65449-1.05648q.134-.18453.24983-.38122c-1.80546-2.65807-3.51067-5.383-5.51674-7.89064-2.959.05015-5.01523,2.60791-7.50614,3.845q-1.88072-2.20672-3.91188-4.21281c-2.87541,1.58815-5.73408,3.962-5.81767,7.52285m51.50647-5.81766c-.25075.71884-.75231,2.13983-1.00306,2.85869,2.4742,2.44076,4.3967,6.269,8.25843,6.5198,1.538-4.22951-3.14289-9.0943-7.25537-9.37849m10.24781-.21734c-2.37391,3.12616-.61854,7.08821,1.50456,9.79643,3.32675,4.2964,6.41949,9.04415,11.06694,12.03656.18387-2.59121-1.06994-5.39973-.06688-7.87393,2.32375-2.65807,4.98182-4.99853,7.339-7.63989a36.26219,36.26219,0,0,0-4.17936-3.99547c-3.66113-.886-7.038,1.7219-10.66574,1.85564a24.59079,24.59079,0,0,1-4.9985-4.17936m-40.13862,3.12615c2.45746,1.95594,4.8982,4.2964,8.09124,4.96509-.55166-3.076-3.25993-5.39973-5.18242-7.74019-.73558.68542-2.19,2.073-2.90882,2.7751m-42.88026,4.64745a8.16433,8.16433,0,0,0,6.65354,1.20366c.06686-1.70519.16718-5.13227.21733-6.85417-3.94531-1.20365-8.04109,1.304-6.87087,5.65051m98.73327,6.67027c-.90276,2.70822.03342,3.6444,2.7751,2.77511.91944-2.725-.01673-3.64439-2.7751-2.77511m-83.15262,39.01853c-.70213,43.84987.21734,87.78334-.68542,131.63321-.81916,3.44379-3.71127,12.421,3.14289,9.228.91947-23.53817.3845-47.2268.73557-70.83184.33435-11.13383-.93617-22.38466,1.05321-33.4349.535-8.76-.2006-17.55333.33434-26.31328,3.0593-7.08821,6.25234-14.10953,9.34505-21.19774,3.52736-8.17484,9.89676-14.66122,14.611-22.03359-1.06994.18389-3.20977.535-4.27966.71884-10.33138,8.67636-19.39226,19.49255-24.257,32.23124m33.93644-15.46364a15.62338,15.62338,0,0,1-5.63378,6.804c1.77205,2.8587,5.13227,6.4195,2.50762,9.82987-3.87846-.98632-6.70371-4.1125-10.114-6.01829-4.32981,2.725-8.02438,7.62315-7.55629,12.956.16718,5.8511-3.79487,10.9332-3.31,16.83448.55168,19.69316-.40123,39.38632-.01671,59.07947.70213.13375,2.10639.3845,2.80852.51824.05015-6.63683-.28419-13.25693-.03344-19.877,6.46964-3.49394,14.3937-1.6383,21.3649-.83587,4.07906-.61854,8.17486-1.85564,12.32075-1.28725,9.89676,2.17327,20.12783,1.83893,30.19172,1.58815a21.02371,21.02371,0,0,0,.38452-5.01524c-15.93173-.3009-31.88019.86932-47.79519-.13374-5.78422-1.88908-11.88611-1.38755-17.85423-1.538-.15045-7.50615.05015-15.01227-.117-22.51841.3009-4.27967-.61854-9.1946,2.47417-12.68854,6.269-1.60489,10.06392,3.32678,13.39067,7.69,4.3967.83587,8.92712.08359,13.374.75228-3.15963,3.10944-6.93774,6.46964-5.24931,11.38458,6.95447,3.2599,14.94541,1.35411,22.368,1.87234,3.04259.71884,3.91188-3.1763,4.06233-5.383a3.49431,3.49431,0,0,1-.05015,4.02891l1.78878.1839a26.59219,26.59219,0,0,0-.81914-6.30249c-3.09274-2.9757-7.6733-1.80549-11.48488-2.55777l-.117-2.8754c3.04259-.31764,6.1186-.13374,9.16119-.58512,5.149-2.45747,10.26454-6.45294,16.34966-4.7979.61854,3.49394.51824,7.07147,1.22039,10.54871.63528-4.3967.85261-8.8937,2.39059-13.12321,1.52129-1.45441,3.22645-2.74167,4.71433-4.24623.1003-.78572.3009-2.37387.4012-3.1763-2.20671-.90273-4.51373-1.538-6.77054-2.25687,1.63833-1.25381,3.25992-2.50762,4.88152-3.79487-1.2204-2.02282-3.02586-3.56082-4.43012-5.44988-1.06994-8.57606-8.04109-14.72807-12.62166-21.63239-3.59424-.66868-7.28878.33435-10.86634-.35107-2.19-1.06992-4.21278-2.44076-6.40276-3.46053-4.98182,1.90579-9.93017,3.91188-14.912,5.8344m-10.71589,51.13868c-.05015,2.19-.05015,4.3967.1003,6.60339a45.00244,45.00244,0,0,0,5.1991.35108c.21733-3.52738-2.52435-5.51676-5.29946-6.95447m1.5213,11.90282a39.89545,39.89545,0,0,0-.05015,4.8982c3.24319,1.95594,7.13833,1.22037,10.73263,1.37085,8.67636-.16719,17.38614.68542,26.04576,0a35.28048,35.28048,0,0,0,.26749-4.7812c-.55165-.28419-1.6216-.86931-2.17325-1.17021-11.58518-.58512-23.23725-.73558-34.82243-.31764m52.05817,19.35881a31.47758,31.47758,0,0,0-.36778,6.98789,43.80412,43.80412,0,0,0,10.21433-4.48027,7.15062,7.15062,0,0,0-.90275-5.33287,16.107,16.107,0,0,0-8.94385,2.82525m-59.046,10.532c.1003,2.67481,1.57144,5.04868,2.24013,7.62316a54.12863,54.12863,0,0,0-3.845,5.29943,58.53088,58.53088,0,0,0,8.20825,8.32528,47.84889,47.84889,0,0,1-1.68848-13.32381c2.1231.80243,4.14595,1.80549,6.269,2.62465-.96958-4.43011-5.6505-6.921-5.98482-11.51832,2.62465,1.90579,4.94835,4.2128,7.573,6.16874a62.37668,62.37668,0,0,0,5.41644-4.46355c2.27355,1.47114,4.16263,3.44379,6.35261,5.03194.43467-2.19,3.29334-2.20672,4.04565-4.16265,4.02891-1.05321,3.91188,5.34957,6.05171,7.55629a5.10751,5.10751,0,0,0,2.17325-6.28575c-2.842-2.25687-5.71739-4.46356-8.74325-6.46965-1.772,1.3374-3.44379,2.79181-5.29945,3.97876-1.538-1.67174-2.89214-3.46052-4.41344-5.09882-2.40731-.769-4.04564,2.20671-5.60035,3.52738-1.8222-1.35411-3.57756-2.7751-5.50006-3.962-2.89214.83587-5.01523,3.24319-7.25537,5.149m36.15986-1.17022c1.77205,2.725,4.86479,3.59425,7.77361,4.58059-.18387-1.37084-.55166-4.12921-.73558-5.5a58.74732,58.74732,0,0,0-7.038.91947m12.42106-.40123a26.26445,26.26445,0,0,0-4.64745,4.98179c-.16719.55168-.48482,1.63831-.652,2.19,2.79184,3.86172,1.97265,8.57606,1.97265,13.00617,1.73863.1003,3.47721.117,5.23257.08359.21733-6.90431-1.67175-14.04265,1.82219-20.39528-.93617.03344-2.79183.1003-3.728.13374m10.415,13.725a55.34415,55.34415,0,0,0-.08357,8.8101,16.57777,16.57777,0,0,0,11.9697-6.75383c-2.69148-4.06233-7.80707-2.10639-11.88608-2.05624m-19.49256,6.72042c-1.90581,1.98938,1.78878,5.66721,3.79484,3.79487,1.7219-2.22343-1.55471-5.56692-3.79484-3.79487m-41.3924,5.41646a28.51219,28.51219,0,0,0,4.71431,4.91494,5.74882,5.74882,0,0,0,2.39058-7.42256,5.35343,5.35343,0,0,0-7.10492,2.50762m41.44258,7.7569c2.541-.03344,5.0988-.06686,7.67331-.08359.73557,4.14592-3.87847,5.21583-6.30247,7.339a45.6466,45.6466,0,0,0-1.20365,6.2356c1.772-.73557,3.56082-1.47114,5.3496-2.20672a25.98593,25.98593,0,0,1,.769,6.33591c-1.88908.234-3.79484.46808-5.68392.68542-.08357,1.83893-.08357,3.69454,0,5.55021,5.032-1.23708,8.39214-5.58363,12.12015-8.86026-.117-.70213-.36779-2.10639-.48482-2.80852-1.6216-1.03647-3.22646-2.03953-4.84805-3.02585,1.13677-1.47115,2.27355-2.92556,3.41037-4.38.117-4.64745.06689-9.31163-.2006-13.95908-5.16569.38449-7.23863,5.9347-10.59886,9.17789m19.42567-7.32225c-.26748,4.86478-.21733,9.763,0,14.64448l1.538-.41794a123.31869,123.31869,0,0,0-.06688-14.494l-1.47115.26749m-59.01258,8.44232a12.516,12.516,0,0,0,.535,5.81766c3.86173.83587,5.75081-2.35716,4.8982-5.76751a36.862,36.862,0,0,0-5.43317-.05015m10.54871,13.491c-.90276,9.24475.58512,18.6901-1.57145,27.80113-.68542,4.81463,1.03648,9.56238,1.90582,14.26a127.47522,127.47522,0,0,0,15.98188-.16718c.45135-11.9697.535-23.98956-.117-35.94252-2.03953-6.035-9.02741-2.62466-13.5913-4.17937,8.09125-.33434,16.1658,1.2371,24.257.26749-.03341-1.06992-.117-3.20975-.15045-4.27967-3.845-4.12921-7.9742-10.6323-14.46058-9.52894a40.73635,40.73635,0,0,0-12.25387,11.76908m-9.77972-3.41035a3.654,3.654,0,0,0,4.66418,5.36631c.1003-1.75534.117-3.49394.06688-5.24928-1.18692-.01671-3.56082-.08359-4.731-.117m.4012,12.15359c-.96959,2.65807-.01673,3.54409,2.82525,2.65807q1.40427-4.06233-2.82525-2.65807m44.26783-.36778c.01674,1.73863.05015,5.21583.06689,6.95446,3.77816,1.06994,5.63377-1.55471,7.23863-4.48026a7.17736,7.17736,0,0,0-7.30552-2.4742m-44.552,9.26148q-1.22871,3.962,2.92556,2.80852,1.10335-4.13756-2.92556-2.80852m-52.50952,12.62166a21.67057,21.67057,0,0,0,7.6733,3.77816c2.57448-1.58818,5.16569-3.89515,4.27967-7.20522-2.80852-3.04259-7.07148-3.59424-10.98338-3.09274-1.58815,1.77205-.95291,4.36323-.96962,6.5198m128.67421-4.07907c.15045,1.35411.45135,4.04565.6018,5.383,9.57912.45136,19.39226,1.2204,28.80419-1.12009,2.90882-.4012,5.60036,1.17025,8.42561,1.63833a5.05406,5.05406,0,0,0,2.3739-6.36934c-8.84354-3.32676-18.40593-1.63833-27.61721-1.88908-4.14615,1.00285-8.62641.86913-12.58849,2.357Z" transform="translate(70.42188 -178)"/><path class="cls-1" d="M1873.30822,412.5793c7.0715,3.71128,12.605,9.61254,18.15513,15.2296,8.82682,9.07757,18.12172,17.80408,25.795,27.91814,9.997,13.50771,21.13088,26.17954,30.20845,40.35593,2.4742,4.73105,6.43623,10.38155,3.51067,15.798-7.8739,14.77822-18.27216,28.01844-27.76766,41.76019-10.63228,15.24631-25.3604,26.89837-36.979,41.2921-7.75692,6.035-14.52747,13.1399-21.63238,19.87708-8.49245,5.90126-15.915,13.17336-24.42418,19.05788-11.15056,6.65357-21.78284,14.17642-33.368,20.12783-25.32693,15.029-52.94419,25.71145-81.07964,34.22063-3.05927.5015-7.99094,4.614-8.97727-.40121,11.5685-6.31919,21.09742-15.48037,30.944-24.10658,19.12477-17.7874,37.21307-36.82855,52.27546-58.22689,9.17786-10.86635,15.78128-23.488,23.20383-35.52459a510.59891,510.59891,0,0,0,33.80269-74.89419c3.31008-16.31623,9.0943-32.03065,11.93629-48.44717C1870.44955,435.26487,1872.97385,424.04745,1873.30822,412.5793Z" transform="translate(70.42188 -178)"/><path class="cls-1" d="M1412.62538,473.53112c2.74166-5.9347,5.04867-12.13686,8.79337-17.55332l2.22342-.2842c-.38449,13.90891-3.74472,27.63395-3.56082,41.60974.05015,8.94385-.15046,17.871.03344,26.81481,2.24013,19.37552,2.89211,39.11883,8.30857,57.99285,3.1596,26.83149,12.23719,52.476,22.10048,77.50213,5.21583,11.88609,11.418,23.30413,16.7676,35.14007,10.34811,17.30257,20.81322,34.62183,33.2343,50.55356,3.32679,4.64745,10.16422,8.0745,8.19155,14.82837-14.84511-.15045-29.67348.21733-44.51859-.03342a101.574,101.574,0,0,0-20.0275-1.67174c-18.97432-3.12616-38.14924-5.66724-56.58859-11.26755a4.88166,4.88166,0,0,1-4.27966-4.07906c-3.193-16.08218-7.35567-32.03065-8.8937-48.41373-2.32372-7.82375-.48479-16.11565-2.45746-24.023-.75228-14.31014-.1003-28.68715-.31764-43.014.16719-15.59736,3.22646-30.91058,5.33287-46.30734,3.62769-15.34664,5.61707-31.07774,10.44841-46.12345,2.45747-9.69612,7.28881-18.55638,10.19766-28.102C1400.90645,495.21366,1407.15879,484.48106,1412.62538,473.53112Z" transform="translate(70.42188 -178)"/><path class="cls-1" d="M1541.97138,485.69326a134.943,134.943,0,0,1,16.6506-.08359,65.87853,65.87853,0,0,1,.1003,9.61253c-3.24319,4.9818-6.36935,10.04718-9.98032,14.84511-.05015,12.304-.117,24.6248-.0836,36.92885-.18389,2.57447.60183,5.43317-.769,7.7736-2.6748-.36778-5.66721.15045-7.6566-2.073,0-9.16116-.46808-18.40591,1.28726-27.45006C1541.77076,512.0734,1541.62031,498.8666,1541.97138,485.69326Z" transform="translate(70.42188 -178)"/><path class="cls-1" d="M1439.62408,609.41057c3.3602-.46808,4.78119,3.09274,6.55324,5.18242a244.26055,244.26055,0,0,0,36.4106,39.9547c42.74654,43.26478,97.981,72.15253,155.42216,90.77575,27.43335,6.60341,55.00041,13.62471,83.23621,15.61409-9.01073,9.37847-17.75392,19.04121-26.99867,28.18566-8.29185,5.63377-14.57762,13.59129-22.76917,19.32537-9.111,7.18848-18.03814,14.72807-28.26921,20.32842-6.06845,3.32676-11.0168,8.30858-17.102,11.60192-4.06232,1.90581-8.25842-1.00306-11.71895-2.959-14.05938-9.2949-27.85128-18.991-41.45928-28.93791-18.45606-14.31013-34.88932-30.9607-50.95479-47.84534-7.99094-7.15506-14.24328-15.915-21.13086-24.05643-6.38608-7.23864-10.7326-15.915-16.38311-23.68866a380.73387,380.73387,0,0,1-24.39076-45.55506c-8.76-17.01835-13.842-35.558-19.96064-53.61288C1439.99186,612.637,1439.74109,610.48051,1439.62408,609.41057Z" transform="translate(70.42188 -178)"/><path class="cls-1" d="M1850.15439,633.8348c6.36934-3.962,11.535-9.47882,17.26911-14.26,3.36022,1.23708,2.07294,5.43317,2.50761,8.14139.40121,16.70072.1003,33.41817-.36778,50.11884a410.42619,410.42619,0,0,1-7.67331,48.88182c-1.47114,5.88452-3.31007,13.13989-9.56238,15.61409-21.44847,5.55021-43.38171,8.6931-65.315,11.46815-15.61409.43467-31.22819.66869-46.84228.33437-14.34355-1.304-28.90449,1.38752-43.06418-1.97265a388.8715,388.8715,0,0,1-109.19831-32.34828c-7.87393-4.64745-16.6673-7.48944-24.52449-12.1703l-.1839-2.34044c8.94385-.41793,17.48647,3.05928,26.39687,3.32676,18.42262.38452,36.84528.351,55.28453,0a558.35733,558.35733,0,0,0,57.79224-8.8937c18.43935-2.7751,35.60816-10.2478,53.27852-15.83143a219.48594,219.48594,0,0,0,29.25554-12.605C1808.69528,662.30462,1829.07376,647.20876,1850.15439,633.8348Z" transform="translate(70.42188 -178)"/></g><path d="M700.47266,741.03418a155.5679,155.5679,0,0,1,12.5122-14.77051,121.18065,121.18065,0,0,1,12.085-10.98633,83.53616,83.53616,0,0,1,11.53565-7.69043,76.64019,76.64019,0,0,1,10.74219-4.88281,25.42777,25.42777,0,0,1,4.5166,9.64356,33.72558,33.72558,0,0,1,.73242,9.82617,36.38339,36.38339,0,0,1-1.89209,9.2168,67.82408,67.82408,0,0,1-3.35693,8.05664,78.24686,78.24686,0,0,0-20.32471,6.22558,75.26307,75.26307,0,0,0-20.38574,14.34278A195.46121,195.46121,0,0,0,685.15283,784.918a230.17092,230.17092,0,0,1-21.48437,25.39062,134.14168,134.14168,0,0,1-23.98682,18.79883,203.51873,203.51873,0,0,1-23.01025,12.75684q-9.21534,4.14843-11.77979,5.00488-4.27148,1.708-5.127.48828-.60937-.48926,2.19726-2.19726,3.66212-2.44336,14.4043-9.33789a205.87917,205.87917,0,0,0,19.165-13.79493,172.87843,172.87843,0,0,0,18.85986-18.61523q10.437-11.71875,26.18409-34.17969Q696.32226,746.77345,700.47266,741.03418Z" transform="translate(70.42188 -178)"/><path d="M1030.18457,614.20313q4.76075-8.05665,9.52148-16.60157,4.76074-8.54589,9.64356-17.21191,9.6416-16.96875,17.21191-22.82715a27.62514,27.62514,0,0,1,9.15528-4.334,22.30577,22.30577,0,0,1,8.72851-.54883,16.53415,16.53415,0,0,1,7.20117,2.80761,12.25246,12.25246,0,0,1,4.45606,5.61524,1.56851,1.56851,0,0,0,.79394,1.09863,3.10514,3.10514,0,0,0,1.28125.24414h1.58692a4.31523,4.31523,0,0,1,1.709.36621,18.01138,18.01138,0,0,1,5.61524-4.15039,19.45264,19.45264,0,0,1,6.77441-1.8916,17.30127,17.30127,0,0,1,6.65332.6709,11.00553,11.00553,0,0,1,5.18848,3.2959,10.61011,10.61011,0,0,1,2.37988,6.10351,20.6124,20.6124,0,0,1-1.709,9.15528,55.41154,55.41154,0,0,1-5.18848,10.19238,68.17089,68.17089,0,0,1-5.67578,7.50781,43.31035,43.31035,0,0,1-5.43164,5.249q-2.62792,2.07421-4.45606,3.29589a10.65924,10.65924,0,0,1-2.74707,1.46485,16.84736,16.84736,0,0,1-3.1123.73242q-6.5918,1.21875-13.916,3.05176-7.32422,1.83105-14.52636,3.90625-.73243.24317-2.19727.73242-1.46484.48633-3.35742,1.28223-1.89258.791-4.08887,1.76953-2.19726.97558-4.39453,2.19726-2.9297,1.83107-7.32422,4.76075t-9.52148,6.46972q-5.127,3.53907-10.80371,7.44629-5.67481,3.90528-11.10743,7.69043-5.43456,3.78223-10.4375,7.14063-5.00684,3.35742-8.91113,5.79882a624.07261,624.07261,0,0,1-62.31689,33.752,557.58741,557.58741,0,0,1-66.10108,26.123,493.73362,493.73362,0,0,1-68.90869,16.90723,419.71128,419.71128,0,0,1-70.61767,5.98145,51.81234,51.81234,0,0,1,3.418-19.71485q3.66211-9.70312,12.69532-19.59179a395.40445,395.40445,0,0,0,48.76709-2.80762q24.59619-2.92969,49.19433-8.36231,24.59619-5.43164,48.82813-13.12207,24.23-7.69043,47.60742-17.27246,23.37451-9.58593,45.59326-20.81347Q1009.55372,626.53027,1030.18457,614.20313Zm10.13184-6.5918q4.27148-2.44336,9.88769-5.3711,5.61329-2.92968,12.3291-6.22558,13.66992-6.59179,17.94434-11.1084,6.59179-8.42285.97656-13.06152-5.49316-4.51758-12.93945-1.95313-7.44727,1.95117-15.38086,15.50293-4.02833,6.59179-7.20215,12.14649Q1042.75586,603.09278,1040.31641,607.61133Zm32.34863-3.2959q5.24707-1.95409,11.04785-4.45605,5.79492-2.502,12.38965-5.67579,6.59179-3.05272,10.80371-5.31054a41.46254,41.46254,0,0,0,6.16406-3.84473q10.49707-8.669,1.46485-12.085-8.5459-3.41895-17.45606,2.68555a33.11679,33.11679,0,0,0-6.77441,5.61523,74.56946,74.56946,0,0,0-6.65332,8.17871q-3.29591,4.6377-5.98145,8.42285Q1074.98341,601.62794,1072.665,604.31543Z" transform="translate(70.42188 -178)"/><path d="M1101.47363,562.81152a18.63143,18.63143,0,0,1-6.042,1.52637,8.13647,8.13647,0,0,1-5.31055-1.52637,167.37614,167.37614,0,0,1,21.36231-31.98242q12.45117-14.64843,19.043-12.45117,8.05663,4.15137,11.53613-.48828a37.70551,37.70551,0,0,0,5.67578-12.69531,2.07027,2.07027,0,0,1,1.58692-1.52588,2.24439,2.24439,0,0,1,2.07519.91552q6.22558,6.8379,10.98633-7.69043,1.708-4.51464,3.54-4.5166c.56836,0,.916.54932,1.03711,1.64795a13.89193,13.89193,0,0,1,.06152,2.86865,47.69661,47.69661,0,0,1-6.10351,18.18848q-5.25,9.27832-10.376,11.1084a17.79539,17.79539,0,0,0-8.36231,4.57764q-2.99121,3.11279-4.94336,5.249a7.45145,7.45145,0,0,1-4.5166,2.50244,25.05263,25.05263,0,0,1-6.46972-.12207,9.31683,9.31683,0,0,0-7.08008,1.95313q-2.92969,1.83105-9.52149,10.07129Q1103.06055,558.66015,1101.47363,562.81152ZM1167.208,413.6416c.123.32617.26367.69238.42773,1.09863l.36621,1.09864a1.68638,1.68638,0,0,0,.12207.73242,1.97828,1.97828,0,0,0,.06055.48828,2.003,2.003,0,0,1,.06152.48828.82219.82219,0,0,0,.06153.36621.86523.86523,0,0,1,.06054.36621,17.65108,17.65108,0,0,1-.48828,4.27246.85318.85318,0,0,1-.06054.36622.83341.83341,0,0,0-.06153.36621l-.48828,1.46484-.36621.73242a2.171,2.171,0,0,0-.18359.61035,1.09671,1.09671,0,0,1-.30469.61036l-.73242,1.46484-1.46485,2.31933-2.07519,3.05176a20.038,20.038,0,0,1-1.34278,1.89209q-.73242.91553-1.46484,1.89209-.97851,1.09863-1.95312,2.19727a25.06865,25.06865,0,0,1-2.0752,2.07519l-1.2207,1.22071-.61035.48828a8.80448,8.80448,0,0,1-2.502,1.58691,2.71958,2.71958,0,0,1-1.7705.12207,2.85483,2.85483,0,0,1-.793-.30517,2.72608,2.72608,0,0,1-.54981-.42725l-2.92969-2.31934-1.2207-1.09863-7.20215-5.85937-.85449-.61036q-2.56347-1.95117-5.00488-3.54a1.63751,1.63751,0,0,1-.73242-1.15967,3.236,3.236,0,0,1,.61035-1.52588l18.67676-28.44238q.85253-1.34181,1.95312-1.09864l.24414.12207a2.18591,2.18591,0,0,1,.61035.24414.69463.69463,0,0,0,.48828.24414q1.585.97852,3.17383,2.01416,1.585,1.03858,3.17383,2.13624l1.34277,1.09863q1.3418,1.09863,2.44141,2.19726a20.64163,20.64163,0,0,1,2.07519,2.44141l.73243.97656,1.09863,1.95313.24414.48828C1166.94336,412.95117,1167.08691,413.31738,1167.208,413.6416Zm21.30176-44.18945a12.71457,12.71457,0,0,1-.06153,7.08008,27.65614,27.65614,0,0,1-3.60058,7.56836q-2.07715,3.17577-4.21192,5.92041a46.94776,46.94776,0,0,1-4.69922,5.188,13.80015,13.80015,0,0,1-2.80761,2.44141,7.2101,7.2101,0,0,1-2.0752.91553,2.48843,2.48843,0,0,1-1.46484-.061,4.6995,4.6995,0,0,1-1.09864-.61035q-4.2744-3.416-8.3623-6.897a76.07484,76.07484,0,0,0-8.97168-6.53076,2.62839,2.62839,0,0,1-.61035-1.28174,3.2742,3.2742,0,0,1,.61035-1.40381l18.55469-28.56445q.85254-1.09863,1.64746-1.0376a4.04365,4.04365,0,0,1,1.77051.67139q2.44043,1.46484,4.94433,3.11279a29.223,29.223,0,0,1,8.23926,8.17871A15.029,15.029,0,0,1,1188.50977,369.45215Zm16.8457,44.06738a12.71465,12.71465,0,0,1-.06152,7.08008,27.65635,27.65635,0,0,1-3.60059,7.56836q-2.07715,3.17578-4.21191,5.92041a46.94975,46.94975,0,0,1-4.69922,5.188,13.80064,13.80064,0,0,1-2.80762,2.4414,7.21,7.21,0,0,1-2.0752.91553,2.48852,2.48852,0,0,1-1.46484-.061,4.69966,4.69966,0,0,1-1.09863-.61036q-4.27441-3.416-8.36231-6.897a76.07711,76.07711,0,0,0-8.97168-6.53076,2.62839,2.62839,0,0,1-.61035-1.28174,3.27425,3.27425,0,0,1,.61035-1.40381l18.55469-28.56445q.85254-1.09863,1.64746-1.0376a4.0436,4.0436,0,0,1,1.77051.67139q2.44043,1.46484,4.94434,3.11279a29.22348,29.22348,0,0,1,8.23925,8.17871A15.02893,15.02893,0,0,1,1205.35547,413.51953Z" transform="translate(70.42188 -178)"/><path d="M354.749,402.84082a73.72468,73.72468,0,0,1,2.68555,19.043,123.26854,123.26854,0,0,1-1.2207,19.165,154.04094,154.04094,0,0,1-3.47949,17.334q-2.13721,8.05665-3.84473,13.48877-1.71095,5.43311-2.50293,7.69043-.79541,2.26026.5498-.1831-34.54687,61.28026-110.96191,101.5625Q157.48242,622.2002,70.3252,622.2002q-56.88282,0-95.33692-16.23438-31.37109-13.18359-42.48047-32.59277-2.92968-5.127-2.92969-8.54492,0-4.39453,5.127-4.39454a22.99652,22.99652,0,0,1,7.20215,1.46485A419.382,419.382,0,0,0,76.42871,584.2373q71.28808,0,133.91113-22.94921,49.07227-17.82423,87.40235-47.97364,28.93066-22.582,40.77148-41.99218,10.13087-16.72266,10.13184-25.39063,0-8.2998-5.61524-19.043,1.83107-6.22559,8.05664-18.9209Q353.40431,402.84082,354.749,402.84082Zm-55.542,13.30566a14.90056,14.90056,0,0,1-.42773,6.897,33.5528,33.5528,0,0,1-3.72266,7.9956q-1.71093,2.68653-3.17383,4.63867-1.46484,1.95411-2.86914,3.54a33.17161,33.17161,0,0,1-2.92969,2.92969q-1.52783,1.34473-3.35644,2.80762a2.55822,2.55822,0,0,1-1.09863.73242,3.311,3.311,0,0,1-.73243.12207q-1.95409,0-2.4414-1.09863a39.49277,39.49277,0,0,0-3.2959-3.418q-2.19726-2.07422-5.37109-4.63867l-10.13184-8.17871q-1.09863-.97559-.67187-1.89209.42626-.91554.67187-1.40381,3.90528-6.958,8.36133-14.34326,4.45458-7.38429,8.24023-13.61084a10.1485,10.1485,0,0,1,.97657-1.52588,1.00814,1.00814,0,0,1,.73242-.42725,1.693,1.693,0,0,1,.85449.30518q.48633.30615,1.46484.79345,2.31738,1.71095,5.30957,3.84522a76.88331,76.88331,0,0,1,6.165,4.94385Q297.86328,410.5332,299.207,416.14648Z" transform="translate(70.42188 -178)"/><path d="M388.80664,467.78223q-.85546,12.085-5.49316,20.75195-4.51758,8.54591-10.25391,8.54492,0-4.6377,2.92969-28.80859,1.585-12.20508,2.68554-20.752,1.09865-8.543,1.83106-13.79394.85254-5.24707,1.709-10.80322.85254-5.55322,1.83106-11.41358.97558-5.85937,1.8916-10.62011.91553-4.76075,1.89258-8.30079,2.07422-5.97948,4.45508-12.085,2.38036-6.10254,4.94433-12.085,1.585-2.68359,2.19727.85449-1.5879,10.25391-2.92969,20.69092-1.34472,10.437-2.68555,21.42334-1.34472,10.98633-2.19726,18.7378-.85547,7.75341-1.34278,12.39013-.48925,4.64063-.67187,7.38526-.18311,2.74658-.18262,3.60107-.24609,5.127-.42773,8.667Q388.80616,465.709,388.80664,467.78223Z" transform="translate(70.42188 -178)"/><path d="M393.56738,492.5625q5.00391,6.10546,10.98633,6.10352,1.09863-.36621,3.66211-8.05664,1.34179-3.90528,2.44141-6.77491,1.09863-2.8667,2.07519-4.94384a12.21868,12.21868,0,0,1,7.751,5.188,14.07662,14.07662,0,0,1,1.89258,4.02832,19.38836,19.38836,0,0,1,.73242,4.08936,67.84754,67.84754,0,0,1-5.73731,27.09961Q409.06837,536.874,395.1543,536.874q-8.05665,0-15.01465-9.27734-7.07812-9.27539-7.08008-30.51758,1.22167-4.27147,2.56348-8.48389a63.9677,63.9677,0,0,1,3.17383-8.05664,40.967,40.967,0,0,1,4.27246-7.08007,25.68934,25.68934,0,0,1,5.7373-5.5542V474.374Q388.80664,486.582,393.56738,492.5625Z" transform="translate(70.42188 -178)"/><path d="M540.2959,396.37109q-.36621,4.15137-1.2207,32.71485-1.09865,31.74022-4.02832,52.6123-1.34474,12.81738-9.52149,30.15137-7.93652,17.21191-21.97266,24.6582a48.05231,48.05231,0,0,1-4.76074,2.86865q-2.44335,1.28175-5.249,2.62452-4.27442,2.19726-7.69043,4.39453a39.90082,39.90082,0,0,0-5.98145,4.63867,40.314,40.314,0,0,0-5.79882,8.23926,87.53719,87.53719,0,0,0-5.06543,11.41406,52.79687,52.79687,0,0,1-5.55469,11.96289,45.49919,45.49919,0,0,1-7.50684,8.91113,23.01407,23.01407,0,0,1-7.08008,4.69922,38.905,38.905,0,0,1-11.23046,2.99121l-22.583,2.56348a32.141,32.141,0,0,1-4.15039,0,2.43808,2.43808,0,0,1-2.01465-1.16016,2.779,2.779,0,0,1,.12207-2.25781,9.78,9.78,0,0,1,2.07519-2.92969,22.327,22.327,0,0,1,3.72364-3.05175q7.08105-4.76074,11.71875-7.50782,4.63768-2.74658,8.30078-4.76074,3.6621-2.01415,7.20215-4.02832,3.53906-2.01415,8.54492-5.43164a47.94973,47.94973,0,0,0,8.05664-6.34766,34.19159,34.19159,0,0,0,5.37109-6.83593q2.19727-3.542,4.15039-7.44629,1.95119-3.90821,4.02832-7.8125,2.07423-3.78516,4.69922-7.69043a89.98879,89.98879,0,0,1,5.9209-7.8125,54.51949,54.51949,0,0,1,7.99512-7.14112,65.85963,65.85963,0,0,1,11.6582-6.7749q7.93359-4.39454,9.52149-5.61523,6.5918-4.27149,6.958-7.8125,2.3174-8.05665,2.92969-28.32031.48633-20.01856.48828-28.56446,0-17.57812,2.92969-26.97754,3.17285-9.15527,7.56836-19.40918,5.9795-12.57129,7.8125-16.23535,2.07422-1.34179,1.46484,2.92969Q540.2959,393.56446,540.2959,396.37109ZM558.60645,351.083q9.03222-8.543,42.29785-35.70557,33.2622-27.15966,47.668-40.22217,14.40234-13.06054,28.56445-26.79443,14.15918-13.73291,14.77051-14.95361,3.29589-2.80665,2.01465,2.74658-1.2832,5.55615-14.95411,27.64892-25.02538,26.001-50.96386,48.15674-25.94092,22.15576-68.543,54.13819a45.862,45.862,0,0,1-5.31055,4.57763q-2.74512,2.01417-5.1875,4.08936-5.25,4.15137-5.98144,2.4414a97.26371,97.26371,0,0,1,6.83593-14.89257A47.2639,47.2639,0,0,1,558.60645,351.083Z" transform="translate(70.42188 -178)"/><path d="M694.85352,500.88672q-4.76074,8.05663-8.667,8.05664a21.15381,21.15381,0,0,1-2.86914-.36621,22.4413,22.4413,0,0,0-3.72265-.36621q-8.78907,0-20.752,6.83594a83.4209,83.4209,0,0,0-11.10839,7.56835,79.53934,79.53934,0,0,0-9.64356,9.27735,8.1412,8.1412,0,0,0-2.31934,5.249q0,9.03516,22.70508,10.98633,13.793,1.34472,13.79395,15.01465,0,18.67676-17.94434,42.96875-41.87109,56.8828-121.21582,92.5293-76.292,34.30077-151.7334,34.30175-41.01562,0-75.80566-9.88769-34.54395-9.64454-54.07715-26.61133-16.96582-14.77149-16.96777-25.14648,0-4.27441,3.54-4.27247a6.6293,6.6293,0,0,1,3.17382.8545q61.15724,29.54,155.76172,29.541A348.87205,348.87205,0,0,0,521.63574,674.4707a354.762,354.762,0,0,0,88.86719-49.07226q31.86034-24.16992,46.02051-45.166,2.56347-3.78222,2.56347-6.10351,0-4.02833-12.3291-5.85938-14.64843-2.19726-19.40918-7.32422-3.78514-3.90526-3.78418-10.86426,0-12.9375,12.45118-28.93066,13.793-17.82129,37.71972-31.98242,9.2754-5.37012,16.11328-5.37109,8.29982,0,8.30078,7.20214Q698.14941,495.27344,694.85352,500.88672Z" transform="translate(70.42188 -178)"/><path d="M770.78125,536.65332q-5.25,32.22657-13.67187,64.209-8.42286,31.9834-44.61719,38.208-36.1919,6.22559-14.64844-6.77539Q719.3872,619.29444,729.46,610.75q10.0708-8.543,15.07617-15.07617,5.00391-6.52881,8.84961-17.82227,3.84522-11.28954,7.50781-23.62011,3.66212-12.32812,5.30958-16.72364,1.64794-4.39452,3.35742-4.27246Q771.51172,533.60156,770.78125,536.65332Z" transform="translate(70.42188 -178)"/><path d="M823.75977,490.14453a159.78713,159.78713,0,0,1,1.2207,20.26367q0,18.31054-4.88281,54.56543a244.796,244.796,0,0,1-10.00977,41.50391q-7.32422,22.21875-15.01465,35.7666l-3.05176,5.37109a127.95557,127.95557,0,0,1-29.05273,25.5127q-19.77538,12.45117-38.208,12.45117-21.97266,0-36.86523-23.31543,9.52148,9.52149,30.39551,9.52149,35.88867,0,66.89453-34.17969Q768.46,620.63965,768.46191,590.24219q0-25.38867,11.23047-53.71094,10.62012-26.73341,26.61133-45.04395,7.20117-8.17675,12.207-8.17871Q822.90528,483.30859,823.75977,490.14453Zm-13.06153,29.78516q0-18.55371-2.19726-18.55469-1.5879,0-5.3711,4.02832-11.96484,12.45117-20.1416,36.13281a146.34089,146.34089,0,0,0-8.54492,48.33985q0,28.93066,12.93945,45.65429,9.8877-13.06054,13.79395-22.70507,5.127-12.8174,6.958-34.668Q810.69824,547.88477,810.69824,519.92969Z" transform="translate(70.42188 -178)"/><path d="M881.377,577.18066q-.97851,9.15528-6.34765,22.33887a100.5137,100.5137,0,0,1-13.1836,23.68164q-10.74316,13.916-25.51269,18.9209a25.04346,25.04346,0,0,1-7.32422,1.46484q-4.02832,0-4.02832-2.68554,0-3.66212,5.98144-8.91114,9.39845-7.81055,18.79883-15.625,11.83887-9.88768,13.916-13.5498a9.51161,9.51161,0,0,0,.97656-4.5166q0-5.97949-4.15039-12.69531a34.48137,34.48137,0,0,0-12.69531-11.96289q15.86718-34.42383,17.82226-33.44727,16.11329,8.66895,16.11328,29.66309Q881.74316,573.27539,881.377,577.18066Z" transform="translate(70.42188 -178)"/></svg>