<?xml version="1.0" encoding="utf-8"?>
<!-- Generator: Adobe Illustrator 24.1.1, SVG Export Plug-In . SVG Version: 6.00 Build 0)  -->
<svg version="1.1" id="Layer_1" xmlns="http://www.w3.org/2000/svg" xmlns:xlink="http://www.w3.org/1999/xlink" x="0px" y="0px"
	 viewBox="0 0 460 460" style="enable-background:new 0 0 460 460;" xml:space="preserve">
<style type="text/css">
	.st0{fill:#325EE0;}
	.st1{fill:#FFFFFF;}
</style>
<circle class="st0" cx="230" cy="230" r="230"/>
<g id="_020202ff">
	<path class="st1" d="M226.5,31.7h2.4c0.9,1.5,1.6,3.3,3.3,4.2c6.4,3.8,12.9,7.5,18.8,12.2c6.8,4.5,12.4,10.3,18.8,15.2
		c13.3,11.8,24.6,25.6,35.3,39.7c7.6,11.1,14.2,22.8,19.7,35.1c4.7,11.6,10.5,23.1,12.3,35.5c-2.4-1.2-3.3-3.9-4.7-5.9
		c-4.8-7.1-11-12.9-16.9-19c-16-15.5-33.7-29.3-53.5-39.7c-9.3-4.1-18.1-9.2-27.8-12.3c-8.3-3.6-17-6.3-25.8-8.2
		c-10.7-2.7-21.4-5.2-32.4-6.2c-2.1-0.3-4.4,0.2-6-1.6c3.1-4.4,7.1-7.9,10.9-11.7c11.4-11.5,24-21.6,37.7-30.4
		C221.6,36.8,224.8,35,226.5,31.7z"/>
	<path class="st1" d="M295.1,83.4c8.5-0.4,17-0.2,25.5-0.3c4.7-0.2,9.3,1.4,14,1.2c10.5,1,21,2.7,31.4,4.7c2.1,0.2,5.1,0.4,5.8,3
		c0.6,7.4,3,14.5,4.2,21.8c0.8,9.3,3.2,18.5,3,27.9c-0.1,4.9,0.3,9.7-0.3,14.5c-1,5-0.1,10.2-0.8,15.2c-1.2,5.3-1.3,10.7-2.3,16
		c-2.3,10.5-3.5,21.3-7.3,31.4c-1.7,4.6-3.7,9.2-5.1,13.9c-2.1,8.1-6.5,15.3-10.1,22.8c-1.6,3.8-3.6,7.4-5.8,10.9h-1.4
		c0-5.2,2.1-10.1,2.2-15.3c-0.1-6.2,1.3-12.2,0.9-18.4c0.5-7.4-1-14.6-1-22c0.1-4.8-1.7-9.3-1.9-14c-0.1-4.4-1.8-8.6-2.1-13
		c-2.2-11.9-7.1-23-10.5-34.6c-5.4-12.7-11.6-25-18.5-36.9c-6.3-8.9-11.8-18.5-19.4-26.5C295.1,85,294.9,84.2,295.1,83.4z"/>
	<path class="st1" d="M112.3,86.6c8.8-0.7,17.4-2.6,26.2-2.5c7.7,0,15.5-0.3,23.2,0.3c4.9,0.9,10,0.1,14.9,1.5
		c5.1,0.2,10.1,0.9,15,2.2c10.3,1.4,20.4,4,30.2,7.6c6.4,2.3,13,3.6,19.1,6.8c6.2,3.2,13,5.2,19,8.8c1.4,1.1,3.7,1.8,3.7,3.9
		c-7.1,0.3-14-1.2-21-1.9c-8.4-0.1-16.7,0-25,0.1c-6.3,0.8-12.6,1.7-19,2.2c-3.6,0.9-7.3,1.5-11,1.8c-10.4,2-20.6,4.7-30.6,8.2
		c-4.6,1-9,2.6-13.3,4.6c-9.8,4.6-20,8.5-29.2,14.3c-12.4,6-22.7,15.6-34.2,23H79c-0.4-8.6-0.2-17.2-0.3-25.8
		c-0.3-14.3,1.7-28.6,4.9-42.6c0.9-2.7,1-6.9,4.5-7.6C96,89.4,104.2,88.5,112.3,86.6z"/>
	<path class="st1" d="M167.2,125.5c1.8-0.4,4.3-2,5.8,0c-5.8,3.7-11,8.1-16.4,12.2c-4.6,4.8-10.1,8.6-14.5,13.6
		c-5.2,4.8-9.6,10.4-14.2,15.7c-3.6,5.3-8.4,9.8-11.2,15.6c-5,8.5-11.1,16.4-14.8,25.7c-5.5,11-10.1,22.5-13.8,34.3
		c-2.6,10.6-6.1,21-7.3,31.8c-1,4.6-1.6,9.3-1.8,14.1c-1.4,0-3.2,0.3-4.3-0.9c-3.8-3.2-6.8-7.2-10.5-10.5
		c-6.8-5.9-11.9-13.4-17.9-20.1c-4.2-4.7-6.7-10.6-10.7-15.4c-2.6-2.9-4.9-6.7-3.4-10.7c2.5-4.5,5.5-8.6,8-13.2
		c2.1-4.1,5.5-7.3,8.1-11c3.5-5.1,8.2-9.2,11.8-14.2c12.2-14,26.6-25.8,41.6-36.6c12.7-8,25.6-16,39.8-21.1
		C149.8,131.1,158.4,128,167.2,125.5z"/>
	<path class="st1" d="M223.4,133.1c2.3,4.6,7.2,6.6,10.6,10.3c-1.4,6.4-1,13.1-1,19.6c0.3,0.2,0.8,0.7,1,0.9
		c6.1,0.5,12.4-0.6,18.4,0.9c8.1,0.3,16.2-0.3,24.2,0.5l1.6,1c0.7,5.9-3,11.7-0.7,17.6c1,1.9-0.4,3.7-1,5.5
		c-1.5,2.6,0.7,5.3,0.4,8.1c0.1,18.8-0.3,37.7,0,56.5c2.1,9.1,0.4,18.4,1.1,27.6c1.3,4.1,0.5,8.4,0.8,12.6c0.2,1.2,1.5,1.9,2.1,2.8
		c0.2,2.5-0.3,5.1,0.6,7.6c1.1,2.9-0.9,5.6-0.7,8.4c0,2,1.1,3.9,1.1,6c-2.2,0.2-4.5,0-6.6-0.6c-2.9-1-5.6,0.9-8.4,1.5
		c-3.4,0.6-6.6-0.7-9.9-1.1c-0.1-0.4-0.2-1.3-0.2-1.7c4.9-0.1,9.9,0,14.8,0c2.3-0.8,1-3.5,1.3-5.2l1-0.1c-0.1,1.7,0,3.4,0.2,5
		c1.4,1,2.8-0.6,4.1-1.1c-0.9-2.1-0.9-4.6,0-6.7c-4.7-0.1-9.6,0.6-14.2-0.8c-2.2-0.5-4.3,1-6.5,0.8c-4.8,0-9.6-0.4-14.4,0.1
		c-0.1,1.3-0.2,2.6-0.3,4c-8.5-0.1-16.9-0.1-25.4,0.1c-1.2,0.1-2.3,0.4-3.5,0.7c-0.1-1.6-0.1-3.2-0.1-4.8
		c-5.8-0.8-11.6,2.1-17.3,0.5c-4.5-1.7-9,1.4-13.4,0.1c-2.6-0.4-6.2-1.8-8,0.9c-0.2,2.2-0.1,4.4-0.2,6.6c-0.9,0.1-1.8,0-2.7-0.2
		c-0.3-29.5,0-59-0.1-88.4c0-2,0.3-4,0.9-6c0.4-2.7-1.1-5.3-0.9-7.9c0.2-17.1-0.3-34.1,0-51.2c1.2-2,3.6-1.2,5.5-1.3
		c4.7,0.2,9.4,0,14,0.2c6.9,1.4,14,0.2,21,0.6c3.4-0.6,3.4-4.7,3.5-7.4c-1.1-1.7-2.6-3-3.9-4.6c-0.8-1.7-0.5-3.7,0.7-5.1
		c1.3-1.7,2.5-4.9,5.2-3.8c2.6,1.1,5.5,1.4,8.3,1.1c0.4-3.1-2.5-4.6-4.4-6.5C222.3,135.3,222.8,134.2,223.4,133.1 M219.1,154.5
		c0.3,5,5.7,6.2,9.8,5.5c0.1-2.9,0-5.8-0.1-8.7c-2-1.1-4.2-1.6-6.5-1.4C220.4,150.6,219.9,152.8,219.1,154.5 M181.1,172.9
		c-0.2,12.1-0.3,24.3-0.3,36.4c0,2.7-0.9,5.3-0.8,8c-0.2,16.3-0.2,32.5-0.3,48.8c0.3,0,1,0,1.3,0c0.1-1.9-0.1-3.9,0-5.8
		c1.3-1,2.5-2.6,4.4-2.4c2.9,0.2,7.1-1.1,8.4,2.5c-0.4,2.1-0.7,4.3-0.9,6.5c-1.7,0.2-3.4,0-4.9,0.8c0,0.6-0.1,1.8-0.2,2.4
		c1.6,0,3.1,0,4.7,0c0.5,0.7,1.5,2.1,2.1,2.7c-2.4,0.2-4.8,0.2-7.1,0.1c-1.4,3.3-0.6,7.2,2,9.7c2.1,2.2,3.8,4.7,5.1,7.5
		c0.7-0.4,2.1-1.1,2.8-1.5c-0.4-1.9-1.3-3.8-1.2-5.8c0.1-16.5,0.1-32.9,0.1-49.4c1.4-10.9,0.4-22,0.7-33c0.3-4-1.3-8-0.6-12
		c1.2-5,0.4-10.2,0.8-15.2c-0.4-0.5-1.1-1.5-1.5-2.1c-0.4,0.5-1.1,1.5-1.5,2c0.2,5.4,0,10.7,0.2,16.1c-1.6-0.6-3.2-2-5-1.2
		c-0.5,8-0.6,16-0.2,24c1.6,0.1,3.3-0.1,5,0c-1.7,3.6-6.5,1.3-9.6,2c-1.7-1.4-1.2-3.6-1.3-5.5c0.2-11.9,0-23.8,0.1-35.7
		C182.6,172.7,181.6,172.9,181.1,172.9 M231.5,173.2c0.7,0.4,2,1.2,2.7,1.6c6.6,0.6,13.5-0.4,20,0.6c4.5,3.4,2.1,9.9,2.6,14.7
		c-2.5-1.1-4.1-3.4-6.1-5.1c0.5,1.3,1,2.7,1.3,4.1c-1.1,0.9-2.3,1.7-3.5,2.5c1.4,1.5,3,2.8,4.8,3.8c-0.3-2-2.3-3.8-1.2-5.8
		c1.8,1.6,5.4,3.3,4.6,6.3c-0.9,0.4-1.9,0.6-2.9,0.6c0,0.8-0.1,1.6-0.3,2.4c0.8,0.1,2.4,0.3,3.2,0.4c0.1,6.2,0.5,12.5-0.1,18.7
		c-1.1-3.2-1.4-6.7-2.9-9.8c-2.3-6.2-7.1-10.8-11.2-15.8c-2.2-2.8-5.6-4-8.8-5.3c-2.1-0.8-4.1-2.1-6.5-1.9c1.9,3.6,6.5,4.6,9.7,6.9
		c-0.7,0.3-2,1-2.7,1.3c1.8,2.1,4.1,4.3,7,4.7c2.8,0.1,4.2,2.8,5.7,4.8c1.3,2.1,3,4.2,2.9,6.8c0.1,4.3,3.8,7.5,3.9,11.8
		c0.1,8,0.2,16.1,0.2,24.1c2.5,16.7-0.1,33.7,1.9,50.4c1.7,0.1,3.3,0.1,5,0.1c0.4-5.2,1.5-10.4,0.3-15.6c-0.4-6.5-0.2-13-0.3-19.6
		c3.7-0.2,7.4-0.2,11,0.1c0.2,2.4,0.2,4.8,0.2,7.2c-2,0-4-0.1-6,0.1c-0.2,1.5-0.2,3-0.1,4.4c2.1,0.3,4.2,0.1,6.3,0.3l-0.1,1.8
		c-2,0.3-4.1,0.2-6.1,0.4c-0.3,5.1,0,10.1-0.1,15.2c-0.1,2,0.3,4.6,2.3,5.6c1.9-0.1,3.8-0.4,5.6-1.1c0-14.2,0-28.4,0-42.5
		c-0.1-3.2,0.3-6.5-1-9.6c-2-4.7-0.6-10-1-15c-2.4-1.1-6.3-2-6.9,1.6c-0.1,9.4-0.5,18.8,1,28.1c-1.5,0.3-3,0.4-4.5,0.3
		c-0.9-1.3-0.5-3-0.6-4.4c0-9.3-0.1-18.7-0.1-27.9c-0.8-2.3-1.1-4.8-0.8-7.3c4.1-2.4,8.6-0.1,12.9,0.1c0.1-1.6,0.1-3.2,0-4.8
		c-3.9,1.8-9,2.3-12.9,0.5c-0.3-3.8,0-7.6-0.3-11.4c-1.1-6.7-0.3-13.5-0.6-20.2c-0.1-2.4,0.2-4.8,0.8-7.1c-3-2.3-7-0.8-10.4-2.1
		C243.4,172.8,237.5,172.8,231.5,173.2 M270.7,183.7c-1.6,0.1-3.2,0-4.8,0.2c-0.2,1-0.2,2.1-0.1,3.2c1.7-0.5,3.4-1,5-1.7
		c0.2,1.7,0.2,3.4-0.1,5.1c-2,1.1-4.3-1.6-6.6-0.5c-0.3,5.8,0.1,11.6,0,17.4c0.1,2,0.3,4.6,2,5.8c1.6,0,4.7,0.1,4.7-2.2
		c1.8-8.8,0.8-17.8,1.1-26.6c0-3,0.5-6.2-0.5-9.1C270.3,177.9,271,180.9,270.7,183.7 M201.5,182.1c1.5-0.6,2.9-1.4,4.5-2.1
		c0.1,2.1-1.8,3.6-2.6,5.4c2.4-0.3,4.1-4.5,6.1-1.1c-1.7,1.6-3.6,4.1-6.2,3.7c-0.6-1.2-1.2-2.4-1.8-3.6c-3.1,1.7,0.3,4.1,1,6.1
		c-0.7,0.2-2,0.6-2.7,0.8c0.2,1.5,0.6,2.9,1.1,4.3c-0.6,1.6-1.6,3.1-0.7,4.8c1.4-1.2,2.7-2.5,3.9-4c-0.3-1.4-1.3-2.5-1.9-3.8
		c1,0.6,2.1,1.1,3.2,1.6c1.2-1.3,2.3-2.7,3.4-4.1c0-1.1-0.1-2.1-0.1-3.2c0.8,0,1.6-0.1,2.4-0.1c0.1-1.1,0.1-2.2,0-3.3
		c1.3,0.9,3.1,0.6,4-0.6c0.1-0.1,0.1-0.1,0.1-0.2c-1.1-1.6-2.1-3.2-3.3-4.7c-1.8,0-3,1.6-4.5,2.3c-0.8-0.9-1.5-1.7-2.3-2.5
		C203.3,178.6,201.6,180,201.5,182.1 M232.3,178.7c-0.1,0.4-0.5,1.3-0.6,1.7c1.5,1.5,2.6,3.8,4.9,3.9
		C237.6,181.7,234.8,178.8,232.3,178.7 M238.5,178.5c-1.4,1.9-0.4,4.2,0.9,5.9c2,2.6,3.8,5.4,6.6,7.2c0.1-1.6-0.6-3.2,0-4.7
		c1.4-1.6,3-3,4.4-4.6c-0.8-0.9-1.6-1.7-2.5-2.4c-2.2-0.5-4.2,1-6.4,1.1C240.3,180.3,239.3,179.5,238.5,178.5 M214.5,180.4
		c1.5,1.2,2.9,2.6,4.8,3c-0.3-1.8-2-3.2-3.1-4.6C215.8,179.1,214.9,180,214.5,180.4 M188.8,183.2c1.2,0.8,2.6,1.1,4,0.7
		c0-1,0.1-3.1,0.1-4.1C190.6,179.1,188.1,180.6,188.8,183.2 M247.9,187.2c-0.5,1.6,0,2.2,1.7,1.7
		C250.1,187.2,249.5,186.6,247.9,187.2 M198.1,210.5c-0.4,26.2,0.1,52.5-0.4,78.7c-0.5,2.1-2.2,7.4,1.9,5.5
		c0.6-14.1,0.2-28.3,0.4-42.4c0.2-6.7-0.6-13.4,0.6-20c0.3-5.2-0.1-10.5,0.2-15.7c1.8-4.2,3.7-8.4,5.6-12.7
		c2.1-4.9,5.9-8.8,8.7-13.2c-0.6,0.1-1.9,0.3-2.6,0.4C206.5,196.4,201,202.9,198.1,210.5 M218.4,201.3c-0.7,1.7-1.9,3.1-3.4,4.1
		c1.1,1.7,3.1,3.8,1.5,5.9c-2.3-0.6-4-2.5-6-3.6c-2.6,1.6-4.8,4.6-4.5,7.8c0.1,3.5-2.3,6.5-2,10.1c0.3,11.8-0.2,23.6,0,35.3
		c0.4,0.1,1.3,0.2,1.7,0.3c0-4-0.2-7.9,0-11.9c3.9-2.1,8.6-1,12.8-0.5c2.4-0.4,4.9-1.1,7.4-0.8c5.9,1.3,12,1.1,18.1,0.9
		c0.2-1,0.3-2,0.2-3c-9.5-0.2-19.1,0.5-28.6-0.1c-3.5-1.1-7.1-0.8-10.7-0.9c-0.1-4.5,0-9-0.1-13.5c0.2-2.6-0.4-5.5,1.5-7.6
		c3.7-1,6,2,8,4.6c2.6,0.5,5.3,0.1,8,0.4c-1.9,1.9-4.1,3.9-3.1,6.8c4.2,1.9,8.9,0.8,13.4,1.1c1.8,0.4,2.3-1.9,2.4-3.2
		c0.5,0.7,0.5,1.7,0,2.4l1.1,0.1c0-1.3-0.2-2.5-0.5-3.8c-1.9-1.8-4.6-1.1-6.9-1.5l-0.1-1.7c1.8-0.2,3.7-0.1,5.5-0.4
		c3.1-1.5,6.1-3.9,9.8-2.9c0.4,2.1,0.3,4.2,0.7,6.3c0.4-2.6,0.5-5.3,1.4-7.9c0.9-0.9,1.9-1.6,2.8-2.5c0.1-0.5,0.2-1.4,0.2-1.9
		c-1.3-0.5-2.7-0.9-4-1.4c1-0.8,2-1.5,2.9-2.3c-0.7-1.2-1.8-2.1-2.6-3.3c-0.6-5.1-4.8-8.8-7.5-12.9c-2.1-0.4-4.4,0.2-6.5-0.2
		c-1.3-0.6-2.5-1.5-3.8-2.1C224.4,198.9,221.4,200.1,218.4,201.3 M212,231.8c0,1.3,0,2.6,0.1,3.9c1,0.1,2.1,0.2,3.1,0.2
		C215.3,233.9,213.7,232.7,212,231.8 M212.9,239c-0.1,1-0.1,2,0,2.9c1.9,1.2,4.3,0.7,6.4,0.8c5.2-0.1,10.4,0.4,15.6,0
		c0.1-0.9,0.2-1.9,0.2-2.9c-0.3-0.2-1-0.5-1.3-0.7C226.8,238.8,219.9,238.7,212.9,239 M244.1,250.5c-0.2,1.4-0.3,2.8-0.2,4.2
		c2.1-0.6,4.2-1.5,6.1-2.7c0.2-1.1,0.1-2.2-0.5-3.2C247.5,248.9,245.6,249.5,244.1,250.5 M208.7,256.8c0.1,1.6,0.9,3,1.3,4.6
		c-0.8,1-1.6,2.1-2.3,3.2c1.5,1.8,3.1,3.5,4.9,5c-0.7-2.6-1-5.3-1-8c1.3,0.5,2.5,1.1,3.8,1.6c-0.6-2.6-3.4-4.1-3.6-6.9
		c1.6,1.1,3,2.5,4.5,3.7c1.1-0.8,2.2-1.7,3.2-2.7c1.4,0.9,2.5,2.1,3.8,3c0.3-1.3,2-1.3,2.4-2.5c2.4-0.6,2.3,3.2,3.6,4.5
		c1.3-0.8,1.9-2.4,1.3-3.8c-1.7-1.4-3.4-2.7-5.2-3.9c-1.1,0.8-2.1,1.7-3.2,2.4c-0.9-1-1.7-2.1-2.6-3.1c-1.4-0.5-2.4,1.3-3.4,2.1
		c-1.1-0.8-2.1-1.7-3.3-2.4C211.4,254.3,210.1,255.7,208.7,256.8 M230.4,256.1c1.1,1.6,2.9,2.1,4.6,2.7c-0.1-0.8-0.3-2.5-0.4-3.3
		C233.2,255.7,231.8,255.9,230.4,256.1 M237.8,255.9c-1.1,0.9-2,1.9-2.8,3c-0.1,0.3-0.3,1-0.4,1.3c1.7,2.3,1.2,5.1,1.2,7.8
		c1,0.1,2.1,0.1,3.1,0.1c0.1-4.1-1-8.4,1.1-12.2C239.5,255.8,238.4,255.9,237.8,255.9 M244,264.1c-0.2,1.8-0.2,3.5,0,5.3
		c2.9-0.2,5.5-1.7,7.2-4C249.5,262.9,246.5,264.1,244,264.1 M232.4,268.1c-1.1,1.2,1.1,3.4,2.3,2.3
		C235.7,269.1,233.7,267.1,232.4,268.1 M207.6,271.4c0.8,1.1,1.8,2.1,2.8,2.9c1.6-0.9,2.2-2.8,1.4-4.4
		C210.3,269.1,208.4,269.8,207.6,271.4 M232.4,276c1.5,0,3,0,4.6,0c0.4,2.5-2.3,3.1-3.8,4.4c-0.3,1.2-0.6,2.5-0.7,3.7
		c1.1-0.4,2.1-0.9,3.2-1.3c0.3,1.2,0.5,2.5,0.5,3.8c-1.1,0.1-2.3,0.3-3.4,0.4c0,1.1,0,2.2,0,3.3c3-0.7,5-3.3,7.3-5.3
		c-0.1-0.4-0.2-1.3-0.3-1.7c-1-0.6-1.9-1.2-2.9-1.8c0.7-0.9,1.4-1.8,2-2.6c0.1-2.8,0-5.6-0.1-8.4C235.7,270.8,234.4,274.1,232.4,276
		 M244,271.6c-0.2,2.9-0.1,5.8,0,8.8l0.9-0.3c0.2-2.9,0.1-5.8,0-8.7L244,271.6 M208.7,276.7c-0.2,1.2-0.1,2.4,0.3,3.5
		c2.3,0.5,3.4-1.4,2.9-3.4C210.9,276.6,209.8,276.6,208.7,276.7 M215,284.8c-0.5,5.5,0.4,11.2-0.9,16.6c-0.4,2.9,0.6,5.7,1.1,8.5
		c3.2,0.2,6.4,0.1,9.6-0.1c0.3-7.2,0.3-14.4-0.1-21.5c-1.2-3.6-5.4-1.6-8.1-2.5c4.8-0.2,9.7,0.7,14.5,0.2c0-0.6-0.1-1.9-0.1-2.6
		c-2.3-2.5-4.8-6.4-8.6-5.7C219.5,279.5,217,281.9,215,284.8 M209.2,282.7c-0.7,1-0.5,2.3,0.5,3c0.7,0.5,1.6,0.5,2.3,0.2
		c0.1-1,0.1-2.1,0-3.1C211.3,282.8,209.9,282.7,209.2,282.7 M209.4,290c-0.6,1.6,0,2.1,1.7,1.6C211.7,290,211.1,289.4,209.4,290
		 M235.9,289.8c0,1,0,3.1,0,4.2c2.3,0.6,3.4-0.9,4.3-2.7C239.2,289.9,237.5,289.4,235.9,289.8 M209.3,295.3
		c-0.5,1.6,0.1,2.1,1.8,1.7C211.4,295.3,210.9,294.8,209.3,295.3 M177.8,302.9c1.4,1.1,2.9,1.8,4.6,2.3c1.5-1,3.1-2.3,2.6-4.3
		c-1.7-1.8-4.2-2.1-6.6-1.9C177.5,300,177.9,301.6,177.8,302.9 M254.8,300.4c0.1,0.8,0.3,2.4,0.4,3.2c5.7,0.3,11.6,0.7,17.2-0.7
		c1.7-0.2,3.4,0.7,5,1c1.4-0.7,2-2.4,1.4-3.8c-5.3-2-11-1-16.5-1.1C259.9,299.6,257.2,299.5,254.8,300.4L254.8,300.4z"/>
	<path class="st1" d="M381.2,172c4.2,2.2,7.5,5.8,10.9,9.1c5.3,5.4,10.8,10.6,15.4,16.7c6,8.1,12.6,15.7,18.1,24.1
		c1.5,2.8,3.9,6.2,2.1,9.4c-4.7,8.8-10.9,16.8-16.6,25c-6.4,9.1-15.2,16.1-22.1,24.7c-4.6,3.6-8.7,7.9-12.9,11.9
		c-5.1,3.5-9.5,7.9-14.6,11.4c-6.7,4-13,8.5-20,12c-15.1,9-31.7,15.4-48.5,20.5c-1.8,0.3-4.8,2.8-5.4-0.2
		c6.9-3.8,12.6-9.3,18.5-14.4c11.4-10.6,22.3-22,31.3-34.8c5.5-6.5,9.4-14.1,13.9-21.3c7.9-14.4,14.7-29.3,20.2-44.8
		c2-9.8,5.4-19.2,7.1-29C379.5,185.6,381,178.9,381.2,172z"/>
	<path class="st1" d="M105.6,208.5c1.6-3.6,3-7.3,5.3-10.5l1.3-0.2c-0.2,8.3-2.2,16.5-2.1,24.9c0,5.4-0.1,10.7,0,16
		c1.3,11.6,1.7,23.4,5,34.7c1.9,16,7.3,31.4,13.2,46.4c3.1,7.1,6.8,13.9,10,21c6.2,10.4,12.4,20.7,19.9,30.2c2,2.8,6.1,4.8,4.9,8.9
		c-8.9-0.1-17.8,0.1-26.6,0c-4-0.7-8-1.1-12-1c-11.4-1.9-22.8-3.4-33.9-6.7c-1.3-0.1-2.4-1.1-2.6-2.4c-1.9-9.6-4.4-19.2-5.3-29
		c-1.4-4.7-0.3-9.6-1.5-14.4c-0.4-8.6-0.1-17.2-0.2-25.7c0.1-9.3,1.9-18.5,3.2-27.7c2.2-9.2,3.4-18.6,6.3-27.6
		c1.5-5.8,4.4-11.1,6.1-16.8C98.6,221.5,102.3,215,105.6,208.5z"/>
	<path class="st1" d="M183,215.8c3.3-0.2,6.6-0.2,10-0.1c0.2,1.9,0.2,3.8,0.1,5.8c-1.9,3-3.8,6-6,8.9c0,7.4-0.1,14.7-0.1,22.1
		c-0.1,1.5,0.4,3.3-0.5,4.6c-1.6-0.2-3.4,0.1-4.6-1.2c0-5.5-0.3-11,0.8-16.4C182.9,231.5,182.8,223.6,183,215.8z"/>
	<path class="st1" d="M121.8,289.8c2-0.3,2.9,1.9,3.9,3.1c6.4,8.7,13.7,16.8,21.8,23.9c25.6,25.9,58.6,43.2,93,54.3
		c16.4,4,32.9,8.1,49.8,9.3c-5.4,5.6-10.6,11.4-16.1,16.9c-5,3.4-8.7,8.1-13.6,11.6c-5.5,4.3-10.8,8.8-16.9,12.2
		c-3.6,2-6.6,5-10.2,6.9c-2.4,1.1-4.9-0.6-7-1.8c-8.4-5.6-16.7-11.4-24.8-17.3c-11-8.6-20.9-18.5-30.5-28.6
		c-4.8-4.3-8.5-9.5-12.6-14.4c-3.8-4.3-6.4-9.5-9.8-14.2c-5.5-8.7-10.3-17.8-14.6-27.3c-5.2-10.2-8.3-21.3-11.9-32.1
		C122,291.7,121.8,290.4,121.8,289.8z"/>
	<path class="st1" d="M367.3,304.4c3.8-2.4,6.9-5.7,10.3-8.5c2,0.7,1.2,3.3,1.5,4.9c0.2,10,0.1,20-0.2,30
		c-0.9,9.8-2.5,19.6-4.6,29.2c-0.9,3.5-2,7.9-5.7,9.3c-12.8,3.3-25.9,5.2-39.1,6.9c-9.3,0.3-18.7,0.4-28,0.2
		c-8.6-0.8-17.3,0.8-25.8-1.2c-22.6-3.2-44.6-9.7-65.3-19.4c-4.7-2.8-10-4.5-14.7-7.3l-0.1-1.4c5.4-0.3,10.5,1.8,15.8,2
		c11,0.2,22,0.2,33.1,0c11.6-1.2,23.1-2.9,34.6-5.3c11-1.7,21.3-6.1,31.9-9.5c6-2.1,11.9-4.6,17.5-7.5
		C342.5,321.4,354.7,312.4,367.3,304.4z"/>
</g>
</svg>
