<?xml version="1.0" encoding="utf-8"?>
<!-- Generator: Adobe Illustrator 24.1.1, SVG Export Plug-In . SVG Version: 6.00 Build 0)  -->
<svg version="1.1" id="Layer_1" xmlns="http://www.w3.org/2000/svg" xmlns:xlink="http://www.w3.org/1999/xlink" x="0px" y="0px"
	 viewBox="0 0 100 100" style="enable-background:new 0 0 100 100;" xml:space="preserve">
<g id="_x23_000000ff">
	<path d="M23.4,6.7c3.3-2.3,7.6-3,11.5-2c2.8,0.7,5.5,1.5,8.3,2.2c0.1,0.1,0.3,0,0.4,0.2c-2.6,0.4-5.1,0.9-7.6,1.8
		c-7.3,2.4-13.9,6.7-19.1,12.4c-0.5,0.5-0.9,1.1-1.4,1.6c0.7-2.6,1.4-5.3,2.1-7.9C18.5,11.5,20.5,8.6,23.4,6.7z"/>
	<path d="M47.6,10.4c5.1-0.3,10.3,0.4,15.1,2c7,2.3,13.4,6.6,18.1,12.3c4.5,5.3,7.5,11.8,8.7,18.7c1.3,7.8,0.3,16-3.1,23.3
		c-2.7,5.7-6.7,10.8-11.7,14.7c-5.3,4.1-11.6,6.9-18.2,7.9c-8.2,1.3-16.8,0.1-24.3-3.6c-6.4-3.1-11.9-8-15.8-13.9
		c-2.1-3.2-3.8-6.8-4.9-10.5c-1.5-4.9-1.9-10-1.4-15.1c0.7-7,3.3-13.8,7.5-19.5c4.2-5.7,9.9-10.3,16.4-13
		C38.2,11.8,42.9,10.7,47.6,10.4 M37,21.1c-2.8,0.4-5.4,1.8-7.3,4c-1.7,2-2.6,4.6-2.6,7.2c0,1.9,0.5,3.7,1.3,5.3
		c1.1,2.1,2.9,3.8,5.1,4.9c1.9,0.9,4,1.3,6.1,1.1c3.5-0.3,6.8-2.3,8.7-5.4c1.1-1.8,1.7-4,1.7-6.1c-0.1-1.7-0.5-3.4-1.3-4.9
		c-1.1-2.2-3.1-4.1-5.4-5.1C41.4,21.1,39.1,20.8,37,21.1 M66.9,26.5c-3.2,0.1-6.2,1.5-8.3,3.9c-2.4,2.7-3.4,6.7-2.4,10.2
		c0.8,3.3,3.3,6.1,6.4,7.5c2.4,1.1,5.1,1.3,7.7,0.6c3-0.8,5.6-2.9,7.1-5.6c1.1-2.1,1.5-4.5,1.2-6.8c-0.3-2-1.1-4-2.4-5.6
		C74,27.9,70.4,26.3,66.9,26.5 M49.1,45.3C48,45.5,46.8,46,46,46.9c-0.9,0.9-1.3,2.1-1.4,3.4c0,1.1,0.4,2.2,1,3.1
		c1,1.3,2.6,2.1,4.2,2c1.5,0,3-0.8,3.9-2c0.7-0.8,1-1.9,1.1-2.9c0.1-1.5-0.6-3-1.8-4C52,45.6,50.5,45.2,49.1,45.3 M31.2,51.1
		c-1.3,0.2-2.6,0.5-3.7,1.1c-3.1,1.5-5.4,4.5-6,7.9c-0.8,3.6,0.4,7.5,3,10.2c2.7,2.8,6.9,4,10.6,3.2c2.2-0.5,4.2-1.6,5.7-3.1
		c2.5-2.5,3.8-6.3,3.1-9.8c-0.6-3.4-2.8-6.5-5.8-8.1C36,51.2,33.6,50.8,31.2,51.1 M60.4,56.5c-3,0.3-5.8,1.7-7.8,4
		c-2.2,2.6-3.2,6.3-2.4,9.7c0.5,2.2,1.7,4.3,3.4,5.9c2.7,2.5,6.7,3.5,10.3,2.7c2-0.5,3.9-1.5,5.4-2.9c2.6-2.5,3.9-6.4,3.3-9.9
		c-0.6-3.4-2.8-6.5-5.8-8.1C64.9,56.8,62.6,56.3,60.4,56.5z"/>
	<path d="M76.4,15.6c1.9,0.4,3.9,1,5.8,1.5c2.1,0.6,4.2,0.9,6.1,1.9c2.9,1.4,5.3,3.9,6.6,6.9c1.2,2.7,1.5,5.9,0.9,8.8
		c-0.7,2.6-1.4,5.2-2.1,7.8c-0.2,0.7-0.3,1.4-0.6,2c-0.3-1.5-0.5-3-0.8-4.4c-1.8-7.6-5.7-14.7-11.1-20.2
		C79.8,18.4,78.1,17,76.4,15.6z"/>
	<path d="M5.9,58.5C6,58,6.1,57.5,6.3,57C7.6,64.7,11,72,16,77.9c1.4,1.7,2.9,3.2,4.5,4.6c0.6,0.6,1.3,1.1,2,1.7
		c-1.7-0.4-3.4-0.9-5.2-1.3c-1.9-0.5-3.9-0.9-5.7-1.8c-3.4-1.7-6.1-4.7-7.2-8.3c-0.6-1.9-0.8-4-0.6-6c0.1-1,0.4-2.1,0.7-3.1
		C4.9,61.9,5.4,60.2,5.9,58.5z"/>
	<path d="M83.7,77.5c0.4-0.4,0.7-0.9,1-1.3c-0.2,1-0.5,2-0.8,3c-0.4,1.4-0.8,2.9-1.2,4.3c-0.3,1.2-0.6,2.5-1.1,3.6
		c-1.2,2.9-3.5,5.4-6.2,6.9c-2.2,1.2-4.7,1.9-7.2,1.8c-1.6,0-3.1-0.3-4.6-0.8c-1.8-0.5-3.7-1-5.5-1.4c-0.7-0.2-1.4-0.3-2-0.6
		c6.8-1,13.3-3.6,18.8-7.5C78.2,83.2,81.1,80.5,83.7,77.5z"/>
</g>
</svg>
