<?xml version="1.0" encoding="utf-8"?>
<!-- Generator: Adobe Illustrator 24.1.1, SVG Export Plug-In . SVG Version: 6.00 Build 0)  -->
<svg version="1.1" id="Layer_1" xmlns="http://www.w3.org/2000/svg" xmlns:xlink="http://www.w3.org/1999/xlink" x="0px" y="0px"
	 viewBox="0 0 100 100" style="enable-background:new 0 0 100 100;" xml:space="preserve">
<path d="M87.7,14.1c1.7-0.3,3.9-0.5,5.1,1c1.2,1.5,0.9,3.6,0.7,5.4c-1,7.6-2.3,15.2-3.4,22.8c-1.8,11.5-3.7,23-5.5,34.6
	c-0.3,2.3-0.6,4.8-2.2,6.6c-1.1,1.3-3,1.8-4.6,1.5c-3.5-0.6-6.6-2.4-9.5-4.4c-6.6-4.3-13.2-8.6-19.6-13.3c-1.2-0.9-2.4-1.7-3.4-2.9
	c-0.7-0.9-1.1-2.2-0.8-3.3c0.3-1,1-1.9,1.8-2.6c7.9-7.2,15.7-14.6,23.3-22.1c1.1-1,2-2.2,2.6-3.7c0.2-0.5,0.3-1.2-0.2-1.6
	c-0.7-0.3-1.4,0-2,0.2c-2.3,0.9-4.4,2.4-6.4,3.8c-9.5,6.4-19,12.8-28.5,19.2c-1.1,0.7-2.1,1.6-3.3,2c-1.8,0.6-3.7,0.7-5.6,0.5
	c-2.6-0.3-5-1.2-7.5-1.9c-3.3-1.1-6.7-2.2-10.1-3.3c-1-0.3-1.8-1.2-2-2.2c-0.2-0.8,0.2-1.6,0.7-2.2c1-1.1,2.5-1.8,3.8-2.4
	c17.3-7.1,34.6-14.2,51.8-21.4c7.7-3.3,15.5-6.5,23.2-9.6C86.6,14.4,87.1,14.2,87.7,14.1z"/>
</svg>
